<svg id="Layer_1" data-name="Layer 1" xmlns="http://www.w3.org/2000/svg" xmlns:xlink="http://www.w3.org/1999/xlink" viewBox="0 0 861.29 643.02"><defs><style>.cls-1,.cls-106,.cls-113,.cls-15,.cls-16,.cls-17,.cls-18,.cls-19,.cls-2,.cls-20,.cls-21,.cls-22,.cls-23,.cls-24,.cls-25,.cls-26,.cls-27,.cls-28,.cls-29,.cls-3,.cls-30,.cls-31,.cls-32,.cls-33,.cls-4,.cls-5,.cls-53,.cls-54,.cls-55,.cls-56,.cls-57,.cls-58,.cls-59,.cls-6,.cls-60,.cls-61,.cls-62,.cls-7,.cls-73,.cls-8,.cls-9,.cls-98{fill:none;}.cls-2,.cls-3,.cls-4,.cls-5,.cls-6,.cls-7,.cls-8,.cls-9{stroke:#6d6e71;stroke-linecap:round;stroke-linejoin:round;}.cls-2,.cls-3{stroke-width:7.2px;}.cls-2{stroke-dasharray:0 14.59;}.cls-4,.cls-5{stroke-width:4.32px;}.cls-4{stroke-dasharray:0 8.58;}.cls-6,.cls-7{stroke-width:4.32px;}.cls-6{stroke-dasharray:0 8.58;}.cls-8,.cls-9{stroke-width:4.32px;}.cls-8{stroke-dasharray:0 8.6;}.cls-10{fill:#743947;}.cls-11,.cls-12,.cls-13{font-size:72.23px;font-family:Calibri;}.cls-11,.cls-12,.cls-13,.cls-88,.cls-89,.cls-90,.cls-91,.cls-92,.cls-93,.cls-94,.cls-95,.cls-96,.cls-97{fill:#fff;}.cls-11{letter-spacing:-0.09em;}.cls-12{letter-spacing:0em;}.cls-14{clip-path:url(#clip-path);}.cls-15,.cls-34{font-size:18px;}.cls-15,.cls-16,.cls-17,.cls-18,.cls-19,.cls-20,.cls-21,.cls-22,.cls-23,.cls-24,.cls-25,.cls-26,.cls-27,.cls-28,.cls-29,.cls-30,.cls-31,.cls-32,.cls-33,.cls-53,.cls-54,.cls-55,.cls-56,.cls-57,.cls-58,.cls-59,.cls-60,.cls-61,.cls-62{stroke:#fff;stroke-miterlimit:5.76;stroke-width:2.88px;}.cls-100,.cls-101,.cls-102,.cls-103,.cls-104,.cls-105,.cls-107,.cls-108,.cls-109,.cls-110,.cls-111,.cls-112,.cls-114,.cls-115,.cls-116,.cls-117,.cls-118,.cls-119,.cls-120,.cls-15,.cls-16,.cls-17,.cls-18,.cls-19,.cls-20,.cls-21,.cls-22,.cls-23,.cls-24,.cls-25,.cls-26,.cls-27,.cls-28,.cls-29,.cls-30,.cls-31,.cls-32,.cls-33,.cls-34,.cls-35,.cls-36,.cls-37,.cls-38,.cls-39,.cls-40,.cls-41,.cls-42,.cls-43,.cls-44,.cls-45,.cls-46,.cls-47,.cls-48,.cls-49,.cls-50,.cls-51,.cls-52,.cls-53,.cls-54,.cls-55,.cls-56,.cls-57,.cls-58,.cls-59,.cls-60,.cls-61,.cls-63,.cls-64,.cls-65,.cls-66,.cls-67,.cls-68,.cls-69,.cls-70,.cls-71,.cls-74,.cls-75,.cls-76,.cls-77,.cls-78,.cls-79,.cls-80,.cls-81,.cls-82,.cls-83,.cls-84,.cls-85,.cls-86,.cls-88,.cls-89,.cls-90,.cls-91,.cls-92,.cls-93,.cls-94,.cls-95,.cls-96,.cls-97,.cls-99{font-family:Calibri-Bold, Calibri;font-weight:700;}.cls-16,.cls-35{font-size:18px;}.cls-17,.cls-36{font-size:18px;}.cls-18,.cls-37{font-size:18px;}.cls-19,.cls-38{font-size:18px;}.cls-20,.cls-39{font-size:18px;}.cls-21,.cls-40{font-size:18px;}.cls-22,.cls-41{font-size:18px;}.cls-23,.cls-42{font-size:18px;}.cls-24,.cls-43{font-size:18px;}.cls-25,.cls-44{font-size:18px;}.cls-26,.cls-45{font-size:18px;}.cls-27,.cls-46{font-size:18px;}.cls-28,.cls-47{font-size:18px;}.cls-29,.cls-48{font-size:18px;}.cls-30,.cls-49{font-size:18px;}.cls-31,.cls-50{font-size:18px;}.cls-32,.cls-51{font-size:18px;}.cls-33,.cls-52{font-size:18px;}.cls-53,.cls-63{font-size:18px;}.cls-54,.cls-64{font-size:18px;}.cls-55,.cls-65{font-size:18px;}.cls-56,.cls-66{font-size:18px;}.cls-57,.cls-67{font-size:18px;}.cls-58,.cls-68{font-size:18px;}.cls-59,.cls-69{font-size:18px;}.cls-60,.cls-70{font-size:18px;}.cls-61,.cls-71{font-size:18px;}.cls-72{fill:#c3c5c5;}.cls-106,.cls-113,.cls-73,.cls-98{stroke:#939598;}.cls-74{font-size:20px;}.cls-75{font-size:20px;}.cls-76{font-size:20px;}.cls-77{font-size:20px;}.cls-78{font-size:20px;}.cls-79{font-size:20px;}.cls-80{font-size:20px;}.cls-81{font-size:20px;}.cls-82{font-size:20px;}.cls-83{font-size:20px;}.cls-84{font-size:20px;}.cls-85{font-size:20px;}.cls-86{font-size:20px;}.cls-87{fill:#6d6e71;}.cls-88{font-size:24px;}.cls-89{font-size:24px;}.cls-90{font-size:24px;}.cls-91{font-size:24px;}.cls-92{font-size:24px;}.cls-93{font-size:24px;}.cls-94{font-size:24px;}.cls-95{font-size:24px;}.cls-96{font-size:24px;}.cls-97{font-size:24px;}.cls-99{font-size:20px;}.cls-100{font-size:20px;}.cls-101{font-size:20px;}.cls-102{font-size:20px;}.cls-103{font-size:20px;}.cls-104{font-size:20px;}.cls-105{font-size:20px;}.cls-107{font-size:20px;}.cls-108{font-size:20px;}.cls-109{font-size:20px;}.cls-110{font-size:20px;}.cls-111{font-size:20px;}.cls-112{font-size:20px;}.cls-114{font-size:20px;}.cls-115{font-size:20px;}.cls-116{font-size:20px;}.cls-117{font-size:20px;}.cls-118{font-size:20px;}.cls-119{font-size:20px;}.cls-120{font-size:20px;}.cls-121{fill:#4e846f;}.cls-122,.cls-124,.cls-125,.cls-126,.cls-127,.cls-128,.cls-129{font-size:16px;font-family:Calibri-Light, Calibri;font-weight:300;}.cls-122,.cls-123,.cls-124,.cls-125,.cls-126,.cls-127,.cls-128,.cls-129{fill:#dbdcc4;}.cls-122{letter-spacing:0.02em;}.cls-124{letter-spacing:-0.01em;}.cls-125{letter-spacing:0.01em;}.cls-126{letter-spacing:0.01em;}.cls-128{letter-spacing:0.01em;}.cls-129{letter-spacing:-0.06em;}</style><clipPath id="clip-path" transform="translate(67.41 -103.8)"><rect class="cls-1" x="-206" y="12" width="1023.88" height="768"/></clipPath></defs><title>Textplus_Wagenrad_bold_mit_gruen_dt</title><path class="cls-2" d="M450.25,602.58c105.82-91.36,124.27-249.47,41.17-362.89M477.8,222.57C386.44,116.75,228.33,98.3,114.91,181.39M97.79,195C-8,286.37-26.48,444.48,56.61,557.9M70.24,575C161.59,680.85,319.7,699.3,433.12,616.2" transform="translate(67.41 -103.8)"/><path class="cls-3" d="M487,233.86h0M109.08,185.78h0M61,563.73h0m378,48.08h0" transform="translate(67.41 -103.8)"/><line class="cls-4" x1="437.03" y1="126.15" x2="246.33" y2="466.84"/><path class="cls-5" d="M373.81,222.46h0m-197,351.92h0" transform="translate(67.41 -103.8)"/><line class="cls-6" x1="241.95" y1="130.29" x2="441.65" y2="465.79"/><path class="cls-7" d="M170.15,226.71h0M376.43,573.27h0" transform="translate(67.41 -103.8)"/><line class="cls-8" x1="144.24" y1="287.18" x2="492.5" y2="286.93"/><path class="cls-9" d="M68.23,391h0m361.17-.27h0" transform="translate(67.41 -103.8)"/><path class="cls-10" d="M542.8,507.92a118.54,118.54,0,1,0-119-118,118.54,118.54,0,0,0,119,118Z" transform="translate(67.41 -103.8)"/><text class="cls-11" transform="matrix(1, 0, 0, 1, 532.17, 313.01)">Te</text><text class="cls-12" transform="matrix(1, 0, 0, 1, 595.8, 312.73)">xt</text><text class="cls-13" transform="matrix(1, 0, 0, 1, 651.48, 312.49)">+</text><g class="cls-14"><text class="cls-15" transform="translate(522.8 390.16) rotate(38.6)">I</text><text class="cls-16" transform="translate(527.16 393.69) rotate(35.85)">n</text><text class="cls-17" transform="matrix(0.85, 0.53, -0.53, 0.85, 536.05, 399.96)">f</text><text class="cls-18" transform="translate(541.65 403.41) rotate(28.96)">r</text><text class="cls-19" transform="matrix(0.91, 0.42, -0.42, 0.91, 548.4, 407.18)">a</text><text class="cls-20" transform="translate(557.29 411.22) rotate(21.97)">s</text><text class="cls-21" transform="translate(565.28 414.34) rotate(17.74)">t</text><text class="cls-22" transform="translate(572.11 416.52) rotate(14.89)">r</text><text class="cls-23" transform="translate(579.6 418.56) rotate(10.6)">u</text><text class="cls-24" transform="translate(590.38 420.55) rotate(6.27)">k</text><text class="cls-25" transform="translate(600.16 421.57) rotate(3.38)">t</text><text class="cls-26" transform="translate(607.74 422) rotate(-0.97)">u</text><text class="cls-27" transform="translate(618.72 421.76) rotate(-5.32)">r</text><text class="cls-28" transform="matrix(0.99, -0.12, 0.12, 0.99, 625.56, 421.11)"> </text><text class="cls-29" transform="matrix(0.99, -0.17, 0.17, 0.99, 630.53, 420.49)">/</text><text class="cls-19" transform="translate(639.07 418.93) rotate(-12.53)"> </text><text class="cls-30" transform="translate(644.42 417.78) rotate(-16.82)">B</text><text class="cls-15" transform="matrix(0.93, -0.36, 0.36, 0.93, 655.4, 414.42)">e</text><text class="cls-31" transform="matrix(0.9, -0.43, 0.43, 0.9, 665.1, 410.6)">t</text><text class="cls-23" transform="matrix(0.88, -0.47, 0.47, 0.88, 671.58, 407.56)">r</text><text class="cls-32" transform="matrix(0.86, -0.51, 0.51, 0.86, 677.96, 404.12)">i</text><text class="cls-32" transform="translate(682.48 401.45) rotate(-33.6)">e</text><text class="cls-33" transform="translate(691.02 395.65) rotate(-37.73)">b</text></g><text class="cls-34" transform="translate(522.8 390.16) rotate(38.6)">I</text><text class="cls-35" transform="translate(527.16 393.69) rotate(35.85)">n</text><text class="cls-36" transform="matrix(0.85, 0.53, -0.53, 0.85, 536.05, 399.96)">f</text><text class="cls-37" transform="translate(541.65 403.41) rotate(28.96)">r</text><text class="cls-38" transform="matrix(0.91, 0.42, -0.42, 0.91, 548.4, 407.18)">a</text><text class="cls-39" transform="translate(557.29 411.22) rotate(21.97)">s</text><text class="cls-40" transform="translate(565.28 414.34) rotate(17.74)">t</text><text class="cls-41" transform="translate(572.11 416.52) rotate(14.89)">r</text><text class="cls-42" transform="translate(579.6 418.56) rotate(10.6)">u</text><text class="cls-43" transform="translate(590.38 420.55) rotate(6.27)">k</text><text class="cls-44" transform="translate(600.16 421.57) rotate(3.38)">t</text><text class="cls-45" transform="translate(607.74 422) rotate(-0.97)">u</text><text class="cls-46" transform="translate(618.72 421.76) rotate(-5.32)">r</text><text class="cls-47" transform="matrix(0.99, -0.12, 0.12, 0.99, 625.56, 421.11)"> </text><text class="cls-48" transform="matrix(0.99, -0.17, 0.17, 0.99, 630.53, 420.49)">/</text><text class="cls-38" transform="translate(639.07 418.93) rotate(-12.53)"> </text><text class="cls-49" transform="translate(644.42 417.78) rotate(-16.82)">B</text><text class="cls-34" transform="matrix(0.93, -0.36, 0.36, 0.93, 655.4, 414.42)">e</text><text class="cls-50" transform="matrix(0.9, -0.43, 0.43, 0.9, 665.1, 410.6)">t</text><text class="cls-42" transform="matrix(0.88, -0.47, 0.47, 0.88, 671.58, 407.56)">r</text><text class="cls-51" transform="matrix(0.86, -0.51, 0.51, 0.86, 677.96, 404.12)">i</text><text class="cls-51" transform="translate(682.48 401.45) rotate(-33.6)">e</text><text class="cls-52" transform="translate(691.02 395.65) rotate(-37.73)">b</text><g class="cls-14"><text class="cls-25" transform="translate(487.04 282.75) rotate(-86.62)">S</text><text class="cls-18" transform="translate(487.51 273.97) rotate(-82.28)">a</text><text class="cls-27" transform="translate(488.51 264.84) rotate(-76.54)">m</text><text class="cls-53" transform="translate(491.9 250.15) rotate(-69.43)">m</text><text class="cls-54" transform="translate(497.2 236.35) rotate(-65.22)">l</text><text class="cls-55" transform="translate(499 232.31) rotate(-62.43)">u</text><text class="cls-17" transform="matrix(0.53, -0.85, 0.85, 0.53, 503.58, 223.68)">n</text><text class="cls-27" transform="matrix(0.6, -0.8, 0.8, 0.6, 508.89, 215.18)">g</text><text class="cls-22" transform="translate(514 208.32) rotate(-48.67)">e</text><text class="cls-56" transform="translate(520.02 201.36) rotate(-44.57)">n</text><text class="cls-54" transform="matrix(0.75, -0.67, 0.67, 0.75, 527.01, 194.58)"> </text><text class="cls-32" transform="translate(530.09 191.79) rotate(-39.1)">-</text><text class="cls-33" transform="translate(534.34 188.35) rotate(-37.73)"> </text><text class="cls-24" transform="translate(537.64 185.83) rotate(-34.98)">L</text><text class="cls-32" transform="matrix(0.86, -0.51, 0.51, 0.86, 544.12, 181.35)">e</text><text class="cls-26" transform="translate(552.04 176.71) rotate(-26.67)">x</text><text class="cls-24" transform="translate(559.47 173.07) rotate(-23.88)">i</text><text class="cls-57" transform="translate(563.62 171.15) rotate(-19.65)">k</text><text class="cls-30" transform="translate(571.81 168.23) rotate(-16.82)">a</text><text class="cls-19" transform="translate(580.47 165.73) rotate(-12.53)">l</text><text class="cls-58" transform="translate(584.66 164.79) rotate(-11.1)">i</text><text class="cls-59" transform="translate(589.05 163.89) rotate(-8.22)">s</text><text class="cls-27" transform="translate(596.24 162.87) rotate(-5.32)">c</text><text class="cls-26" transform="translate(604.05 162.19) rotate(-0.97)">h</text><text class="cls-25" transform="translate(613.87 162.08) rotate(3.38)">e</text><text class="cls-24" transform="translate(622.99 162.72) rotate(6.27)"> </text><text class="cls-23" transform="translate(627.29 163.1) rotate(10.6)">R</text><text class="cls-22" transform="translate(637.34 164.94) rotate(14.89)">e</text><text class="cls-17" transform="translate(646.29 167.3) rotate(19.15)">s</text><text class="cls-20" transform="translate(653.18 169.66) rotate(21.97)">s</text><text class="cls-53" transform="translate(660.05 172.37) rotate(26.17)">o</text><text class="cls-29" transform="matrix(0.86, 0.51, -0.51, 0.86, 668.86, 176.71)">u</text><text class="cls-60" transform="matrix(0.82, 0.57, -0.57, 0.82, 677.26, 181.71)">r</text><text class="cls-27" transform="matrix(0.8, 0.6, -0.6, 0.8, 682.58, 185.36)">c</text><text class="cls-22" transform="translate(688.72 190.05) rotate(41.33)">e</text><text class="cls-56" transform="translate(695.59 196.16) rotate(45.43)">n</text><text class="cls-26" transform="translate(702.43 203.26) rotate(49.53)"> </text><text class="cls-32" transform="translate(705.05 206.32) rotate(50.9)">-</text><text class="cls-61" transform="translate(708.54 210.68) rotate(53.65)"> </text><text class="cls-32" transform="translate(711.05 214.01) rotate(56.4)">E</text><text class="cls-53" transform="translate(715.84 221.28) rotate(60.54)">d</text><text class="cls-31" transform="matrix(0.43, 0.9, -0.9, 0.43, 720.58, 229.85)">i</text><path class="cls-62" d="M664.39,337.88l1.62-.67a.29.29,0,0,0,.13-.11.36.36,0,0,0,0-.22,1,1,0,0,0-.06-.34c0-.14-.11-.31-.19-.51a2.62,2.62,0,0,0-.22-.47,1.11,1.11,0,0,0-.19-.29c-.07-.07-.13-.12-.19-.12a.21.21,0,0,0-.17,0l-1.61.67-.36-.87a.45.45,0,0,0-.1-.13.69.69,0,0,0-.19,0,.79.79,0,0,0-.27,0,2.07,2.07,0,0,0-.41.15,1.89,1.89,0,0,0-.6.34.29.29,0,0,0-.1.32l.36.88-3.7,1.53a5.16,5.16,0,0,0-1.11.62,2.11,2.11,0,0,0-.62.76,1.9,1.9,0,0,0-.18.95,3.66,3.66,0,0,0,.29,1.11c.06.15.14.29.2.44a2.29,2.29,0,0,0,.26.38,2.09,2.09,0,0,0,.24.31.51.51,0,0,0,.24.15.62.62,0,0,0,.31,0,3.3,3.3,0,0,0,.55-.19,2.81,2.81,0,0,0,.38-.17l.21-.15a.44.44,0,0,0,.09-.11.2.2,0,0,0,0-.11.41.41,0,0,0-.06-.11.62.62,0,0,1-.14-.14,1.08,1.08,0,0,1-.16-.2,2,2,0,0,1-.16-.29.79.79,0,0,1,0-.79,1.92,1.92,0,0,1,.8-.55l3.41-1.41,1.34,3.25-5.85,2.42a.21.21,0,0,0-.13.11.55.55,0,0,0,0,.21,1,1,0,0,0,.06.34c0,.14.11.31.19.51a3.57,3.57,0,0,0,.22.47,1.09,1.09,0,0,0,.2.29.53.53,0,0,0,.16.13.25.25,0,0,0,.17,0l7-2.88a.7.7,0,0,0,.36-.31.71.71,0,0,0,0-.54Zm5.15,3.95a1.5,1.5,0,0,0-.16-1,1.55,1.55,0,0,0-.62-.84,1.32,1.32,0,0,0-1,.11,1.26,1.26,0,0,0-.72.57,1.55,1.55,0,0,0,.16,1.05,1.48,1.48,0,0,0,.62.83,1.28,1.28,0,0,0,.95-.1,1.27,1.27,0,0,0,.73-.59Z" transform="translate(67.41 -103.8)"/><text class="cls-15" transform="matrix(0.36, 0.93, -0.93, 0.36, 724.63, 238.75)"> </text><text class="cls-30" transform="translate(726.73 243.9) rotate(73.18)">o</text><text class="cls-19" transform="translate(729.64 253.34) rotate(77.47)">n</text><text class="cls-59" transform="translate(731.78 262.91) rotate(81.78)">e</text><text class="cls-27" transform="translate(733.12 272.03) rotate(86.12)">n</text></g><text class="cls-44" transform="translate(487.04 282.75) rotate(-86.62)">S</text><text class="cls-37" transform="translate(487.51 273.97) rotate(-82.28)">a</text><text class="cls-46" transform="translate(488.51 264.84) rotate(-76.54)">m</text><text class="cls-63" transform="translate(491.9 250.15) rotate(-69.43)">m</text><text class="cls-64" transform="translate(497.2 236.35) rotate(-65.22)">l</text><text class="cls-65" transform="translate(499 232.31) rotate(-62.43)">u</text><text class="cls-36" transform="matrix(0.53, -0.85, 0.85, 0.53, 503.58, 223.68)">n</text><text class="cls-46" transform="matrix(0.6, -0.8, 0.8, 0.6, 508.89, 215.18)">g</text><text class="cls-41" transform="translate(514 208.32) rotate(-48.67)">e</text><text class="cls-66" transform="translate(520.02 201.36) rotate(-44.57)">n</text><text class="cls-64" transform="matrix(0.75, -0.67, 0.67, 0.75, 527.01, 194.58)"> </text><text class="cls-51" transform="translate(530.09 191.79) rotate(-39.1)">-</text><text class="cls-52" transform="translate(534.34 188.35) rotate(-37.73)"> </text><text class="cls-43" transform="translate(537.64 185.83) rotate(-34.98)">L</text><text class="cls-51" transform="matrix(0.86, -0.51, 0.51, 0.86, 544.12, 181.35)">e</text><text class="cls-45" transform="translate(552.04 176.71) rotate(-26.67)">x</text><text class="cls-43" transform="translate(559.47 173.07) rotate(-23.88)">i</text><text class="cls-67" transform="translate(563.62 171.15) rotate(-19.65)">k</text><text class="cls-49" transform="translate(571.81 168.23) rotate(-16.82)">a</text><text class="cls-38" transform="translate(580.47 165.73) rotate(-12.53)">l</text><text class="cls-68" transform="translate(584.66 164.79) rotate(-11.1)">i</text><text class="cls-69" transform="translate(589.05 163.89) rotate(-8.22)">s</text><text class="cls-46" transform="translate(596.24 162.87) rotate(-5.32)">c</text><text class="cls-45" transform="translate(604.05 162.19) rotate(-0.97)">h</text><text class="cls-44" transform="translate(613.87 162.08) rotate(3.38)">e</text><text class="cls-43" transform="translate(622.99 162.72) rotate(6.27)"> </text><text class="cls-42" transform="translate(627.29 163.1) rotate(10.6)">R</text><text class="cls-41" transform="translate(637.34 164.94) rotate(14.89)">e</text><text class="cls-36" transform="translate(646.29 167.3) rotate(19.15)">s</text><text class="cls-39" transform="translate(653.18 169.66) rotate(21.97)">s</text><text class="cls-63" transform="translate(660.05 172.37) rotate(26.17)">o</text><text class="cls-48" transform="matrix(0.86, 0.51, -0.51, 0.86, 668.86, 176.71)">u</text><text class="cls-70" transform="matrix(0.82, 0.57, -0.57, 0.82, 677.26, 181.71)">r</text><text class="cls-46" transform="matrix(0.8, 0.6, -0.6, 0.8, 682.58, 185.36)">c</text><text class="cls-41" transform="translate(688.72 190.05) rotate(41.33)">e</text><text class="cls-66" transform="translate(695.59 196.16) rotate(45.43)">n</text><text class="cls-45" transform="translate(702.43 203.26) rotate(49.53)"> </text><text class="cls-51" transform="translate(705.05 206.32) rotate(50.9)">-</text><text class="cls-71" transform="translate(708.54 210.68) rotate(53.65)"> </text><text class="cls-51" transform="translate(711.05 214.01) rotate(56.4)">E</text><text class="cls-63" transform="translate(715.84 221.28) rotate(60.54)">d</text><text class="cls-50" transform="matrix(0.43, 0.9, -0.9, 0.43, 720.58, 229.85)">i</text><path d="M664.39,337.88l1.62-.67a.29.29,0,0,0,.13-.11.36.36,0,0,0,0-.22,1,1,0,0,0-.06-.34c0-.14-.11-.31-.19-.51a2.62,2.62,0,0,0-.22-.47,1.11,1.11,0,0,0-.19-.29c-.07-.07-.13-.12-.19-.12a.21.21,0,0,0-.17,0l-1.61.67-.36-.87a.45.45,0,0,0-.1-.13.69.69,0,0,0-.19,0,.79.79,0,0,0-.27,0,2.07,2.07,0,0,0-.41.15,1.89,1.89,0,0,0-.6.34.29.29,0,0,0-.1.32l.36.88-3.7,1.53a5.16,5.16,0,0,0-1.11.62,2.11,2.11,0,0,0-.62.76,1.9,1.9,0,0,0-.18.95,3.66,3.66,0,0,0,.29,1.11c.06.15.14.29.2.44a2.29,2.29,0,0,0,.26.38,2.09,2.09,0,0,0,.24.31.51.51,0,0,0,.24.15.62.62,0,0,0,.31,0,3.3,3.3,0,0,0,.55-.19,2.81,2.81,0,0,0,.38-.17l.21-.15a.44.44,0,0,0,.09-.11.2.2,0,0,0,0-.11.41.41,0,0,0-.06-.11.62.62,0,0,1-.14-.14,1.08,1.08,0,0,1-.16-.2,2,2,0,0,1-.16-.29.79.79,0,0,1,0-.79,1.92,1.92,0,0,1,.8-.55l3.41-1.41,1.34,3.25-5.85,2.42a.21.21,0,0,0-.13.11.55.55,0,0,0,0,.21,1,1,0,0,0,.06.34c0,.14.11.31.19.51a3.57,3.57,0,0,0,.22.47,1.09,1.09,0,0,0,.2.29.53.53,0,0,0,.16.13.25.25,0,0,0,.17,0l7-2.88a.7.7,0,0,0,.36-.31.71.71,0,0,0,0-.54Zm5.15,3.95a1.5,1.5,0,0,0-.16-1,1.55,1.55,0,0,0-.62-.84,1.32,1.32,0,0,0-1,.11,1.26,1.26,0,0,0-.72.57,1.55,1.55,0,0,0,.16,1.05,1.48,1.48,0,0,0,.62.83,1.28,1.28,0,0,0,.95-.1,1.27,1.27,0,0,0,.73-.59Z" transform="translate(67.41 -103.8)"/><text class="cls-34" transform="matrix(0.36, 0.93, -0.93, 0.36, 724.63, 238.75)"> </text><text class="cls-49" transform="translate(726.73 243.9) rotate(73.18)">o</text><text class="cls-38" transform="translate(729.64 253.34) rotate(77.47)">n</text><text class="cls-69" transform="translate(731.78 262.91) rotate(81.78)">e</text><text class="cls-46" transform="translate(733.12 272.03) rotate(86.12)">n</text><path class="cls-72" d="M157.93,235.15a67.89,67.89,0,1,0-88.38-37.51,67.89,67.89,0,0,0,88.38,37.51Z" transform="translate(67.41 -103.8)"/><path class="cls-73" d="M157.93,235.15a67.89,67.89,0,1,0-88.38-37.51,67.89,67.89,0,0,0,88.38,37.51Z" transform="translate(67.41 -103.8)"/><text class="cls-74" transform="translate(152.53 59.09) rotate(-69.04)">N</text><text class="cls-75" transform="translate(156.77 47.67) rotate(-58.12)">F</text><text class="cls-76" transform="matrix(0.7, -0.72, 0.72, 0.7, 160.19, 40.94)">D</text><text class="cls-77" transform="translate(168.51 32.35) rotate(-35.75)">I</text><text class="cls-78" transform="translate(173.55 28.65) rotate(-29.99)"> </text><text class="cls-79" transform="translate(176.64 26.19) rotate(-19.82)">K</text><text class="cls-80" transform="matrix(0.99, -0.17, 0.17, 0.99, 185.92, 22.51)">o</text><text class="cls-81" transform="matrix(1, 0.05, -0.05, 1, 194.86, 20.46)">n</text><text class="cls-82" transform="translate(205.04 20.78) rotate(12.75)">s</text><text class="cls-83" transform="translate(212.07 21.8) rotate(23.68)">o</text><text class="cls-78" transform="translate(221.55 25.7) rotate(33.25)">r</text><text class="cls-84" transform="translate(227.97 29.67) rotate(41.54)">t</text><text class="cls-80" transform="matrix(0.66, 0.75, -0.75, 0.66, 233.49, 34.51)">i</text><text class="cls-85" transform="translate(236.69 37.3) rotate(58.57)">u</text><text class="cls-86" transform="matrix(0.34, 0.94, -0.94, 0.34, 242.1, 45.08)">m</text><path class="cls-87" d="M206.13,398.5a67.89,67.89,0,0,0,135.78,0" transform="translate(67.41 -103.8)"/><text class="cls-88" transform="translate(281.83 309.54) rotate(66.37)">D</text><text class="cls-89" transform="translate(289.76 326.82) rotate(52.52)">I</text><text class="cls-90" transform="matrix(0.78, 0.63, -0.63, 0.78, 295.56, 335.5)">R</text><text class="cls-88" transform="translate(308.85 346.55) rotate(23.63)">E</text><text class="cls-91" transform="translate(322.74 353.23) rotate(7.97)">K</text><text class="cls-92" transform="translate(340.14 355.8) rotate(-6.52)">T</text><text class="cls-88" transform="translate(355.4 354.7) rotate(-23.63)">O</text><text class="cls-93" transform="translate(373.65 347.05) rotate(-41.58)">R</text><text class="cls-94" transform="translate(387.14 335.36) rotate(-56.65)">A</text><text class="cls-92" transform="matrix(0.33, -0.94, 0.94, 0.33, 396.35, 321.04)">T</text><path class="cls-87" d="M341.91,399.09a67.89,67.89,0,0,0-135.78,0" transform="translate(67.41 -103.8)"/><text class="cls-95" transform="translate(317.01 256.33) rotate(-17.99)">N</text><text class="cls-96" transform="translate(331.25 251.07) rotate(-2.18)">F</text><text class="cls-97" transform="translate(341.39 249.39) rotate(13.71)">D</text><text class="cls-90" transform="matrix(0.91, 0.42, -0.42, 0.91, 357.07, 253.39)">I</text><path class="cls-72" d="M392.71,238.61a67.89,67.89,0,1,0-80.53-52.29,67.9,67.9,0,0,0,80.53,52.29Z" transform="translate(67.41 -103.8)"/><path class="cls-98" d="M392.71,238.61a67.89,67.89,0,1,0-80.53-52.29,67.9,67.9,0,0,0,80.53,52.29Z" transform="translate(67.41 -103.8)"/><text class="cls-78" transform="matrix(0.51, -0.86, 0.86, 0.51, 400.95, 51.02)">N</text><text class="cls-80" transform="matrix(0.67, -0.74, 0.74, 0.67, 407.12, 40.51)">F</text><text class="cls-84" transform="translate(411.65 34.48) rotate(-35.66)">D</text><text class="cls-99" transform="translate(421.34 27.43) rotate(-25.75)">I</text><text class="cls-82" transform="translate(426.94 24.68) rotate(-19.99)"> </text><text class="cls-80" transform="translate(430.42 22.8) rotate(-9.82)">K</text><text class="cls-100" transform="matrix(1, 0.01, -0.01, 1, 440.19, 20.76)">o</text><text class="cls-101" transform="matrix(0.97, 0.23, -0.23, 0.97, 449.35, 20.32)">n</text><text class="cls-102" transform="translate(459.34 22.4) rotate(22.75)">s</text><text class="cls-103" transform="translate(466.07 24.62) rotate(33.68)">o</text><text class="cls-104" transform="translate(474.73 30.11) rotate(43.25)">r</text><text class="cls-80" transform="matrix(0.62, 0.78, -0.78, 0.62, 480.35, 35.13)">t</text><text class="cls-105" transform="matrix(0.52, 0.85, -0.85, 0.52, 484.97, 40.87)">i</text><text class="cls-77" transform="translate(487.62 44.15) rotate(68.57)">u</text><text class="cls-80" transform="translate(491.6 52.78) rotate(80.18)">m</text><path class="cls-72" d="M420.57,690.49a67.89,67.89,0,1,0-84.38-45.82,67.89,67.89,0,0,0,84.38,45.82Z" transform="translate(67.41 -103.8)"/><path class="cls-106" d="M420.57,690.49a67.89,67.89,0,1,0-84.38-45.82,67.89,67.89,0,0,0,84.38,45.82Z" transform="translate(67.41 -103.8)"/><text class="cls-104" transform="translate(422.43 507.79) rotate(-63.54)">N</text><text class="cls-76" transform="translate(427.74 496.82) rotate(-52.62)">F</text><text class="cls-85" transform="matrix(0.76, -0.64, 0.64, 0.76, 431.78, 490.46)">D</text><text class="cls-107" transform="matrix(0.86, -0.5, 0.5, 0.86, 440.89, 482.68)">I</text><text class="cls-100" transform="translate(446.26 479.51) rotate(-24.49)"> </text><text class="cls-108" transform="matrix(0.97, -0.25, 0.25, 0.97, 449.57, 477.35)">K</text><text class="cls-109" transform="translate(459.15 474.55) rotate(-4.19)">o</text><text class="cls-77" transform="matrix(0.99, 0.15, -0.15, 0.99, 468.27, 473.39)">n</text><text class="cls-74" transform="matrix(0.95, 0.31, -0.31, 0.95, 478.37, 474.68)">s</text><text class="cls-105" transform="translate(485.26 476.36) rotate(29.18)">o</text><text class="cls-110" transform="matrix(0.78, 0.63, -0.63, 0.78, 494.33, 481.16)">r</text><text class="cls-111" transform="translate(500.33 485.73) rotate(47.04)">t</text><text class="cls-112" transform="translate(505.37 491.08) rotate(54.06)">i</text><text class="cls-85" transform="translate(508.28 494.14) rotate(64.07)">u</text><text class="cls-108" transform="matrix(0.25, 0.97, -0.97, 0.25, 512.93, 502.44)">m</text><path class="cls-72" d="M151.84,691.8a67.89,67.89,0,1,0-80.52-52.29,67.88,67.88,0,0,0,80.52,52.29Z" transform="translate(67.41 -103.8)"/><path class="cls-98" d="M151.84,691.8a67.89,67.89,0,1,0-80.52-52.29,67.88,67.88,0,0,0,80.52,52.29Z" transform="translate(67.41 -103.8)"/><text class="cls-78" transform="matrix(0.51, -0.86, 0.86, 0.51, 160.09, 504.21)">N</text><text class="cls-80" transform="matrix(0.67, -0.74, 0.74, 0.67, 166.26, 493.7)">F</text><text class="cls-84" transform="translate(170.78 487.66) rotate(-35.66)">D</text><text class="cls-99" transform="translate(180.47 480.63) rotate(-25.75)">I</text><text class="cls-82" transform="translate(186.08 477.87) rotate(-19.99)"> </text><text class="cls-80" transform="translate(189.55 475.99) rotate(-9.82)">K</text><text class="cls-100" transform="matrix(1, 0.01, -0.01, 1, 199.31, 473.95)">o</text><text class="cls-101" transform="matrix(0.97, 0.23, -0.23, 0.97, 208.48, 473.52)">n</text><text class="cls-102" transform="translate(218.46 475.59) rotate(22.75)">s</text><text class="cls-103" transform="translate(225.2 477.81) rotate(33.68)">o</text><text class="cls-104" transform="translate(233.86 483.3) rotate(43.25)">r</text><text class="cls-80" transform="matrix(0.62, 0.78, -0.78, 0.62, 239.48, 488.32)">t</text><text class="cls-105" transform="matrix(0.52, 0.85, -0.85, 0.52, 244.1, 494.07)">i</text><text class="cls-77" transform="translate(246.75 497.35) rotate(68.57)">u</text><text class="cls-80" transform="translate(250.73 505.96) rotate(80.18)">m</text><path class="cls-72" d="M22.54,462.8A67.89,67.89,0,1,0-20.54,334,67.89,67.89,0,0,0,22.54,462.8Z" transform="translate(67.41 -103.8)"/><path class="cls-113" d="M22.54,462.8A67.89,67.89,0,1,0-20.54,334,67.89,67.89,0,0,0,22.54,462.8Z" transform="translate(67.41 -103.8)"/><text class="cls-114" transform="translate(21.7 282.44) rotate(-65.54)">N</text><text class="cls-80" transform="translate(26.62 271.3) rotate(-54.62)">F</text><text class="cls-111" transform="translate(30.44 264.8) rotate(-42.16)">D</text><text class="cls-103" transform="matrix(0.85, -0.53, 0.53, 0.85, 39.27, 256.72)">I</text><text class="cls-115" transform="matrix(0.9, -0.45, 0.45, 0.9, 44.52, 253.33)"> </text><text class="cls-116" transform="translate(47.76 251.06) rotate(-16.32)">K</text><text class="cls-117" transform="matrix(0.99, -0.11, 0.11, 0.99, 57.25, 247.96)">o</text><text class="cls-108" transform="matrix(0.99, 0.11, -0.11, 0.99, 66.3, 246.47)">n</text><text class="cls-118" transform="matrix(0.96, 0.28, -0.28, 0.96, 76.44, 247.4)">s</text><text class="cls-116" transform="matrix(0.89, 0.46, -0.46, 0.89, 83.4, 248.84)">o</text><text class="cls-103" transform="translate(92.61 253.31) rotate(36.75)">r</text><text class="cls-116" transform="matrix(0.71, 0.71, -0.71, 0.71, 98.78, 257.68)">t</text><text class="cls-119" transform="matrix(0.61, 0.79, -0.79, 0.61, 104.01, 262.85)">i</text><text class="cls-74" transform="matrix(0.47, 0.88, -0.88, 0.47, 107.02, 265.82)">u</text><text class="cls-120" transform="matrix(0.28, 0.96, -0.96, 0.28, 111.95, 273.92)">m</text><polygon class="cls-121" points="550.89 584.2 550.89 643.02 861.29 643.02 861.29 584.2 550.89 584.2 550.89 584.2"/><text class="cls-122" transform="translate(586.52 610.01)">TEXT</text><path class="cls-123" d="M558.34,709.12a.39.39,0,0,0-.06-.13l-.08-.08-.12,0h-2.64v-3a.2.2,0,0,0,0-.09.2.2,0,0,0-.08-.08l-.15,0a.56.56,0,0,0-.2,0,.59.59,0,0,0-.2,0l-.14,0a.2.2,0,0,0-.08.08s0,0,0,.09v3h-2.64l-.12,0-.08.08a.39.39,0,0,0-.06.13.62.62,0,0,0,0,.19.5.5,0,0,0,0,.19.36.36,0,0,0,.06.15s0,.06.08.08l.12,0h2.64v2.94s0,.07,0,.08,0,.05.08.07l.14,0h.4l.15,0s.06,0,.08-.07,0,0,0-.08v-2.94h2.64l.12,0,.08-.08a.36.36,0,0,0,.06-.15.5.5,0,0,0,0-.19.62.62,0,0,0,0-.19Zm11-.58s0-.09,0-.13,0,0-.08-.06,0,0-.08,0h-3.26a.27.27,0,0,0-.18.08.86.86,0,0,0,0,.63.23.23,0,0,0,.18.08h3.26a.18.18,0,0,0,.16-.08.5.5,0,0,0,.07-.32.5.5,0,0,0,0-.18Z" transform="translate(67.41 -103.8)"/><text class="cls-124" transform="translate(636.92 610.01)"><tspan xml:space="preserve"> S</tspan></text><text class="cls-125" transform="translate(647.92 610.01)">PRAC</text><path class="cls-123" d="M624,703.85a.28.28,0,0,0,0-.09l-.08-.07-.16,0a.79.79,0,0,0-.23,0,.9.9,0,0,0-.24,0,.58.58,0,0,1-.14,0l-.08.07a.15.15,0,0,0,0,.09v4.24h-5v-4.24a.28.28,0,0,0,0-.09l-.08-.07-.15,0a.82.82,0,0,0-.24,0,.72.72,0,0,0-.22,0l-.16,0a.29.29,0,0,0-.08.07.15.15,0,0,0,0,.09v9.8a.15.15,0,0,0,0,.09.29.29,0,0,0,.08.07l.16,0a.72.72,0,0,0,.22,0,.82.82,0,0,0,.24,0l.15,0,.08-.07a.28.28,0,0,0,0-.09v-4.71h5v4.71a.15.15,0,0,0,0,.09l.08.07a.58.58,0,0,1,.14,0,.9.9,0,0,0,.24,0,.79.79,0,0,0,.23,0l.16,0,.08-.07a.28.28,0,0,0,0-.09Zm5.68,4.69a.5.5,0,0,0,0-.13s0,0-.08-.06,0,0-.08,0h-3.26a.27.27,0,0,0-.18.08.6.6,0,0,0-.06.31.6.6,0,0,0,.06.32.23.23,0,0,0,.18.08h3.26a.18.18,0,0,0,.16-.08.5.5,0,0,0,.07-.32.5.5,0,0,0,0-.18Zm9.25-4.69a.28.28,0,0,0,0-.09l-.08-.07-.16,0a.79.79,0,0,0-.23,0,.72.72,0,0,0-.22,0l-.16,0a.29.29,0,0,0-.08.07.15.15,0,0,0,0,.09v6.25a4.53,4.53,0,0,1-.17,1.29,2.8,2.8,0,0,1-.53,1,2.38,2.38,0,0,1-.85.56,3.47,3.47,0,0,1-1.12.17,3,3,0,0,1-1.12-.19,2.12,2.12,0,0,1-.83-.58,2.41,2.41,0,0,1-.55-.94,4.78,4.78,0,0,1-.17-1.33v-6.18a.15.15,0,0,0,0-.09l-.08-.07-.16,0a1.28,1.28,0,0,0-.45,0l-.14,0a.29.29,0,0,0-.1.07.28.28,0,0,0,0,.09v6.34a4.75,4.75,0,0,0,.25,1.62,3.39,3.39,0,0,0,.74,1.17,3,3,0,0,0,1.13.72,4.09,4.09,0,0,0,1.43.24,4.26,4.26,0,0,0,1.54-.26,3.2,3.2,0,0,0,1.16-.74,3.47,3.47,0,0,0,.76-1.21,4.93,4.93,0,0,0,.25-1.65Z" transform="translate(67.41 -103.8)"/><text class="cls-126" transform="translate(707.98 610.01)">ND</text><text class="cls-124" transform="translate(728.05 610.01)"><tspan xml:space="preserve"> T</tspan></text><text class="cls-127" transform="translate(739.54 610.01)">E</text><text class="cls-126" transform="translate(747.59 610.01)">XTBASIERTE </text><text class="cls-128" transform="translate(583.3 629.21)">FORSCHUNG</text><text class="cls-126" transform="translate(667.41 629.21)">SD</text><text class="cls-129" transform="translate(684.66 629.21)">AT</text><text class="cls-126" transform="translate(700.62 629.21)">ENINFRASTRUKTU</text><text class="cls-127" transform="translate(820.37 629.21)">R</text></svg>