<svg id="Layer_1" data-name="Layer 1" xmlns="http://www.w3.org/2000/svg" xmlns:xlink="http://www.w3.org/1999/xlink" viewBox="0 0 861.29 643.02"><defs><style>.cls-1,.cls-105,.cls-127,.cls-135,.cls-142,.cls-15,.cls-16,.cls-17,.cls-18,.cls-19,.cls-2,.cls-20,.cls-21,.cls-22,.cls-23,.cls-24,.cls-25,.cls-26,.cls-27,.cls-28,.cls-29,.cls-3,.cls-30,.cls-31,.cls-32,.cls-33,.cls-34,.cls-35,.cls-4,.cls-5,.cls-56,.cls-57,.cls-58,.cls-59,.cls-6,.cls-60,.cls-61,.cls-62,.cls-63,.cls-64,.cls-65,.cls-66,.cls-67,.cls-68,.cls-69,.cls-7,.cls-70,.cls-71,.cls-72,.cls-73,.cls-74,.cls-75,.cls-76,.cls-77,.cls-78,.cls-79,.cls-8,.cls-9{fill:none;}.cls-2,.cls-3,.cls-4,.cls-5,.cls-6,.cls-7,.cls-8,.cls-9{stroke:#6d6e71;stroke-linecap:round;stroke-linejoin:round;}.cls-2,.cls-3{stroke-width:7.2px;}.cls-2{stroke-dasharray:0 14.59;}.cls-4,.cls-5{stroke-width:4.32px;}.cls-4{stroke-dasharray:0 8.58;}.cls-6,.cls-7{stroke-width:4.32px;}.cls-6{stroke-dasharray:0 8.58;}.cls-8,.cls-9{stroke-width:4.32px;}.cls-8{stroke-dasharray:0 8.6;}.cls-10{fill:#743947;}.cls-11,.cls-12,.cls-13{font-size:72.23px;font-family:Calibri;}.cls-11,.cls-12,.cls-120,.cls-121,.cls-122,.cls-123,.cls-124,.cls-125,.cls-126,.cls-13{fill:#fff;}.cls-11{letter-spacing:-0.09em;}.cls-12{letter-spacing:0em;}.cls-14{clip-path:url(#clip-path);}.cls-15,.cls-36{font-size:24px;}.cls-15,.cls-16,.cls-17,.cls-18,.cls-19,.cls-20,.cls-21,.cls-22,.cls-23,.cls-24,.cls-25,.cls-26,.cls-27,.cls-28,.cls-29,.cls-30,.cls-31,.cls-32,.cls-33,.cls-34,.cls-35,.cls-56,.cls-57,.cls-58,.cls-59,.cls-60,.cls-61,.cls-62,.cls-63,.cls-64,.cls-65,.cls-66,.cls-67,.cls-68,.cls-69,.cls-70,.cls-71,.cls-72,.cls-73,.cls-74,.cls-75,.cls-76,.cls-77,.cls-78,.cls-79{stroke:#fff;stroke-miterlimit:5.76;stroke-width:2.88px;}.cls-100,.cls-101,.cls-102,.cls-103,.cls-106,.cls-107,.cls-108,.cls-109,.cls-110,.cls-111,.cls-112,.cls-113,.cls-114,.cls-115,.cls-116,.cls-117,.cls-118,.cls-120,.cls-121,.cls-122,.cls-123,.cls-124,.cls-125,.cls-126,.cls-128,.cls-129,.cls-130,.cls-131,.cls-132,.cls-133,.cls-134,.cls-136,.cls-137,.cls-138,.cls-139,.cls-140,.cls-141,.cls-143,.cls-144,.cls-145,.cls-146,.cls-147,.cls-148,.cls-149,.cls-15,.cls-16,.cls-17,.cls-18,.cls-19,.cls-20,.cls-21,.cls-22,.cls-23,.cls-24,.cls-25,.cls-26,.cls-27,.cls-28,.cls-29,.cls-30,.cls-31,.cls-32,.cls-33,.cls-35,.cls-36,.cls-37,.cls-38,.cls-39,.cls-40,.cls-41,.cls-42,.cls-43,.cls-44,.cls-45,.cls-46,.cls-47,.cls-48,.cls-49,.cls-50,.cls-51,.cls-52,.cls-53,.cls-54,.cls-55,.cls-56,.cls-57,.cls-58,.cls-59,.cls-60,.cls-61,.cls-62,.cls-63,.cls-64,.cls-65,.cls-66,.cls-67,.cls-68,.cls-69,.cls-70,.cls-71,.cls-72,.cls-73,.cls-74,.cls-75,.cls-76,.cls-77,.cls-78,.cls-79,.cls-80,.cls-81,.cls-82,.cls-83,.cls-84,.cls-85,.cls-86,.cls-87,.cls-88,.cls-89,.cls-90,.cls-91,.cls-92,.cls-93,.cls-94,.cls-95,.cls-96,.cls-97,.cls-98,.cls-99{font-family:Calibri-Bold, Calibri;font-weight:700;}.cls-16,.cls-37{font-size:24px;}.cls-124,.cls-17,.cls-38{font-size:24px;}.cls-18,.cls-39{font-size:24px;}.cls-19,.cls-40{font-size:24px;}.cls-20,.cls-41{font-size:24px;}.cls-21,.cls-42{font-size:24px;}.cls-22,.cls-43{font-size:24px;}.cls-23,.cls-44{font-size:24px;}.cls-24,.cls-45{font-size:24px;}.cls-25,.cls-46{font-size:24px;}.cls-26,.cls-47{font-size:24px;}.cls-27,.cls-48{font-size:24px;}.cls-28,.cls-49{font-size:24px;}.cls-29,.cls-50{font-size:24px;}.cls-30,.cls-51{font-size:24px;}.cls-31,.cls-52{font-size:24px;}.cls-122,.cls-32,.cls-53{font-size:24px;}.cls-33,.cls-54{font-size:24px;}.cls-35,.cls-55{font-size:24px;}.cls-56,.cls-80{font-size:23px;}.cls-57,.cls-81{font-size:23px;}.cls-58,.cls-82{font-size:23px;}.cls-59,.cls-83{font-size:23px;}.cls-60,.cls-84{font-size:23px;}.cls-61,.cls-85{font-size:23px;}.cls-62,.cls-86{font-size:23px;}.cls-63,.cls-87{font-size:23px;}.cls-64,.cls-88{font-size:23px;}.cls-65,.cls-89{font-size:23px;}.cls-66,.cls-90{font-size:23px;}.cls-67,.cls-91{font-size:23px;}.cls-68,.cls-92{font-size:23px;}.cls-69,.cls-93{font-size:23px;}.cls-70,.cls-94{font-size:23px;}.cls-71,.cls-95{font-size:23px;}.cls-72,.cls-96{font-size:23px;}.cls-73,.cls-97{font-size:23px;}.cls-74,.cls-98{font-size:23px;}.cls-75,.cls-99{font-size:23px;}.cls-100,.cls-76{font-size:23px;}.cls-101,.cls-77{font-size:23px;}.cls-102,.cls-78{font-size:23px;}.cls-103,.cls-79{font-size:23px;}.cls-104{fill:#c3c5c5;}.cls-105,.cls-127,.cls-135,.cls-142{stroke:#939598;}.cls-106{font-size:20px;}.cls-107{font-size:20px;}.cls-108{font-size:20px;}.cls-109{font-size:20px;}.cls-110{font-size:20px;}.cls-111{font-size:20px;}.cls-112{font-size:20px;}.cls-113{font-size:20px;}.cls-114{font-size:20px;}.cls-115{font-size:20px;}.cls-116{font-size:20px;}.cls-117{font-size:20px;}.cls-118{font-size:20px;}.cls-119{fill:#6d6e71;}.cls-120{font-size:24px;}.cls-121{font-size:24px;}.cls-123{font-size:24px;}.cls-125{font-size:24px;}.cls-126{font-size:24px;}.cls-128{font-size:20px;}.cls-129{font-size:20px;}.cls-130{font-size:20px;}.cls-131{font-size:20px;}.cls-132{font-size:20px;}.cls-133{font-size:20px;}.cls-134{font-size:20px;}.cls-136{font-size:20px;}.cls-137{font-size:20px;}.cls-138{font-size:20px;}.cls-139{font-size:20px;}.cls-140{font-size:20px;}.cls-141{font-size:20px;}.cls-143{font-size:20px;}.cls-144{font-size:20px;}.cls-145{font-size:20px;}.cls-146{font-size:20px;}.cls-147{font-size:20px;}.cls-148{font-size:20px;}.cls-149{font-size:20px;}.cls-150{fill:#4e846f;}.cls-151,.cls-152,.cls-154,.cls-155,.cls-156,.cls-157,.cls-158{font-size:16px;font-family:Calibri-Light, Calibri;font-weight:300;}.cls-151,.cls-152,.cls-153,.cls-154,.cls-155,.cls-156,.cls-157,.cls-158{fill:#dbdcc4;}.cls-151{letter-spacing:0.02em;}.cls-154{letter-spacing:-0.01em;}.cls-155{letter-spacing:0.01em;}.cls-156{letter-spacing:0.01em;}.cls-157{letter-spacing:0.02em;}.cls-158{letter-spacing:-0.06em;}</style><clipPath id="clip-path" transform="translate(67.41 -103.8)"><rect class="cls-1" x="-206" y="12" width="1023.88" height="768"/></clipPath></defs><title>Textplus_Wagenrad_bold_mit_gruen_englisch</title><path class="cls-2" d="M450.25,602.58c105.82-91.36,124.27-249.47,41.17-362.89M477.8,222.57C386.44,116.75,228.33,98.3,114.91,181.39M97.79,195C-8,286.37-26.48,444.48,56.61,557.9M70.24,575C161.59,680.85,319.7,699.3,433.12,616.2" transform="translate(67.41 -103.8)"/><path class="cls-3" d="M487,233.86h0M109.08,185.78h0M61,563.73h0m378,48.08h0" transform="translate(67.41 -103.8)"/><line class="cls-4" x1="437.03" y1="126.15" x2="246.33" y2="466.84"/><path class="cls-5" d="M373.81,222.46h0m-197,351.92h0" transform="translate(67.41 -103.8)"/><line class="cls-6" x1="241.95" y1="130.29" x2="441.65" y2="465.79"/><path class="cls-7" d="M170.15,226.71h0M376.43,573.27h0" transform="translate(67.41 -103.8)"/><line class="cls-8" x1="144.24" y1="287.18" x2="492.5" y2="286.93"/><path class="cls-9" d="M68.23,391h0m361.17-.27h0" transform="translate(67.41 -103.8)"/><path class="cls-10" d="M542.8,507.92a118.54,118.54,0,1,0-119-118,118.54,118.54,0,0,0,119,118Z" transform="translate(67.41 -103.8)"/><text class="cls-11" transform="matrix(1, 0, 0, 1, 532.17, 313.01)">Te</text><text class="cls-12" transform="matrix(1, 0, 0, 1, 595.8, 312.73)">xt</text><text class="cls-13" transform="matrix(1, 0, 0, 1, 651.48, 312.49)">+</text><g class="cls-14"><text class="cls-15" transform="matrix(0.45, 0.89, -0.89, 0.45, 482.65, 345.51)">I</text><text class="cls-16" transform="translate(486.18 352.65) rotate(59.16)">n</text><text class="cls-17" transform="translate(494 365.34) rotate(53.65)">f</text><text class="cls-18" transform="matrix(0.65, 0.76, -0.76, 0.65, 499.42, 372.75)">r</text><text class="cls-19" transform="matrix(0.7, 0.71, -0.71, 0.7, 505.96, 380.47)">a</text><text class="cls-20" transform="matrix(0.77, 0.64, -0.64, 0.77, 515.88, 390.33)">s</text><text class="cls-21" transform="matrix(0.81, 0.59, -0.59, 0.81, 524.54, 397.48)">t</text><text class="cls-22" transform="matrix(0.85, 0.53, -0.53, 0.85, 532.65, 403.27)">r</text><text class="cls-23" transform="matrix(0.9, 0.44, -0.44, 0.9, 541.74, 408.93)">u</text><text class="cls-24" transform="translate(555.29 415.49) rotate(20.57)">c</text><text class="cls-25" transform="translate(566.62 419.68) rotate(16.32)">t</text><text class="cls-26" transform="matrix(0.98, 0.18, -0.18, 0.98, 576.72, 422.7)">u</text><text class="cls-27" transform="translate(590.93 425.25) rotate(6.27)">r</text><text class="cls-28" transform="matrix(1, 0.01, -0.01, 1, 601.66, 426.45)">e</text><text class="cls-17" transform="translate(614.92 426.46) rotate(-2.43)"> </text><text class="cls-29" transform="translate(622.12 426.15) rotate(-6.77)">/</text><text class="cls-30" transform="translate(634.09 424.6) rotate(-11.1)"> </text><text class="cls-20" transform="translate(641.17 423.35) rotate(-15.39)">O</text><text class="cls-31" transform="matrix(0.92, -0.38, 0.38, 0.92, 659.47, 417.89)">p</text><text class="cls-32" transform="matrix(0.87, -0.49, 0.49, 0.87, 673.9, 411.65)">e</text><text class="cls-33" transform="translate(685.7 404.84) rotate(-33.6)">r</text><text class="cls-30" transform="matrix(0.78, -0.63, 0.63, 0.78, 694.55, 398.88)">a</text><path class="cls-34" d="M633.52,482.34l-1.63-1.66a.31.31,0,0,0-.21-.11.55.55,0,0,0-.29.05,2,2,0,0,0-.39.25c-.15.12-.32.29-.53.49a6.76,6.76,0,0,0-.48.51,1.31,1.31,0,0,0-.25.39.36.36,0,0,0-.06.28.29.29,0,0,0,.1.21l1.64,1.66-.89.87a.5.5,0,0,0-.12.19.65.65,0,0,0,.05.25.84.84,0,0,0,.18.33c.1.13.24.27.39.43a2.64,2.64,0,0,0,.72.56.36.36,0,0,0,.44,0l.91-.89,3.76,3.81a7,7,0,0,0,1.31,1.07,3,3,0,0,0,1.26.38,2.58,2.58,0,0,0,1.26-.26,5,5,0,0,0,1.22-.91c.16-.15.3-.32.45-.47a3.22,3.22,0,0,0,.34-.51,2.41,2.41,0,0,0,.26-.46.68.68,0,0,0,.07-.37.88.88,0,0,0-.15-.39,5.75,5.75,0,0,0-.5-.58,3.34,3.34,0,0,0-.41-.38l-.28-.19a.45.45,0,0,0-.19-.05.36.36,0,0,0-.12.08.56.56,0,0,0-.1.14,1,1,0,0,1-.11.24,1.14,1.14,0,0,1-.17.3,2.68,2.68,0,0,1-.27.34,1.06,1.06,0,0,1-1,.36,2.47,2.47,0,0,1-1.08-.72l-3.46-3.5,3.34-3.29,5.93,6a.34.34,0,0,0,.2.11.67.67,0,0,0,.27-.07,1.47,1.47,0,0,0,.4-.25c.15-.12.32-.29.53-.49a5.26,5.26,0,0,0,.48-.51,1.42,1.42,0,0,0,.25-.38.6.6,0,0,0,.07-.28.29.29,0,0,0-.1-.2l-7-7.15a.88.88,0,0,0-.56-.29.9.9,0,0,0-.64.33Zm2.3-8.34a2,2,0,0,0-1.19.7,2.11,2.11,0,0,0-.72,1.19,1.74,1.74,0,0,0,.62,1.14,1.62,1.62,0,0,0,1.06.6,2.94,2.94,0,0,0,1.94-1.9,1.7,1.7,0,0,0-.61-1.13,1.59,1.59,0,0,0-1.1-.6Z" transform="translate(67.41 -103.8)"/><text class="cls-35" transform="translate(711.1 384.4) rotate(-47.3)"> </text><text class="cls-15" transform="matrix(0.62, -0.78, 0.78, 0.62, 717, 378.11)">o</text><text class="cls-22" transform="matrix(0.53, -0.85, 0.85, 0.53, 726.63, 365.83)">n</text><text class="cls-23" transform="matrix(0.44, -0.9, 0.9, 0.44, 734.47, 352.98)">s</text></g><text class="cls-36" transform="matrix(0.45, 0.89, -0.89, 0.45, 482.65, 345.51)">I</text><text class="cls-37" transform="translate(486.18 352.65) rotate(59.16)">n</text><text class="cls-38" transform="translate(494 365.34) rotate(53.65)">f</text><text class="cls-39" transform="matrix(0.65, 0.76, -0.76, 0.65, 499.42, 372.75)">r</text><text class="cls-40" transform="matrix(0.7, 0.71, -0.71, 0.7, 505.96, 380.47)">a</text><text class="cls-41" transform="matrix(0.77, 0.64, -0.64, 0.77, 515.88, 390.33)">s</text><text class="cls-42" transform="matrix(0.81, 0.59, -0.59, 0.81, 524.54, 397.48)">t</text><text class="cls-43" transform="matrix(0.85, 0.53, -0.53, 0.85, 532.65, 403.27)">r</text><text class="cls-44" transform="matrix(0.9, 0.44, -0.44, 0.9, 541.74, 408.93)">u</text><text class="cls-45" transform="translate(555.29 415.49) rotate(20.57)">c</text><text class="cls-46" transform="translate(566.62 419.68) rotate(16.32)">t</text><text class="cls-47" transform="matrix(0.98, 0.18, -0.18, 0.98, 576.72, 422.7)">u</text><text class="cls-48" transform="translate(590.93 425.25) rotate(6.27)">r</text><text class="cls-49" transform="matrix(1, 0.01, -0.01, 1, 601.66, 426.45)">e</text><text class="cls-38" transform="translate(614.92 426.46) rotate(-2.43)"> </text><text class="cls-50" transform="translate(622.12 426.15) rotate(-6.77)">/</text><text class="cls-51" transform="translate(634.09 424.6) rotate(-11.1)"> </text><text class="cls-41" transform="translate(641.17 423.35) rotate(-15.39)">O</text><text class="cls-52" transform="matrix(0.92, -0.38, 0.38, 0.92, 659.47, 417.89)">p</text><text class="cls-53" transform="matrix(0.87, -0.49, 0.49, 0.87, 673.9, 411.65)">e</text><text class="cls-54" transform="translate(685.7 404.84) rotate(-33.6)">r</text><text class="cls-51" transform="matrix(0.78, -0.63, 0.63, 0.78, 694.55, 398.88)">a</text><path d="M633.52,482.34l-1.63-1.66a.31.31,0,0,0-.21-.11.55.55,0,0,0-.29.05,2,2,0,0,0-.39.25c-.15.12-.32.29-.53.49a6.76,6.76,0,0,0-.48.51,1.31,1.31,0,0,0-.25.39.36.36,0,0,0-.06.28.29.29,0,0,0,.1.21l1.64,1.66-.89.87a.5.5,0,0,0-.12.19.65.65,0,0,0,.05.25.84.84,0,0,0,.18.33c.1.13.24.27.39.43a2.64,2.64,0,0,0,.72.56.36.36,0,0,0,.44,0l.91-.89,3.76,3.81a7,7,0,0,0,1.31,1.07,3,3,0,0,0,1.26.38,2.58,2.58,0,0,0,1.26-.26,5,5,0,0,0,1.22-.91c.16-.15.3-.32.45-.47a3.22,3.22,0,0,0,.34-.51,2.41,2.41,0,0,0,.26-.46.68.68,0,0,0,.07-.37.88.88,0,0,0-.15-.39,5.75,5.75,0,0,0-.5-.58,3.34,3.34,0,0,0-.41-.38l-.28-.19a.45.45,0,0,0-.19-.05.36.36,0,0,0-.12.08.56.56,0,0,0-.1.14,1,1,0,0,1-.11.24,1.14,1.14,0,0,1-.17.3,2.68,2.68,0,0,1-.27.34,1.06,1.06,0,0,1-1,.36,2.47,2.47,0,0,1-1.08-.72l-3.46-3.5,3.34-3.29,5.93,6a.34.34,0,0,0,.2.11.67.67,0,0,0,.27-.07,1.47,1.47,0,0,0,.4-.25c.15-.12.32-.29.53-.49a5.26,5.26,0,0,0,.48-.51,1.42,1.42,0,0,0,.25-.38.6.6,0,0,0,.07-.28.29.29,0,0,0-.1-.2l-7-7.15a.88.88,0,0,0-.56-.29.9.9,0,0,0-.64.33Zm2.3-8.34a2,2,0,0,0-1.19.7,2.11,2.11,0,0,0-.72,1.19,1.74,1.74,0,0,0,.62,1.14,1.62,1.62,0,0,0,1.06.6,2.94,2.94,0,0,0,1.94-1.9,1.7,1.7,0,0,0-.61-1.13,1.59,1.59,0,0,0-1.1-.6Z" transform="translate(67.41 -103.8)"/><text class="cls-55" transform="translate(711.1 384.4) rotate(-47.3)"> </text><text class="cls-36" transform="matrix(0.62, -0.78, 0.78, 0.62, 717, 378.11)">o</text><text class="cls-43" transform="matrix(0.53, -0.85, 0.85, 0.53, 726.63, 365.83)">n</text><text class="cls-44" transform="matrix(0.44, -0.9, 0.9, 0.44, 734.47, 352.98)">s</text><g class="cls-14"><text class="cls-56" transform="translate(485.48 285.69) rotate(-88.07)">C</text><text class="cls-57" transform="translate(486.09 273.03) rotate(-82.28)">o</text><text class="cls-58" transform="translate(488.01 260.61) rotate(-77.97)">l</text><text class="cls-59" transform="matrix(0.26, -0.97, 0.97, 0.26, 489.26, 255.13)">l</text><text class="cls-60" transform="matrix(0.33, -0.94, 0.94, 0.33, 490.7, 249.46)">e</text><text class="cls-61" transform="matrix(0.42, -0.91, 0.91, 0.42, 494.66, 238.21)">c</text><path class="cls-34" d="M424.6,323l-1.93-1.13a.28.28,0,0,0-.21,0,.39.39,0,0,0-.25.12,1.25,1.25,0,0,0-.3.33,4.23,4.23,0,0,0-.37.58,5.28,5.28,0,0,0-.32.59,1.85,1.85,0,0,0-.14.42c0,.12,0,.23,0,.28a.34.34,0,0,0,.15.17l1.92,1.12-.6,1a.65.65,0,0,0-.07.21,1.48,1.48,0,0,0,.11.22,1.15,1.15,0,0,0,.25.25,3.84,3.84,0,0,0,.47.3,2.44,2.44,0,0,0,.81.34.36.36,0,0,0,.4-.13l.62-1.06,4.42,2.59a6.69,6.69,0,0,0,1.49.66,2.8,2.8,0,0,0,1.25,0,2.46,2.46,0,0,0,1.1-.56,4.7,4.7,0,0,0,.91-1.14l.29-.55a2.85,2.85,0,0,0,.19-.56,2,2,0,0,0,.13-.48.66.66,0,0,0,0-.37.85.85,0,0,0-.24-.32,4.44,4.44,0,0,0-.61-.41,2.75,2.75,0,0,0-.47-.25l-.31-.1a.28.28,0,0,0-.18,0,.18.18,0,0,0-.09.1.3.3,0,0,0-.06.15.73.73,0,0,1,0,.25,2.14,2.14,0,0,1-.08.32,2.11,2.11,0,0,1-.17.38,1,1,0,0,1-.83.59,2.45,2.45,0,0,1-1.18-.4l-4.07-2.38,2.27-3.87,7,4.09a.28.28,0,0,0,.21,0,.57.57,0,0,0,.24-.13,1.72,1.72,0,0,0,.3-.33,5.64,5.64,0,0,0,.36-.58,5.28,5.28,0,0,0,.32-.59,1.45,1.45,0,0,0,.14-.42.6.6,0,0,0,0-.27.31.31,0,0,0-.14-.16L429,317a.85.85,0,0,0-.59-.13c-.18,0-.35.19-.52.47Zm0-8.28c-.28.07-.6.39-.93.95a2,2,0,0,0-.37,1.27,1.64,1.64,0,0,0,.86.9,1.52,1.52,0,0,0,1.13.29,1.93,1.93,0,0,0,.94-1,1.88,1.88,0,0,0,.37-1.27,1.61,1.61,0,0,0-.83-.89,1.5,1.5,0,0,0-1.17-.28Z" transform="translate(67.41 -103.8)"/><text class="cls-62" transform="matrix(0.53, -0.85, 0.85, 0.53, 502.29, 222.88)"> </text><text class="cls-63" transform="matrix(0.59, -0.81, 0.81, 0.59, 505.94, 216.83)">o</text><text class="cls-64" transform="matrix(0.66, -0.75, 0.75, 0.66, 513.49, 206.58)">n</text><text class="cls-65" transform="translate(522.01 197.18) rotate(-43.2)">s</text><text class="cls-66" transform="translate(528.93 190.74) rotate(-39.1)"> </text><text class="cls-60" transform="translate(532.98 187.39) rotate(-36.35)">-</text><text class="cls-59" transform="translate(538.74 183.13) rotate(-33.6)"> </text><text class="cls-67" transform="translate(543.11 180.18) rotate(-30.84)">L</text><text class="cls-58" transform="translate(551.89 174.95) rotate(-25.28)">e</text><text class="cls-68" transform="translate(562.62 169.86) rotate(-19.65)">x</text><text class="cls-57" transform="translate(572.58 166.4) rotate(-16.82)">i</text><text class="cls-58" transform="translate(578.15 164.67) rotate(-12.53)">c</text><text class="cls-62" transform="translate(587.87 162.51) rotate(-8.22)">a</text><text class="cls-69" transform="translate(599.27 161.04) rotate(-3.88)">l</text><text class="cls-70" transform="translate(605.03 160.64) rotate(-0.97)"> </text><text class="cls-71" transform="matrix(1, 0.06, -0.06, 1, 610.48, 160.34)">R</text><text class="cls-57" transform="translate(623.67 161.07) rotate(9.16)">e</text><text class="cls-72" transform="translate(635.33 162.98) rotate(13.46)">s</text><text class="cls-73" transform="matrix(0.94, 0.33, -0.33, 0.94, 644.68, 165.12)">o</text><text class="cls-61" transform="matrix(0.91, 0.42, -0.42, 0.91, 656.68, 169.23)">u</text><text class="cls-59" transform="matrix(0.87, 0.48, -0.48, 0.87, 667.97, 174.55)">r</text><text class="cls-65" transform="translate(675.29 178.65) rotate(33.1)">c</text><text class="cls-74" transform="matrix(0.78, 0.62, -0.62, 0.78, 683.66, 184.12)">e</text><text class="cls-74" transform="matrix(0.73, 0.68, -0.68, 0.73, 692.8, 191.55)">s</text><text class="cls-65" transform="translate(699.65 198.05) rotate(46.8)"> </text><text class="cls-75" transform="matrix(0.65, 0.76, -0.76, 0.65, 703.25, 201.88)">-</text><text class="cls-76" transform="matrix(0.61, 0.79, -0.79, 0.61, 707.87, 207.34)"> </text><text class="cls-59" transform="translate(711.28 211.59) rotate(56.4)">E</text><text class="cls-60" transform="translate(717.56 220.95) rotate(61.93)">d</text><text class="cls-77" transform="translate(723.35 232.01) rotate(66.12)">i</text><path class="cls-34" d="M670.2,342l2.1-.75a.3.3,0,0,0,.18-.14.4.4,0,0,0,.07-.27,1.67,1.67,0,0,0-.06-.44,6.77,6.77,0,0,0-.21-.66,4.39,4.39,0,0,0-.25-.62,1.7,1.7,0,0,0-.23-.38c-.08-.09-.16-.16-.23-.16a.28.28,0,0,0-.22,0l-2.1.75-.4-1.12a.61.61,0,0,0-.11-.18.7.7,0,0,0-.25-.06.76.76,0,0,0-.35,0,3.81,3.81,0,0,0-.53.16,2.34,2.34,0,0,0-.78.4.38.38,0,0,0-.16.4l.41,1.15-4.83,1.72a6.32,6.32,0,0,0-1.45.72,2.73,2.73,0,0,0-.84.93,2.44,2.44,0,0,0-.28,1.2,4.78,4.78,0,0,0,.29,1.44c.07.19.16.38.23.57a4.59,4.59,0,0,0,.3.51,3.64,3.64,0,0,0,.3.41.75.75,0,0,0,.29.21,1,1,0,0,0,.4,0,6.51,6.51,0,0,0,.71-.21,3.06,3.06,0,0,0,.49-.2l.28-.17a.39.39,0,0,0,.12-.14.32.32,0,0,0,0-.14.41.41,0,0,0-.08-.14.77.77,0,0,1-.16-.19,1.11,1.11,0,0,1-.2-.27,1.91,1.91,0,0,1-.18-.38,1,1,0,0,1,.08-1,2.5,2.5,0,0,1,1.06-.65l4.45-1.59,1.5,4.23-7.62,2.72a.25.25,0,0,0-.17.14.61.61,0,0,0-.06.26,1.67,1.67,0,0,0,.06.44,6.77,6.77,0,0,0,.21.66c.1.26.17.45.25.62a1.49,1.49,0,0,0,.23.38.86.86,0,0,0,.21.17.28.28,0,0,0,.22,0l9.06-3.24a.92.92,0,0,0,.48-.36.9.9,0,0,0,0-.7Zm6.32,5.37a2,2,0,0,0-.13-1.32,2,2,0,0,0-.74-1.11,1.61,1.61,0,0,0-1.24.08,1.6,1.6,0,0,0-1,.68,2,2,0,0,0,.14,1.34,2,2,0,0,0,.74,1.11,1.65,1.65,0,0,0,1.22-.07,1.58,1.58,0,0,0,1-.71Z" transform="translate(67.41 -103.8)"/><text class="cls-78" transform="translate(728.15 243.67) rotate(71.76)"> </text><text class="cls-79" transform="matrix(0.24, 0.97, -0.97, 0.24, 730.38, 250.39)">o</text><text class="cls-62" transform="translate(733.31 262.8) rotate(81.78)">n</text><text class="cls-71" transform="matrix(0.04, 1, -1, 0.04, 734.96, 275.44)">s</text></g><text class="cls-80" transform="translate(485.48 285.69) rotate(-88.07)">C</text><text class="cls-81" transform="translate(486.09 273.03) rotate(-82.28)">o</text><text class="cls-82" transform="translate(488.01 260.61) rotate(-77.97)">l</text><text class="cls-83" transform="matrix(0.26, -0.97, 0.97, 0.26, 489.26, 255.13)">l</text><text class="cls-84" transform="matrix(0.33, -0.94, 0.94, 0.33, 490.7, 249.46)">e</text><text class="cls-85" transform="matrix(0.42, -0.91, 0.91, 0.42, 494.66, 238.21)">c</text><path d="M424.6,323l-1.93-1.13a.28.28,0,0,0-.21,0,.39.39,0,0,0-.25.12,1.25,1.25,0,0,0-.3.33,4.23,4.23,0,0,0-.37.58,5.28,5.28,0,0,0-.32.59,1.85,1.85,0,0,0-.14.42c0,.12,0,.23,0,.28a.34.34,0,0,0,.15.17l1.92,1.12-.6,1a.65.65,0,0,0-.07.21,1.48,1.48,0,0,0,.11.22,1.15,1.15,0,0,0,.25.25,3.84,3.84,0,0,0,.47.3,2.44,2.44,0,0,0,.81.34.36.36,0,0,0,.4-.13l.62-1.06,4.42,2.59a6.69,6.69,0,0,0,1.49.66,2.8,2.8,0,0,0,1.25,0,2.46,2.46,0,0,0,1.1-.56,4.7,4.7,0,0,0,.91-1.14l.29-.55a2.85,2.85,0,0,0,.19-.56,2,2,0,0,0,.13-.48.66.66,0,0,0,0-.37.85.85,0,0,0-.24-.32,4.44,4.44,0,0,0-.61-.41,2.75,2.75,0,0,0-.47-.25l-.31-.1a.28.28,0,0,0-.18,0,.18.18,0,0,0-.09.1.3.3,0,0,0-.06.15.73.73,0,0,1,0,.25,2.14,2.14,0,0,1-.08.32,2.11,2.11,0,0,1-.17.38,1,1,0,0,1-.83.59,2.45,2.45,0,0,1-1.18-.4l-4.07-2.38,2.27-3.87,7,4.09a.28.28,0,0,0,.21,0,.57.57,0,0,0,.24-.13,1.72,1.72,0,0,0,.3-.33,5.64,5.64,0,0,0,.36-.58,5.28,5.28,0,0,0,.32-.59,1.45,1.45,0,0,0,.14-.42.6.6,0,0,0,0-.27.31.31,0,0,0-.14-.16L429,317a.85.85,0,0,0-.59-.13c-.18,0-.35.19-.52.47Zm0-8.28c-.28.07-.6.39-.93.95a2,2,0,0,0-.37,1.27,1.64,1.64,0,0,0,.86.9,1.52,1.52,0,0,0,1.13.29,1.93,1.93,0,0,0,.94-1,1.88,1.88,0,0,0,.37-1.27,1.61,1.61,0,0,0-.83-.89,1.5,1.5,0,0,0-1.17-.28Z" transform="translate(67.41 -103.8)"/><text class="cls-86" transform="matrix(0.53, -0.85, 0.85, 0.53, 502.29, 222.88)"> </text><text class="cls-87" transform="matrix(0.59, -0.81, 0.81, 0.59, 505.94, 216.83)">o</text><text class="cls-88" transform="matrix(0.66, -0.75, 0.75, 0.66, 513.49, 206.58)">n</text><text class="cls-89" transform="translate(522.01 197.18) rotate(-43.2)">s</text><text class="cls-90" transform="translate(528.93 190.74) rotate(-39.1)"> </text><text class="cls-84" transform="translate(532.98 187.39) rotate(-36.35)">-</text><text class="cls-83" transform="translate(538.74 183.13) rotate(-33.6)"> </text><text class="cls-91" transform="translate(543.11 180.18) rotate(-30.84)">L</text><text class="cls-82" transform="translate(551.89 174.95) rotate(-25.28)">e</text><text class="cls-92" transform="translate(562.62 169.86) rotate(-19.65)">x</text><text class="cls-81" transform="translate(572.58 166.4) rotate(-16.82)">i</text><text class="cls-82" transform="translate(578.15 164.67) rotate(-12.53)">c</text><text class="cls-86" transform="translate(587.87 162.51) rotate(-8.22)">a</text><text class="cls-93" transform="translate(599.27 161.04) rotate(-3.88)">l</text><text class="cls-94" transform="translate(605.03 160.64) rotate(-0.97)"> </text><text class="cls-95" transform="matrix(1, 0.06, -0.06, 1, 610.48, 160.34)">R</text><text class="cls-81" transform="translate(623.67 161.07) rotate(9.16)">e</text><text class="cls-96" transform="translate(635.33 162.98) rotate(13.46)">s</text><text class="cls-97" transform="matrix(0.94, 0.33, -0.33, 0.94, 644.68, 165.12)">o</text><text class="cls-85" transform="matrix(0.91, 0.42, -0.42, 0.91, 656.68, 169.23)">u</text><text class="cls-83" transform="matrix(0.87, 0.48, -0.48, 0.87, 667.97, 174.55)">r</text><text class="cls-89" transform="translate(675.29 178.65) rotate(33.1)">c</text><text class="cls-98" transform="matrix(0.78, 0.62, -0.62, 0.78, 683.66, 184.12)">e</text><text class="cls-98" transform="matrix(0.73, 0.68, -0.68, 0.73, 692.8, 191.55)">s</text><text class="cls-89" transform="translate(699.65 198.05) rotate(46.8)"> </text><text class="cls-99" transform="matrix(0.65, 0.76, -0.76, 0.65, 703.25, 201.88)">-</text><text class="cls-100" transform="matrix(0.61, 0.79, -0.79, 0.61, 707.87, 207.34)"> </text><text class="cls-83" transform="translate(711.28 211.59) rotate(56.4)">E</text><text class="cls-84" transform="translate(717.56 220.95) rotate(61.93)">d</text><text class="cls-101" transform="translate(723.35 232.01) rotate(66.12)">i</text><path d="M670.2,342l2.1-.75a.3.3,0,0,0,.18-.14.4.4,0,0,0,.07-.27,1.67,1.67,0,0,0-.06-.44,6.77,6.77,0,0,0-.21-.66,4.39,4.39,0,0,0-.25-.62,1.7,1.7,0,0,0-.23-.38c-.08-.09-.16-.16-.23-.16a.28.28,0,0,0-.22,0l-2.1.75-.4-1.12a.61.61,0,0,0-.11-.18.7.7,0,0,0-.25-.06.76.76,0,0,0-.35,0,3.81,3.81,0,0,0-.53.16,2.34,2.34,0,0,0-.78.4.38.38,0,0,0-.16.4l.41,1.15-4.83,1.72a6.32,6.32,0,0,0-1.45.72,2.73,2.73,0,0,0-.84.93,2.44,2.44,0,0,0-.28,1.2,4.78,4.78,0,0,0,.29,1.44c.07.19.16.38.23.57a4.59,4.59,0,0,0,.3.51,3.64,3.64,0,0,0,.3.41.75.75,0,0,0,.29.21,1,1,0,0,0,.4,0,6.51,6.51,0,0,0,.71-.21,3.06,3.06,0,0,0,.49-.2l.28-.17a.39.39,0,0,0,.12-.14.32.32,0,0,0,0-.14.41.41,0,0,0-.08-.14.77.77,0,0,1-.16-.19,1.11,1.11,0,0,1-.2-.27,1.91,1.91,0,0,1-.18-.38,1,1,0,0,1,.08-1,2.5,2.5,0,0,1,1.06-.65l4.45-1.59,1.5,4.23-7.62,2.72a.25.25,0,0,0-.17.14.61.61,0,0,0-.06.26,1.67,1.67,0,0,0,.06.44,6.77,6.77,0,0,0,.21.66c.1.26.17.45.25.62a1.49,1.49,0,0,0,.23.38.86.86,0,0,0,.21.17.28.28,0,0,0,.22,0l9.06-3.24a.92.92,0,0,0,.48-.36.9.9,0,0,0,0-.7Zm6.32,5.37a2,2,0,0,0-.13-1.32,2,2,0,0,0-.74-1.11,1.61,1.61,0,0,0-1.24.08,1.6,1.6,0,0,0-1,.68,2,2,0,0,0,.14,1.34,2,2,0,0,0,.74,1.11,1.65,1.65,0,0,0,1.22-.07,1.58,1.58,0,0,0,1-.71Z" transform="translate(67.41 -103.8)"/><text class="cls-102" transform="translate(728.15 243.67) rotate(71.76)"> </text><text class="cls-103" transform="matrix(0.24, 0.97, -0.97, 0.24, 730.38, 250.39)">o</text><text class="cls-86" transform="translate(733.31 262.8) rotate(81.78)">n</text><text class="cls-95" transform="matrix(0.04, 1, -1, 0.04, 734.96, 275.44)">s</text><path class="cls-104" d="M157.93,235.15a67.89,67.89,0,1,0-88.38-37.51,67.89,67.89,0,0,0,88.38,37.51Z" transform="translate(67.41 -103.8)"/><path class="cls-105" d="M157.93,235.15a67.89,67.89,0,1,0-88.38-37.51,67.89,67.89,0,0,0,88.38,37.51Z" transform="translate(67.41 -103.8)"/><text class="cls-106" transform="translate(151.26 58.61) rotate(-69.04)">N</text><text class="cls-107" transform="translate(155.62 46.95) rotate(-58.12)">F</text><text class="cls-108" transform="matrix(0.7, -0.72, 0.72, 0.7, 159.22, 40)">D</text><text class="cls-109" transform="translate(167.72 31.24) rotate(-35.75)">I</text><text class="cls-110" transform="translate(172.88 27.48) rotate(-29.99)"> </text><text class="cls-111" transform="translate(176.18 24.91) rotate(-19.82)">C</text><text class="cls-112" transform="matrix(0.99, -0.17, 0.17, 0.99, 185.71, 21.17)">o</text><text class="cls-113" transform="matrix(1, 0.05, -0.05, 1, 194.95, 19.11)">n</text><text class="cls-114" transform="translate(205.36 19.47) rotate(12.75)">s</text><text class="cls-115" transform="translate(212.62 20.55) rotate(23.68)">o</text><text class="cls-110" transform="translate(222.3 24.57) rotate(33.25)">r</text><text class="cls-116" transform="translate(228.89 28.67) rotate(41.54)">t</text><text class="cls-112" transform="matrix(0.66, 0.75, -0.75, 0.66, 234.52, 33.62)">i</text><text class="cls-117" transform="translate(237.86 36.6) rotate(58.57)">u</text><text class="cls-118" transform="matrix(0.34, 0.94, -0.94, 0.34, 243.39, 44.64)">m</text><path class="cls-119" d="M206.13,398.5a67.89,67.89,0,0,0,135.78,0" transform="translate(67.41 -103.8)"/><text class="cls-120" transform="translate(280.46 302.11) rotate(73.43)">D</text><text class="cls-121" transform="matrix(0.51, 0.86, -0.86, 0.51, 286.17, 320.22)">I</text><text class="cls-122" transform="translate(291.14 329.54) rotate(47.05)">R</text><text class="cls-121" transform="matrix(0.86, 0.51, -0.51, 0.86, 302.71, 342.15)">E</text><text class="cls-120" transform="translate(315.7 350.23) rotate(16.57)">C</text><text class="cls-123" transform="translate(331.98 355.13) rotate(0.73)">T</text><text class="cls-124" transform="matrix(0.97, -0.26, 0.26, 0.97, 347.36, 355.83)">O</text><text class="cls-125" transform="translate(366.42 350.73) rotate(-33.35)">R</text><text class="cls-121" transform="matrix(0.65, -0.76, 0.76, 0.65, 381.36, 341.24)">A</text><text class="cls-122" transform="matrix(0.42, -0.91, 0.91, 0.42, 392.5, 328.45)">T</text><text class="cls-126" transform="translate(399.21 313.93) rotate(-77.72)">E</text><path class="cls-119" d="M341.91,399.09a67.89,67.89,0,0,0-135.78,0" transform="translate(67.41 -103.8)"/><text class="cls-124" transform="translate(317.01 256.33) rotate(-17.99)">N</text><text class="cls-120" transform="translate(331.25 251.07) rotate(-2.18)">F</text><text class="cls-126" transform="translate(341.39 249.39) rotate(13.71)">D</text><text class="cls-122" transform="matrix(0.91, 0.42, -0.42, 0.91, 357.07, 253.39)">I</text><path class="cls-104" d="M392.71,238.61a67.89,67.89,0,1,0-80.53-52.29,67.9,67.9,0,0,0,80.53,52.29Z" transform="translate(67.41 -103.8)"/><path class="cls-127" d="M392.71,238.61a67.89,67.89,0,1,0-80.53-52.29,67.9,67.9,0,0,0,80.53,52.29Z" transform="translate(67.41 -103.8)"/><text class="cls-110" transform="matrix(0.51, -0.86, 0.86, 0.51, 399.8, 50.32)">N</text><text class="cls-112" transform="matrix(0.67, -0.74, 0.74, 0.67, 406.12, 39.6)">F</text><text class="cls-116" transform="translate(410.85 33.36) rotate(-35.66)">D</text><text class="cls-128" transform="translate(420.74 26.21) rotate(-25.75)">I</text><text class="cls-114" transform="translate(426.48 23.4) rotate(-19.99)"> </text><text class="cls-112" transform="translate(430.19 21.46) rotate(-9.82)">C</text><text class="cls-129" transform="matrix(1, 0.01, -0.01, 1, 440.21, 19.4)">o</text><text class="cls-130" transform="matrix(0.97, 0.23, -0.23, 0.97, 449.67, 19)">n</text><text class="cls-131" transform="translate(459.87 21.15) rotate(22.75)">s</text><text class="cls-132" transform="translate(466.84 23.5) rotate(33.68)">o</text><text class="cls-133" transform="translate(475.67 29.13) rotate(43.25)">r</text><text class="cls-112" transform="matrix(0.62, 0.78, -0.78, 0.62, 481.43, 34.3)">t</text><text class="cls-134" transform="matrix(0.52, 0.85, -0.85, 0.52, 486.14, 40.17)">i</text><text class="cls-109" transform="translate(488.89 43.67) rotate(68.57)">u</text><text class="cls-112" transform="translate(492.94 52.55) rotate(80.18)">m</text><path class="cls-104" d="M420.57,690.49a67.89,67.89,0,1,0-84.38-45.82,67.89,67.89,0,0,0,84.38,45.82Z" transform="translate(67.41 -103.8)"/><path class="cls-135" d="M420.57,690.49a67.89,67.89,0,1,0-84.38-45.82,67.89,67.89,0,0,0,84.38,45.82Z" transform="translate(67.41 -103.8)"/><text class="cls-133" transform="translate(421.21 507.18) rotate(-63.54)">N</text><text class="cls-108" transform="translate(426.67 496.01) rotate(-52.62)">F</text><text class="cls-117" transform="matrix(0.76, -0.64, 0.64, 0.76, 430.91, 489.43)">D</text><text class="cls-136" transform="matrix(0.86, -0.5, 0.5, 0.86, 440.21, 481.52)">I</text><text class="cls-129" transform="translate(445.7 478.27) rotate(-24.49)"> </text><text class="cls-137" transform="matrix(0.97, -0.25, 0.25, 0.97, 449.24, 476.02)">C</text><text class="cls-138" transform="translate(459.08 473.19) rotate(-4.19)">o</text><text class="cls-109" transform="matrix(0.99, 0.15, -0.15, 0.99, 468.48, 472.06)">n</text><text class="cls-106" transform="matrix(0.95, 0.31, -0.31, 0.95, 478.82, 473.4)">s</text><text class="cls-134" transform="translate(485.93 475.18) rotate(29.18)">o</text><text class="cls-139" transform="matrix(0.78, 0.63, -0.63, 0.78, 495.19, 480.12)">r</text><text class="cls-140" transform="translate(501.33 484.81) rotate(47.04)">t</text><text class="cls-141" transform="translate(506.49 490.3) rotate(54.06)">i</text><text class="cls-117" transform="translate(509.51 493.56) rotate(64.07)">u</text><text class="cls-137" transform="matrix(0.25, 0.97, -0.97, 0.25, 514.26, 502.13)">m</text><path class="cls-104" d="M151.84,691.8a67.89,67.89,0,1,0-80.52-52.29,67.88,67.88,0,0,0,80.52,52.29Z" transform="translate(67.41 -103.8)"/><path class="cls-127" d="M151.84,691.8a67.89,67.89,0,1,0-80.52-52.29,67.88,67.88,0,0,0,80.52,52.29Z" transform="translate(67.41 -103.8)"/><text class="cls-110" transform="matrix(0.51, -0.86, 0.86, 0.51, 158.92, 503.51)">N</text><text class="cls-112" transform="matrix(0.67, -0.74, 0.74, 0.67, 165.23, 492.78)">F</text><text class="cls-116" transform="translate(169.98 486.56) rotate(-35.66)">D</text><text class="cls-128" transform="translate(179.87 479.41) rotate(-25.75)">I</text><text class="cls-114" transform="translate(185.61 476.6) rotate(-19.99)"> </text><text class="cls-112" transform="translate(189.32 474.65) rotate(-9.82)">C</text><text class="cls-129" transform="matrix(1, 0.01, -0.01, 1, 199.34, 472.59)">o</text><text class="cls-130" transform="matrix(0.97, 0.23, -0.23, 0.97, 208.81, 472.2)">n</text><text class="cls-131" transform="translate(219.01 474.35) rotate(22.75)">s</text><text class="cls-132" transform="translate(225.96 476.69) rotate(33.68)">o</text><text class="cls-133" transform="translate(234.8 482.33) rotate(43.25)">r</text><text class="cls-112" transform="matrix(0.62, 0.78, -0.78, 0.62, 240.56, 487.5)">t</text><text class="cls-134" transform="matrix(0.52, 0.85, -0.85, 0.52, 245.27, 493.38)">i</text><text class="cls-109" transform="translate(248.03 496.87) rotate(68.57)">u</text><text class="cls-112" transform="translate(252.07 505.76) rotate(80.18)">m</text><path class="cls-104" d="M22.54,462.8A67.89,67.89,0,1,0-20.54,334,67.89,67.89,0,0,0,22.54,462.8Z" transform="translate(67.41 -103.8)"/><path class="cls-142" d="M22.54,462.8A67.89,67.89,0,1,0-20.54,334,67.89,67.89,0,0,0,22.54,462.8Z" transform="translate(67.41 -103.8)"/><text class="cls-143" transform="translate(20.46 281.88) rotate(-65.54)">N</text><text class="cls-112" transform="translate(25.51 270.51) rotate(-54.62)">F</text><text class="cls-140" transform="translate(29.53 263.79) rotate(-42.16)">D</text><text class="cls-132" transform="matrix(0.85, -0.53, 0.53, 0.85, 38.53, 255.56)">I</text><text class="cls-144" transform="matrix(0.9, -0.45, 0.45, 0.9, 43.92, 252.12)"> </text><text class="cls-145" transform="translate(47.38 249.77) rotate(-16.32)">C</text><text class="cls-146" transform="matrix(0.99, -0.11, 0.11, 0.99, 57.12, 246.61)">o</text><text class="cls-137" transform="matrix(0.99, 0.11, -0.11, 0.99, 66.47, 245.12)">n</text><text class="cls-147" transform="matrix(0.96, 0.28, -0.28, 0.96, 76.83, 246.1)">s</text><text class="cls-145" transform="matrix(0.89, 0.46, -0.46, 0.89, 84.03, 247.64)">o</text><text class="cls-132" transform="translate(93.43 252.24) rotate(36.75)">r</text><text class="cls-145" transform="matrix(0.71, 0.71, -0.71, 0.71, 99.75, 256.72)">t</text><text class="cls-148" transform="matrix(0.61, 0.79, -0.79, 0.61, 105.08, 262.02)">i</text><text class="cls-106" transform="matrix(0.47, 0.88, -0.88, 0.47, 108.23, 265.19)">u</text><text class="cls-149" transform="matrix(0.28, 0.96, -0.96, 0.28, 113.26, 273.56)">m</text><polygon class="cls-150" points="550.89 584.2 550.89 643.02 861.29 643.02 861.29 584.2 550.89 584.2 550.89 584.2"/><text class="cls-151" transform="translate(581.74 610.01)">TEXT</text><text class="cls-152" transform="translate(613.64 610.01)">+</text><path class="cls-153" d="M564.52,708.54s0-.09,0-.13-.05,0-.08-.06,0,0-.08,0h-3.26a.27.27,0,0,0-.18.08.86.86,0,0,0,0,.63.23.23,0,0,0,.18.08h3.26a.18.18,0,0,0,.16-.08.5.5,0,0,0,.07-.32.5.5,0,0,0,0-.18Z" transform="translate(67.41 -103.8)"/><text class="cls-154" transform="translate(632.14 610.01)"><tspan xml:space="preserve"> L</tspan></text><text class="cls-151" transform="translate(642.6 610.01)">ANGU</text><text class="cls-155" transform="translate(682.62 610.01)">AG</text><path class="cls-153" d="M641.52,713.2a.32.32,0,0,0,0-.13.15.15,0,0,0-.08-.08.29.29,0,0,0-.11,0h-4.21v-4h3.57a.18.18,0,0,0,.11,0,.15.15,0,0,0,.08-.08.28.28,0,0,0,0-.11.5.5,0,0,0,0-.18.53.53,0,0,0,0-.19.32.32,0,0,0,0-.13c0-.05,0-.06-.08-.08a.29.29,0,0,0-.11,0h-3.57v-3.57h4.15l.09,0s.07,0,.08-.08a.27.27,0,0,0,.05-.13.47.47,0,0,0,0-.17.68.68,0,0,0,0-.2.5.5,0,0,0-.05-.13.15.15,0,0,0-.08-.08l-.09,0h-4.68a.42.42,0,0,0-.28.11.45.45,0,0,0-.15.39v9.12a.45.45,0,0,0,.15.39.42.42,0,0,0,.28.11h4.74a.29.29,0,0,0,.11,0s.05,0,.08-.08a.5.5,0,0,0,0-.13.5.5,0,0,0,0-.18.53.53,0,0,0,0-.19Zm5.14-4.66s0-.09,0-.13a.24.24,0,0,0-.08-.06.11.11,0,0,0-.08,0h-3.27a.25.25,0,0,0-.17.08.74.74,0,0,0,0,.63.21.21,0,0,0,.17.08h3.27a.19.19,0,0,0,.16-.08.51.51,0,0,0,.06-.32,1,1,0,0,0,0-.18Z" transform="translate(67.41 -103.8)"/><text class="cls-154" transform="translate(714.28 610.01)"><tspan xml:space="preserve"> A</tspan></text><text class="cls-156" transform="translate(727.05 610.01)">ND</text><text class="cls-154" transform="translate(747.12 610.01)"><tspan xml:space="preserve"> T</tspan></text><text class="cls-156" transform="translate(758.6 610.01)">EX</text><path class="cls-153" d="M715.09,703.93a1.12,1.12,0,0,1-.05-.13l-.08-.08-.1,0h-7l-.09,0a.15.15,0,0,0-.08.08.5.5,0,0,0,0,.13.68.68,0,0,0,0,.2.47.47,0,0,0,0,.17.27.27,0,0,0,0,.13c0,.05,0,.06.08.08s.06,0,.09,0h3v9.11a.28.28,0,0,0,0,.09l.08.07.16,0a.79.79,0,0,0,.23,0,.72.72,0,0,0,.22,0l.16,0a.29.29,0,0,0,.08-.07.15.15,0,0,0,0-.09v-9.11h3a.19.19,0,0,0,.1,0s.06,0,.08-.08a1.23,1.23,0,0,0,.05-.13.91.91,0,0,0,0-.17,1.34,1.34,0,0,0,0-.2Zm4.4,4.61a1.12,1.12,0,0,1,0-.13.24.24,0,0,0-.08-.06.11.11,0,0,0-.08,0H716a.23.23,0,0,0-.17.08.74.74,0,0,0,0,.63.2.2,0,0,0,.17.08h3.27a.19.19,0,0,0,.16-.08.51.51,0,0,0,.06-.32,1,1,0,0,0,0-.18Zm8.2,1.49a2.59,2.59,0,0,0-.41-.77,3,3,0,0,0-.64-.54,2.19,2.19,0,0,0-.77-.29,2,2,0,0,0,.59-.38,1.68,1.68,0,0,0,.4-.52,2.53,2.53,0,0,0,.26-.6,3.06,3.06,0,0,0-.1-1.73,2,2,0,0,0-.53-.82,2.57,2.57,0,0,0-.91-.51,4.86,4.86,0,0,0-1.42-.18H722a.44.44,0,0,0-.29.11.47.47,0,0,0-.14.39v9.12a.47.47,0,0,0,.14.39.44.44,0,0,0,.29.11h2.63a5.47,5.47,0,0,0,1-.08,4.53,4.53,0,0,0,.76-.26,2.8,2.8,0,0,0,.64-.41,2.55,2.55,0,0,0,.48-.56,2.35,2.35,0,0,0,.29-.69,2.78,2.78,0,0,0,.11-.83,2.47,2.47,0,0,0-.16-1Zm-1.61-3a1.43,1.43,0,0,1-.34.6,1.26,1.26,0,0,1-.57.4,2.1,2.1,0,0,1-.93.16h-1.73v-3.63h1.58a3.59,3.59,0,0,1,1,.13,1.4,1.4,0,0,1,.61.35,1.36,1.36,0,0,1,.35.56,2,2,0,0,1,.11.72,2.15,2.15,0,0,1-.11.71Zm.61,4.88a1.83,1.83,0,0,1-.47.59,1.86,1.86,0,0,1-.65.35,2.71,2.71,0,0,1-.85.13h-2.21v-4h1.82a4.36,4.36,0,0,1,1.12.13,2,2,0,0,1,.77.4,1.69,1.69,0,0,1,.47.64,2.16,2.16,0,0,1,.16.88,2,2,0,0,1-.16.83Zm7-8a.2.2,0,0,0-.06-.11.26.26,0,0,0-.11-.07,1.2,1.2,0,0,0-.2,0,.82.82,0,0,0-.24,0,.9.9,0,0,0-.24,0,.86.86,0,0,0-.17,0,.27.27,0,0,0-.13.07.2.2,0,0,0-.06.11L729,713.49a.49.49,0,0,0,0,.19.14.14,0,0,0,0,.11.76.76,0,0,0,.16.05,1.1,1.1,0,0,0,.27,0,1,1,0,0,0,.26,0l.14-.05.1-.06a.34.34,0,0,0,0-.1l.93-2.67h4.45l1,2.69a.1.1,0,0,0,0,.09s0,0,.08.07a.42.42,0,0,0,.14,0,1,1,0,0,0,.26,0,1.06,1.06,0,0,0,.27,0,.22.22,0,0,0,.16-.05.14.14,0,0,0,.05-.11.49.49,0,0,0,0-.19Zm1.31,6.29h-3.87l1.91-5.44Z" transform="translate(67.41 -103.8)"/><text class="cls-157" transform="translate(805.23 610.01)">SED </text><text class="cls-156" transform="translate(592.45 629.21)">RESEARCH</text><text class="cls-154" transform="translate(660.87 629.21)"><tspan xml:space="preserve"> D</tspan></text><text class="cls-158" transform="translate(674.18 629.21)">AT</text><text class="cls-154" transform="translate(688.87 629.21)">A </text><text class="cls-156" transform="translate(701.34 629.21)">INFRASTRUCTUR</text><text class="cls-152" transform="translate(811.91 629.21)">E</text></svg>