<svg id="Layer_1" data-name="Layer 1" xmlns="http://www.w3.org/2000/svg" xmlns:xlink="http://www.w3.org/1999/xlink" viewBox="0 0 1480.88 833.83"><defs><style>.cls-1,.cls-42,.cls-43,.cls-44,.cls-45,.cls-46,.cls-47,.cls-48,.cls-51,.cls-52,.cls-53,.cls-54,.cls-55,.cls-56{fill:none;}.cls-16,.cls-17,.cls-18,.cls-19,.cls-2,.cls-20,.cls-21,.cls-26,.cls-27,.cls-29,.cls-3,.cls-30,.cls-4,.cls-5,.cls-6{font-size:38.61px;}.cls-16,.cls-17,.cls-18,.cls-19,.cls-2,.cls-20,.cls-21,.cls-26,.cls-27,.cls-29,.cls-3,.cls-30,.cls-4,.cls-5,.cls-58,.cls-59,.cls-6,.cls-60{font-family:Calibri;}.cls-2{letter-spacing:0.02em;}.cls-3{letter-spacing:0.03em;}.cls-4{letter-spacing:-0.03em;}.cls-5{letter-spacing:0.03em;}.cls-10,.cls-11,.cls-12,.cls-13,.cls-14,.cls-15,.cls-22,.cls-23,.cls-24,.cls-25,.cls-31,.cls-32,.cls-33,.cls-34,.cls-35,.cls-37,.cls-38,.cls-39,.cls-7,.cls-8,.cls-9{font-size:25px;font-family:Calibri-Bold, Calibri;font-weight:700;}.cls-7{letter-spacing:0.04em;}.cls-8{letter-spacing:0.02em;}.cls-9{letter-spacing:0.04em;}.cls-10{letter-spacing:0.02em;}.cls-11{letter-spacing:0.03em;}.cls-12{letter-spacing:0.03em;}.cls-13{letter-spacing:0.01em;}.cls-15{letter-spacing:0.03em;}.cls-16{letter-spacing:0.02em;}.cls-17{letter-spacing:0.05em;}.cls-18{letter-spacing:0.02em;}.cls-19{letter-spacing:0.02em;}.cls-20{letter-spacing:0.03em;}.cls-21{letter-spacing:0.01em;}.cls-22{letter-spacing:0.03em;}.cls-23{letter-spacing:0.07em;}.cls-24{letter-spacing:0.07em;}.cls-25{letter-spacing:0.02em;}.cls-26{letter-spacing:0.03em;}.cls-27{letter-spacing:0.06em;}.cls-28{fill:#79a777;}.cls-29{letter-spacing:0.03em;}.cls-30{letter-spacing:0.03em;}.cls-31{letter-spacing:0.06em;}.cls-32{letter-spacing:0.03em;}.cls-33{letter-spacing:0.02em;}.cls-34{letter-spacing:0.03em;}.cls-35{letter-spacing:0.04em;}.cls-36{fill:#e89329;}.cls-37{letter-spacing:0.03em;}.cls-38{letter-spacing:0.02em;}.cls-39{letter-spacing:0.04em;}.cls-40{fill:#759ea6;}.cls-41{clip-path:url(#clip-path);}.cls-42,.cls-43,.cls-44,.cls-45,.cls-46,.cls-47,.cls-48{stroke:#939598;}.cls-42,.cls-43,.cls-44,.cls-45,.cls-46,.cls-47,.cls-48,.cls-51,.cls-52,.cls-53,.cls-54,.cls-55,.cls-56{stroke-linecap:round;stroke-linejoin:round;}.cls-42,.cls-43{stroke-width:7.8px;}.cls-42{stroke-dasharray:0 15.81;}.cls-44,.cls-45,.cls-48{stroke-width:4.68px;}.cls-44,.cls-46{stroke-dasharray:0 9.3;}.cls-46,.cls-47{stroke-width:4.68px;}.cls-48{stroke-dasharray:0 9.32;}.cls-49{fill:#939598;}.cls-50{fill:#6d6e71;}.cls-51,.cls-52,.cls-53,.cls-54,.cls-55,.cls-56{stroke:#000;stroke-width:7px;}.cls-51{stroke-dasharray:0 13.95;}.cls-53{stroke-dasharray:0 14.16;}.cls-54{stroke-dasharray:0 14.09;}.cls-55{stroke-dasharray:0 13.97;}.cls-56{stroke-dasharray:0 13.88;}.cls-57{fill:#743947;}.cls-58,.cls-59,.cls-60{font-size:78.25px;fill:#fff;}.cls-58{letter-spacing:-0.09em;}.cls-59{letter-spacing:0em;}</style><clipPath id="clip-path" transform="translate(507.79 114)"><rect class="cls-1" x="-377" y="12" width="1366" height="768"/></clipPath></defs><title>Wagenrad_Applicants-ohneNamen</title><text class="cls-2" transform="translate(788.75 185.47)">ADMINIS</text><text class="cls-3" transform="translate(936.97 185.47)">TR</text><text class="cls-4" transform="translate(980.07 185.47)">AT</text><text class="cls-5" transform="translate(1021.24 185.47)">IO</text><text class="cls-6" transform="translate(1058.56 185.47)">N</text><text class="cls-7" transform="translate(788.49 212.48)">LEIBNI</text><text class="cls-8" transform="translate(860.15 212.48)">Z </text><text class="cls-9" transform="translate(878.73 212.48)">INSTITUT</text><text class="cls-10" transform="translate(981.24 212.48)">E </text><text class="cls-11" transform="translate(1000.07 212.48)">FOR TH</text><text class="cls-10" transform="translate(1080.72 212.48)">E </text><text class="cls-12" transform="translate(1099.54 212.48)">GERMAN</text><text class="cls-8" transform="translate(1199.83 212.48)"><tspan xml:space="preserve"> L</tspan></text><text class="cls-12" transform="translate(1218.17 212.48)">ANG</text><text class="cls-13" transform="translate(1268.2 212.48)">UA</text><text class="cls-7" transform="translate(1300.38 212.48)">GE</text><text class="cls-14" transform="translate(1329.86 212.48)">, </text><text class="cls-15" transform="translate(1342.44 212.48)">MANNHEIM</text><text class="cls-14" transform="translate(1475.23 212.48)"> </text><text class="cls-16" transform="translate(744.54 796.17)">INFR</text><text class="cls-17" transform="translate(822.14 796.17)">AS</text><text class="cls-3" transform="translate(865.68 796.17)">TR</text><text class="cls-18" transform="translate(907.15 796.17)">UC</text><text class="cls-3" transform="translate(955.71 796.17)">TU</text><text class="cls-19" transform="translate(1001.37 796.17)">RE </text><text class="cls-6" transform="translate(1051.37 796.17)">/ </text><text class="cls-20" transform="translate(1075.76 796.17)">OP</text><text class="cls-21" transform="translate(1122.86 796.17)">ER</text><text class="cls-4" transform="translate(1165.08 796.17)">AT</text><text class="cls-5" transform="translate(1206.25 796.17)">IONS</text><text class="cls-22" transform="translate(744.27 826.17)">UNIVERSI</text><text class="cls-23" transform="translate(850.3 826.17)">TY</text><text class="cls-14" transform="translate(877.83 826.17)"> </text><text class="cls-7" transform="translate(883.97 826.17)">OF</text><text class="cls-14" transform="translate(913.72 826.17)"> </text><text class="cls-22" transform="translate(919.86 826.17)">GÖ</text><text class="cls-24" transform="translate(954.21 826.17)">TT</text><text class="cls-7" transform="translate(981.63 826.17)">INGE</text><text class="cls-25" transform="translate(1036.24 826.17)">N </text><text class="cls-26" transform="translate(832.12 346.17)">COLLE</text><text class="cls-27" transform="translate(934.44 346.17)">CT</text><text class="cls-5" transform="translate(977.47 346.17)">IONS</text><text class="cls-12" transform="translate(831.85 376.17)">GERMAN</text><text class="cls-14" transform="translate(932.13 376.17)"> </text><text class="cls-22" transform="translate(938.27 376.17)">NA</text><text class="cls-7" transform="translate(970.11 376.17)">TIONAL</text><text class="cls-14" transform="translate(1053.12 376.17)"> </text><text class="cls-7" transform="translate(1059.26 376.17)">LIBR</text><text class="cls-12" transform="translate(1108.59 376.17)">AR</text><text class="cls-14" transform="translate(1139.14 376.17)">Y</text><path class="cls-28" d="M588.47,235.39a16.09,16.09,0,1,0-16.08-16.09,16.09,16.09,0,0,0,16.08,16.09Z" transform="translate(507.79 114)"/><text class="cls-29" transform="translate(905.37 485.47)">LEXIC</text><text class="cls-30" transform="translate(997.57 485.47)">AL RESOUR</text><text class="cls-29" transform="translate(1181.85 485.47)">CE</text><text class="cls-6" transform="translate(1223.71 485.47)">S</text><path d="M410.21,393.28a3.66,3.66,0,0,0-.65-1.12,4.24,4.24,0,0,0-1-.8,5,5,0,0,0-1.25-.43,3.73,3.73,0,0,0,.95-.5,3.5,3.5,0,0,0,.67-.72,3.15,3.15,0,0,0,.43-.93,3.84,3.84,0,0,0,.15-1.07,4,4,0,0,0-.38-1.8,2.88,2.88,0,0,0-1.05-1.25,4.56,4.56,0,0,0-1.67-.73,10.36,10.36,0,0,0-2.48-.25H400a.94.94,0,0,0-.68.25,1,1,0,0,0-.27.78v13.74a1,1,0,0,0,.27.78.94.94,0,0,0,.68.25h4.19a11.49,11.49,0,0,0,1.73-.13,8.3,8.3,0,0,0,1.45-.35,6.33,6.33,0,0,0,1.25-.62,4.16,4.16,0,0,0,1-.9,3.7,3.7,0,0,0,.65-1.23,4.76,4.76,0,0,0,.23-1.52,4,4,0,0,0-.25-1.45Zm-4-4.4a1.57,1.57,0,0,1-.42.68,1.62,1.62,0,0,1-.68.45,2.82,2.82,0,0,1-1.1.17h-1.8v-4.1h1.63a4.5,4.5,0,0,1,1.17.13,2.07,2.07,0,0,1,.75.4,1.57,1.57,0,0,1,.43.62,2.26,2.26,0,0,1,.15.85,2.63,2.63,0,0,1-.13.8Zm.75,6.9a2.1,2.1,0,0,1-.52.7,2.06,2.06,0,0,1-.78.4,3.57,3.57,0,0,1-1.12.15h-2.33v-4.5h1.9a5.53,5.53,0,0,1,1.43.15,3.43,3.43,0,0,1,.9.45,1.88,1.88,0,0,1,.55.75,2.45,2.45,0,0,1,.17,1,2.14,2.14,0,0,1-.2.92Zm16.25,1.85a1.16,1.16,0,0,0-.1-.4.3.3,0,0,0-.15-.2.28.28,0,0,0-.2-.08h-5.67v-4.44h4.75a.59.59,0,0,0,.2-.05.75.75,0,0,0,.15-.2,1.6,1.6,0,0,0,.1-.38,5.26,5.26,0,0,0,0-.6,4.8,4.8,0,0,0,0-.57,1.6,1.6,0,0,0-.1-.38.36.36,0,0,0-.15-.2.29.29,0,0,0-.2-.07h-4.75v-3.85h5.62a.28.28,0,0,0,.2-.08.23.23,0,0,0,.15-.2,1.16,1.16,0,0,0,.1-.4,3.21,3.21,0,0,0,0-.57,3.4,3.4,0,0,0,0-.6,1.16,1.16,0,0,0-.1-.4c0-.1-.07-.18-.15-.23a.53.53,0,0,0-.2-.05h-7.87a.91.91,0,0,0-.67.25,1,1,0,0,0-.28.78v13.74a1,1,0,0,0,.28.78.91.91,0,0,0,.67.25h7.92a.28.28,0,0,0,.2-.08.3.3,0,0,0,.15-.2,1.16,1.16,0,0,0,.1-.4,3.4,3.4,0,0,0,0-.6,3.21,3.21,0,0,0,0-.57Zm15.35,1.1c0-.15-.12-.38-.25-.68l-1.35-3.12a8.5,8.5,0,0,0-.47-1,3.83,3.83,0,0,0-.53-.8,3.27,3.27,0,0,0-.57-.6,4.12,4.12,0,0,0-.68-.42,5.39,5.39,0,0,0,1.33-.6,3.71,3.71,0,0,0,.95-.9,3.41,3.41,0,0,0,.6-1.15,5.58,5.58,0,0,0,.2-1.45,4.6,4.6,0,0,0-.28-1.65,3.75,3.75,0,0,0-.82-1.28,4.33,4.33,0,0,0-1.28-.85,7.48,7.48,0,0,0-1.72-.47c-.23,0-.48,0-.73-.05a10.18,10.18,0,0,0-1,0h-4.1a.94.94,0,0,0-.68.25,1,1,0,0,0-.27.78V399a.34.34,0,0,0,.07.22.49.49,0,0,0,.25.18l.5.1.78,0,.77,0c.2,0,.38-.08.48-.1a.56.56,0,0,0,.27-.18.29.29,0,0,0,.08-.22v-6h1a2.42,2.42,0,0,1,.9.15,2.27,2.27,0,0,1,.7.47,5.36,5.36,0,0,1,.55.78c.17.32.32.67.5,1.07l1.42,3.52a.65.65,0,0,0,.13.25.38.38,0,0,0,.25.18,2.1,2.1,0,0,0,.47.1c.2,0,.48,0,.83,0s.72,0,.95,0,.42,0,.55-.08.2-.1.22-.17a.46.46,0,0,0,.05-.23,2,2,0,0,0-.05-.32Zm-4.27-9.47a1.88,1.88,0,0,1-.5.72,2.29,2.29,0,0,1-.88.45,3.16,3.16,0,0,1-1.17.18h-1.65v-4.48h1.45a6.73,6.73,0,0,1,.85,0,5.53,5.53,0,0,1,.55.1,1.93,1.93,0,0,1,1.17.77,2.61,2.61,0,0,1,.18,2.23Zm16.12,8.27a1.6,1.6,0,0,0-.1-.43.32.32,0,0,0-.15-.2.29.29,0,0,0-.22-.07h-5v-12.7a.29.29,0,0,0-.08-.22.56.56,0,0,0-.27-.18c-.13,0-.28-.07-.48-.1s-.47,0-.77,0-.58,0-.8,0-.35.08-.48.1a.56.56,0,0,0-.27.18.29.29,0,0,0-.08.22v14.32a1,1,0,0,0,.28.78.91.91,0,0,0,.67.25h7.23a.29.29,0,0,0,.22-.08.83.83,0,0,0,.15-.22,1.6,1.6,0,0,0,.1-.43,3.77,3.77,0,0,0,0-.62,3.4,3.4,0,0,0,0-.6Zm5.95-13.4a.29.29,0,0,0-.07-.22.55.55,0,0,0-.28-.18c-.12,0-.27-.07-.47-.1s-.48,0-.78,0-.57,0-.77,0l-.5.1a.55.55,0,0,0-.28.18.29.29,0,0,0-.07.22V399a.29.29,0,0,0,.07.22.55.55,0,0,0,.28.18c.12,0,.27.07.47.1l.8,0,.78,0c.2,0,.35-.08.47-.1a.55.55,0,0,0,.28-.18.29.29,0,0,0,.07-.22Zm17.28,0a1,1,0,0,0-.05-.23.91.91,0,0,0-.23-.17,1.36,1.36,0,0,0-.42-.1,4.94,4.94,0,0,0-.7,0,5,5,0,0,0-.73,0,1.37,1.37,0,0,0-.45.1.77.77,0,0,0-.25.17.41.41,0,0,0-.07.23v7.42c0,.55,0,1.15,0,1.78s0,1.2,0,1.77h0a10.51,10.51,0,0,0-.45-1c-.15-.33-.3-.65-.48-1s-.32-.68-.5-1-.35-.67-.52-1l-3.08-5.78a6.35,6.35,0,0,0-.45-.8,2.07,2.07,0,0,0-.47-.5,1.49,1.49,0,0,0-.55-.27,3.66,3.66,0,0,0-.8-.08h-1.73a1.27,1.27,0,0,0-.82.28,1.1,1.1,0,0,0-.33.87V399a.87.87,0,0,0,.05.22.49.49,0,0,0,.23.15,1.75,1.75,0,0,0,.45.13l.7,0,.72,0a1.53,1.53,0,0,0,.45-.13.4.4,0,0,0,.23-.15.38.38,0,0,0,.07-.22v-8.27c0-.63,0-1.23,0-1.8s0-1.18-.08-1.75h0c.17.47.4,1,.62,1.47s.48,1,.7,1.43l3.93,7.39a9.57,9.57,0,0,0,.55,1,2.34,2.34,0,0,0,.5.6,1.93,1.93,0,0,0,.57.33,3.36,3.36,0,0,0,.75.07h1.38a1.41,1.41,0,0,0,.45-.07.94.94,0,0,0,.4-.2,1.57,1.57,0,0,0,.25-.38,1.12,1.12,0,0,0,.1-.5Zm9.45,6.82a1.51,1.51,0,0,0-.1-.37.92.92,0,0,0-.18-.23,1,1,0,0,0-.25-.05h-5.1a.49.49,0,0,0-.45.28,3.09,3.09,0,0,0-.12,1,2.94,2.94,0,0,0,.12,1,.48.48,0,0,0,.45.3h5.1a.49.49,0,0,0,.43-.28,3.18,3.18,0,0,0,.12-1,5.62,5.62,0,0,0,0-.6Zm14.42,2.3a3.47,3.47,0,0,0-.65-1.12,4,4,0,0,0-1-.8,4.85,4.85,0,0,0-1.25-.43,3.57,3.57,0,0,0,.95-.5,3.85,3.85,0,0,0,.68-.72,3.13,3.13,0,0,0,.42-.93,3.84,3.84,0,0,0,.15-1.07,4,4,0,0,0-.37-1.8,3,3,0,0,0-1.05-1.25,4.61,4.61,0,0,0-1.68-.73,10.27,10.27,0,0,0-2.47-.25h-3.95a.94.94,0,0,0-.68.25,1,1,0,0,0-.27.78v13.74a1,1,0,0,0,.27.78.94.94,0,0,0,.68.25h4.2a11.36,11.36,0,0,0,1.72-.13,8.3,8.3,0,0,0,1.45-.35,6.07,6.07,0,0,0,1.25-.62,4.2,4.2,0,0,0,1-.9,3.89,3.89,0,0,0,.65-1.23,4.77,4.77,0,0,0,.22-1.52,3.78,3.78,0,0,0-.25-1.45Zm-4-4.4a2,2,0,0,1-1.1,1.13,2.86,2.86,0,0,1-1.1.17h-1.8v-4.1h1.62a4.58,4.58,0,0,1,1.18.13,2.07,2.07,0,0,1,.75.4,1.66,1.66,0,0,1,.42.62,2.26,2.26,0,0,1,.15.85,3,3,0,0,1-.12.8Zm.75,6.9a2.13,2.13,0,0,1-.53.7,2,2,0,0,1-.77.4,3.64,3.64,0,0,1-1.13.15h-2.32v-4.5h1.9a5.5,5.5,0,0,1,1.42.15,3.14,3.14,0,0,1,.9.45,1.79,1.79,0,0,1,.55.75,2.46,2.46,0,0,1,0,1.9Z" transform="translate(507.79 114)"/><text class="cls-31" transform="translate(1007.08 513.48)">RA</text><text class="cls-32" transform="translate(1038.55 513.48)">NDENBURG</text><text class="cls-33" transform="translate(1165.76 513.48)"><tspan xml:space="preserve"> AC</tspan></text><text class="cls-34" transform="translate(1202.03 513.48)">ADEM</text><text class="cls-10" transform="translate(1270.29 513.48)">Y </text><text class="cls-7" transform="translate(1289.9 513.48)">OF</text><text class="cls-14" transform="translate(1319.65 513.48)"> </text><text class="cls-35" transform="translate(1325.79 513.48)">SCIENCES</text><text class="cls-14" transform="translate(1430.29 513.48)"> </text><text class="cls-12" transform="translate(905.11 538.48)">AN</text><text class="cls-8" transform="translate(938.43 538.48)">D </text><text class="cls-7" transform="translate(960.82 538.48)">HUMANITIES</text><text class="cls-14" transform="translate(1104.43 538.48)"> </text><path class="cls-36" d="M773.27,374.7a16.09,16.09,0,1,0-16.09-16.09,16.1,16.1,0,0,0,16.09,16.09Z" transform="translate(507.79 114)"/><text class="cls-21" transform="translate(842.83 635.47)">ED</text><text class="cls-29" transform="translate(886.84 635.47)">ITIONS</text><text class="cls-14" transform="translate(842.57 665.48)">N</text><text class="cls-7" transform="translate(859.94 665.48)">ORT</text><text class="cls-10" transform="translate(905.98 665.48)">H </text><text class="cls-22" transform="translate(928.38 665.48)">RHIN</text><path d="M488,549.63a1.16,1.16,0,0,0-.1-.4.3.3,0,0,0-.15-.2.28.28,0,0,0-.2-.08h-5.67v-4.44h4.75a.59.59,0,0,0,.2,0,.75.75,0,0,0,.15-.2,1.6,1.6,0,0,0,.1-.38,5.26,5.26,0,0,0,0-.6,4.8,4.8,0,0,0,0-.57,1.6,1.6,0,0,0-.1-.38.36.36,0,0,0-.15-.2.29.29,0,0,0-.2-.07h-4.75v-3.85h5.62a.28.28,0,0,0,.2-.08.23.23,0,0,0,.15-.2,1.16,1.16,0,0,0,.1-.4,3.21,3.21,0,0,0,0-.57,3.4,3.4,0,0,0,0-.6,1.16,1.16,0,0,0-.1-.4c-.05-.1-.07-.18-.15-.23a.53.53,0,0,0-.2-.05h-7.87a.94.94,0,0,0-.68.25,1,1,0,0,0-.27.78v13.74a1,1,0,0,0,.27.78.94.94,0,0,0,.68.25h7.92a.28.28,0,0,0,.2-.08.3.3,0,0,0,.15-.2,1.16,1.16,0,0,0,.1-.4,3.4,3.4,0,0,0,0-.6,3.21,3.21,0,0,0,0-.57Zm8.28-6.65a1.51,1.51,0,0,0-.1-.37.92.92,0,0,0-.18-.23,1,1,0,0,0-.25,0h-5.1a.49.49,0,0,0-.45.28,3.09,3.09,0,0,0-.12,1,2.94,2.94,0,0,0,.12,1,.48.48,0,0,0,.45.3h5.1a.49.49,0,0,0,.43-.28,3.18,3.18,0,0,0,.12-1,5.62,5.62,0,0,0,0-.6Z" transform="translate(507.79 114)"/><text class="cls-37" transform="translate(1004.95 665.48)">WESTPHALIAN </text><text class="cls-38" transform="translate(1172.14 665.48)">AC</text><text class="cls-34" transform="translate(1202.26 665.48)">ADEM</text><text class="cls-10" transform="translate(1270.52 665.48)">Y </text><text class="cls-7" transform="translate(1290.14 665.48)">OF</text><text class="cls-14" transform="translate(1319.89 665.48)"> </text><text class="cls-35" transform="translate(1326.03 665.48)">SCIENCES</text><text class="cls-14" transform="translate(1430.33 665.48)">, </text><text class="cls-7" transform="translate(842.57 690.48)">HUMANITIES</text><text class="cls-14" transform="translate(986.17 690.48)"> </text><text class="cls-12" transform="translate(992.32 690.48)">AN</text><text class="cls-8" transform="translate(1025.64 690.48)">D </text><text class="cls-9" transform="translate(1048.03 690.48)">TH</text><text class="cls-10" transform="translate(1077.97 690.48)">E </text><text class="cls-39" transform="translate(1096.79 690.48)">ARTS</text><text class="cls-14" transform="translate(1153.54 690.48)"> </text><path class="cls-40" d="M529.92,524.7a16.09,16.09,0,1,0-16.09-16.09,16.09,16.09,0,0,0,16.09,16.09Z" transform="translate(507.79 114)"/><g class="cls-41"><path class="cls-42" d="M-147.11,538.94c151.23-8.07,271.9-131.27,275.94-283.53m-.31-23.71C120.45,80.47-2.75-40.2-155-44.25m-23.71.32c-151.23,8.07-271.9,131.26-276,283.53m.32,23.71c8.07,151.23,131.26,271.89,283.53,275.94" transform="translate(507.79 114)"/><path class="cls-43" d="M128.94,247.5h0M-162.92-44.35h0M-454.77,247.5h0m291.85,291.86h0" transform="translate(507.79 114)"/></g><line class="cls-44" x1="538.76" y1="280.28" x2="149.45" y2="445.63"/><path class="cls-45" d="M39.52,162.64h0m-402.14,170.8h0" transform="translate(507.79 114)"/><line class="cls-46" x1="368.92" y1="154.43" x2="317.46" y2="574.26"/><path class="cls-47" d="M-137.75,31.21h0M-190.9,464.88h0" transform="translate(507.79 114)"/><line class="cls-48" x1="181.16" y1="224.02" x2="479.64" y2="454.79"/><path class="cls-45" d="M-334,104.32h0M-24.47,343.64h0" transform="translate(507.79 114)"/><g class="cls-41"><path class="cls-49" d="M-207.4,609a73.54,73.54,0,0,0,73.55-73.54,73.55,73.55,0,0,0-73.55-73.55,73.54,73.54,0,0,0-73.54,73.55A73.53,73.53,0,0,0-207.4,609Z" transform="translate(507.79 114)"/><path class="cls-49" d="M-434.25,417.18a73.54,73.54,0,0,0,73.55-73.54,73.55,73.55,0,0,0-73.55-73.55,73.54,73.54,0,0,0-73.54,73.55,73.53,73.53,0,0,0,73.54,73.54Z" transform="translate(507.79 114)"/><path class="cls-49" d="M-385.12,132.76a73.54,73.54,0,0,0,73.54-73.55,73.53,73.53,0,0,0-73.54-73.54,73.54,73.54,0,0,0-73.55,73.54,73.55,73.55,0,0,0,73.55,73.55Z" transform="translate(507.79 114)"/><path class="cls-49" d="M-133.85,33.09A73.54,73.54,0,0,0-60.3-40.45,73.55,73.55,0,0,0-133.85-114,73.55,73.55,0,0,0-207.4-40.45a73.54,73.54,0,0,0,73.55,73.54Z" transform="translate(507.79 114)"/></g><path class="cls-49" d="M99.2,193.93a73.55,73.55,0,1,0-73.55-73.55A73.55,73.55,0,0,0,99.2,193.93Z" transform="translate(507.79 114)"/><path class="cls-50" d="M-236.46,247.18a73.54,73.54,0,0,0,73.54,73.55,73.55,73.55,0,0,0,73.55-73.55" transform="translate(507.79 114)"/><path class="cls-50" d="M-89.37,247.82a73.55,73.55,0,0,0-73.55-73.55,73.54,73.54,0,0,0-73.54,73.55" transform="translate(507.79 114)"/><line class="cls-51" x1="773.55" y1="192.6" x2="589.47" y2="513.31"/><path class="cls-52" d="M272.71,66.5h0M78.21,405.36h0" transform="translate(507.79 114)"/><line class="cls-53" x1="813.28" y1="348.4" x2="587.51" y2="530.91"/><path class="cls-52" d="M316.5,225.5h0M74.21,421.36h0" transform="translate(507.79 114)"/><line class="cls-54" x1="881.7" y1="477.32" x2="584.9" y2="537.95"/><path class="cls-52" d="M387.71,360.5h0M70.2,425.36h0" transform="translate(507.79 114)"/><line class="cls-55" x1="821.96" y1="614.33" x2="588.67" y2="541.44"/><path class="cls-52" d="M327.5,504.5h0M74.21,425.36h0" transform="translate(507.79 114)"/><line class="cls-56" x1="729.63" y1="749.07" x2="591.93" y2="549.08"/><path class="cls-52" d="M229.71,646.5h0M80.21,429.36h0" transform="translate(507.79 114)"/><path class="cls-57" d="M73.12,545.78A128.42,128.42,0,1,0-55.29,417.36,128.42,128.42,0,0,0,73.12,545.78Z" transform="translate(507.79 114)"/><text class="cls-58" transform="translate(496.81 560.7)">Te</text><text class="cls-59" transform="translate(565.73 560.7)">xt</text><text class="cls-60" transform="translate(626.06 560.7)">+</text></svg>