<svg id="Layer_1" data-name="Layer 1" xmlns="http://www.w3.org/2000/svg" xmlns:xlink="http://www.w3.org/1999/xlink" viewBox="0 0 1579.92 1032.2"><defs><style>.cls-1,.cls-10,.cls-11,.cls-12,.cls-25,.cls-26,.cls-27,.cls-28,.cls-29,.cls-3,.cls-30,.cls-31,.cls-4,.cls-5,.cls-6,.cls-7,.cls-8,.cls-9{fill:none;}.cls-2{clip-path:url(#clip-path);}.cls-10,.cls-11,.cls-12,.cls-3,.cls-4,.cls-5,.cls-6,.cls-7,.cls-8,.cls-9{stroke:#58595b;stroke-width:8px;}.cls-10,.cls-11,.cls-12,.cls-25,.cls-26,.cls-27,.cls-28,.cls-29,.cls-3,.cls-30,.cls-31,.cls-4,.cls-5,.cls-6,.cls-7,.cls-8,.cls-9{stroke-linecap:round;stroke-linejoin:round;}.cls-3{stroke-dasharray:0 15.95;}.cls-5{stroke-dasharray:0 16.06;}.cls-6{stroke-dasharray:0 15.97;}.cls-7{stroke-dasharray:0 15.99;}.cls-8{stroke-dasharray:0 15.99;}.cls-9{stroke-dasharray:0 15.99;}.cls-10{stroke-dasharray:0 15.95;}.cls-11{stroke-dasharray:0 15.98;}.cls-12{stroke-dasharray:0 16.04;}.cls-13{fill:#bcbec0;}.cls-14,.cls-17,.cls-20,.cls-21{font-size:32.17px;}.cls-14,.cls-15,.cls-16,.cls-17,.cls-18,.cls-19,.cls-20,.cls-21,.cls-22,.cls-23,.cls-24,.cls-35,.cls-36,.cls-37{font-family:Calibri;}.cls-15{font-size:20px;}.cls-16{font-size:21px;}.cls-17{letter-spacing:-0.01em;}.cls-18,.cls-19{font-size:23px;}.cls-19{letter-spacing:-0.01em;}.cls-20{letter-spacing:-0.02em;}.cls-21{letter-spacing:0em;}.cls-22{font-size:26px;}.cls-23{font-size:27px;}.cls-24{font-size:30px;}.cls-25,.cls-26,.cls-27,.cls-28,.cls-29,.cls-30,.cls-31{stroke:#939598;}.cls-25,.cls-26{stroke-width:7.8px;}.cls-25{stroke-dasharray:0 15.81;}.cls-27,.cls-28,.cls-31{stroke-width:4.68px;}.cls-27,.cls-29{stroke-dasharray:0 9.3;}.cls-29,.cls-30{stroke-width:4.68px;}.cls-31{stroke-dasharray:0 9.32;}.cls-32{fill:#939598;}.cls-33{fill:#6d6e71;}.cls-34{fill:#743947;}.cls-35,.cls-36,.cls-37{font-size:78.25px;fill:#fff;}.cls-35{letter-spacing:-0.09em;}.cls-36{letter-spacing:0em;}</style><clipPath id="clip-path" transform="translate(551.62 116.05)"><rect class="cls-1" x="-377" y="12" width="1366" height="768"/></clipPath></defs><title>Wagenrad_Networking</title><g class="cls-2"><line class="cls-3" x1="468" y1="535.46" x2="1156.33" y2="58.35"/><path class="cls-4" d="M-96.74,428.5h0m708-490.74h0" transform="translate(551.62 116.05)"/><line class="cls-5" x1="467.85" y1="537.7" x2="1491.62" y2="54.83"/><path class="cls-4" d="M-98.3,428.5h0M947.26-64.64h0" transform="translate(551.62 116.05)"/><line class="cls-6" x1="467.1" y1="541.66" x2="1533.21" y2="232.43"/><path class="cls-4" d="M-99.86,430.06h0M989.26,114.16h0" transform="translate(551.62 116.05)"/><line class="cls-7" x1="453.94" y1="544.08" x2="1540.15" y2="405.22"/><path class="cls-4" d="M-113.54,430.06h0m1110-141.9h0" transform="translate(551.62 116.05)"/><line class="cls-8" x1="466.2" y1="544.55" x2="1561.69" y2="544.6"/><path class="cls-4" d="M-101.42,428.5h0m1119.48.06h0" transform="translate(551.62 116.05)"/><line class="cls-9" x1="469.14" y1="545.36" x2="1568.02" y2="710.22"/><path class="cls-4" d="M-98.3,426.94h0M1024.3,595.36h0" transform="translate(551.62 116.05)"/><line class="cls-10" x1="468.56" y1="546.16" x2="1542.86" y2="879.44"/><path class="cls-4" d="M-98.3,425.38h0M998.86,765.76h0" transform="translate(551.62 116.05)"/><line class="cls-11" x1="467.49" y1="550.38" x2="1352.6" y2="1012.51"/><path class="cls-4" d="M-98.3,426.94h0M808.06,900.16h0" transform="translate(551.62 116.05)"/><line class="cls-12" x1="460.49" y1="552.25" x2="975.76" y2="1022.79"/><path class="cls-4" d="M-103,425.38h0m533,486.78h0" transform="translate(551.62 116.05)"/></g><path class="cls-13" d="M230.88,236.74c41.48,0,75.12-18.66,75.12-41.68s-33.64-41.69-75.12-41.69S155.75,172,155.75,195.06s33.64,41.68,75.13,41.68Z" transform="translate(551.62 116.05)"/><text class="cls-14" transform="translate(753.83 323.17)">DDB</text><path class="cls-13" d="M425.12,107.37c41.49,0,75.13-18.66,75.13-41.68S466.61,24,425.12,24,350,42.66,350,65.69s33.64,41.68,75.12,41.68Z" transform="translate(551.62 116.05)"/><text class="cls-15" transform="translate(947.89 177.23)">Leibniz </text><text class="cls-15" transform="translate(929.92 201.23)">Associa</text><path d="M442,75.91V73.83a.33.33,0,0,0,0-.15s-.06-.06-.12-.1l-.26-.06a2.3,2.3,0,0,0-.4,0,2.06,2.06,0,0,0-.38,0l-.26.06c-.06,0-.1.06-.12.1a.33.33,0,0,0,0,.15v2.08h-1.22a.29.29,0,0,0-.14,0c-.06,0-.08.06-.12.12a1.24,1.24,0,0,0-.06.2,1.52,1.52,0,0,0,0,.32,1.08,1.08,0,0,0,.08.5.28.28,0,0,0,.24.16h1.24v5.12a5,5,0,0,0,.14,1.32,2.18,2.18,0,0,0,.46.94,1.89,1.89,0,0,0,.8.54,3.41,3.41,0,0,0,1.18.18l.45,0,.44-.08a1.7,1.7,0,0,0,.34-.12.62.62,0,0,0,.24-.14.45.45,0,0,0,.12-.26,2.19,2.19,0,0,0,0-.44,1.32,1.32,0,0,0,0-.3c0-.06,0-.14,0-.18s0-.08-.08-.08a.15.15,0,0,0-.08,0,.32.32,0,0,0-.18.06,1.67,1.67,0,0,1-.24.08c-.08,0-.2.06-.3.1a2.46,2.46,0,0,1-.4,0,1.05,1.05,0,0,1-1-.46,2.82,2.82,0,0,1-.26-1.38V77.25h4.55V85a.21.21,0,0,0,0,.12.2.2,0,0,0,.14.1l.24.06a2.3,2.3,0,0,0,.4,0,2.18,2.18,0,0,0,.38,0l.24-.06a.2.2,0,0,0,.14-.1.21.21,0,0,0,0-.12V76.43a.62.62,0,0,0-.1-.38.49.49,0,0,0-.4-.14Zm6.13-3.49a1,1,0,0,0-1.78.78,1.07,1.07,0,0,0,.22.77,1.62,1.62,0,0,0,1.56,0,1.13,1.13,0,0,0,.22-.79,1,1,0,0,0-.22-.76Z" transform="translate(551.62 116.05)"/><text class="cls-15" transform="translate(995.69 201.23)"> </text><text class="cls-15" transform="translate(1001.26 201.23)">on</text><path class="cls-13" d="M669.13,110.16c41.49,0,75.12-18.67,75.12-41.69s-33.63-41.69-75.12-41.69S594,45.44,594,68.47s33.63,41.69,75.13,41.69Z" transform="translate(551.62 116.05)"/><text class="cls-16" transform="translate(1185.68 179.78)">German </text><text class="cls-16" transform="translate(1173.79 204.99)">Academie</text><text class="cls-16" transform="translate(1258.23 204.99)">s</text><path class="cls-13" d="M444.7,214.78c41.49,0,75.13-18.66,75.13-41.69S486.19,131.4,444.7,131.4s-75.12,18.67-75.12,41.69,33.63,41.69,75.12,41.69Z" transform="translate(551.62 116.05)"/><text class="cls-14" transform="translate(974.86 301.2)">FID</text><path class="cls-13" d="M877.88,181.93c41.49,0,75.12-18.66,75.12-41.69s-33.63-41.68-75.12-41.68-75.13,18.66-75.13,41.68,33.63,41.69,75.13,41.69Z" transform="translate(551.62 116.05)"/><text class="cls-14" transform="translate(1398.94 268.36)">GND</text><path class="cls-13" d="M669.13,256.47c41.49,0,75.12-18.67,75.12-41.69s-33.63-41.69-75.12-41.69S594,191.76,594,214.78s33.63,41.69,75.13,41.69Z" transform="translate(551.62 116.05)"/><text class="cls-14" transform="translate(1178.73 342.89)">nes</text><text class="cls-17" transform="translate(1223.86 342.89)">to</text><text class="cls-14" transform="translate(1251.29 342.89)">r</text><path class="cls-13" d="M347.66,339.84c41.49,0,75.12-18.66,75.12-41.69s-33.63-41.68-75.12-41.68-75.13,18.66-75.13,41.68,33.64,41.69,75.13,41.69Z" transform="translate(551.62 116.05)"/><text class="cls-16" transform="translate(860.49 409.47)">Scien</text><path d="M357.18,283.69V281.5a.29.29,0,0,0,0-.14.37.37,0,0,0-.13-.11l-.27-.06a2.56,2.56,0,0,0-.42,0,2.24,2.24,0,0,0-.4,0l-.27.06a.3.3,0,0,0-.13.11.29.29,0,0,0,0,.14v2.19H354.2a.3.3,0,0,0-.15,0c-.06,0-.08.06-.13.13a1.13,1.13,0,0,0-.06.21,1.62,1.62,0,0,0,0,.33,1.23,1.23,0,0,0,.08.53.31.31,0,0,0,.26.16h1.3v5.38a5.56,5.56,0,0,0,.14,1.39,2.38,2.38,0,0,0,.49,1,2,2,0,0,0,.84.57,3.67,3.67,0,0,0,1.24.19l.46,0c.17,0,.31-.07.46-.09a1.9,1.9,0,0,0,.36-.12.84.84,0,0,0,.25-.15.48.48,0,0,0,.12-.27,1.72,1.72,0,0,0,.05-.46,1.47,1.47,0,0,0,0-.32c0-.06,0-.15-.05-.19s0-.08-.08-.08l-.08,0a.33.33,0,0,0-.19.06,2.5,2.5,0,0,1-.25.08l-.32.11a2.72,2.72,0,0,1-.42,0,1.11,1.11,0,0,1-1-.48,3,3,0,0,1-.27-1.45v-5.13h4.76v8.09a.22.22,0,0,0,.05.12.18.18,0,0,0,.14.11l.26.06a2.49,2.49,0,0,0,.42,0,2.3,2.3,0,0,0,.39,0l.26-.06a.18.18,0,0,0,.14-.11.22.22,0,0,0,0-.12v-8.95a.68.68,0,0,0-.11-.4.52.52,0,0,0-.42-.14ZM363.6,280a1.19,1.19,0,0,0-.82-.21,1.18,1.18,0,0,0-.81.21,1.14,1.14,0,0,0-.24.82,1.09,1.09,0,0,0,.24.8,1.13,1.13,0,0,0,.81.21.85.85,0,0,0,1.05-1,1.09,1.09,0,0,0-.23-.8Z" transform="translate(551.62 116.05)"/><text class="cls-16" transform="translate(910.98 409.47)"> </text><text class="cls-16" transform="translate(916.83 409.47)">ﬁ</text><text class="cls-16" transform="translate(922.39 409.47)"> </text><text class="cls-16" transform="translate(927.94 409.47)">c </text><text class="cls-16" transform="translate(846.04 434.68)">Associa</text><path d="M361.31,308.89V306.7a.29.29,0,0,0-.05-.14.33.33,0,0,0-.12-.11l-.28-.06a2.49,2.49,0,0,0-.42,0,2.18,2.18,0,0,0-.39,0l-.28.06a.33.33,0,0,0-.12.11.29.29,0,0,0,0,.14v2.19h-1.28a.29.29,0,0,0-.14,0c-.07,0-.09.06-.13.13a1.13,1.13,0,0,0-.06.21,1.62,1.62,0,0,0,0,.33,1.23,1.23,0,0,0,.08.53.3.3,0,0,0,.25.16h1.3v5.38a5.52,5.52,0,0,0,.15,1.39,2.37,2.37,0,0,0,.48,1,2.09,2.09,0,0,0,.84.57,3.76,3.76,0,0,0,1.24.19l.47,0c.16,0,.31-.07.46-.09a1.8,1.8,0,0,0,.35-.12.93.93,0,0,0,.26-.15.48.48,0,0,0,.12-.27,2.43,2.43,0,0,0,0-.46,1.47,1.47,0,0,0,0-.32c0-.06,0-.15,0-.19s0-.08-.08-.08a.18.18,0,0,0-.09,0,.38.38,0,0,0-.19.06,1.48,1.48,0,0,1-.25.08c-.08,0-.21.07-.31.11a2.85,2.85,0,0,1-.42,0,1.1,1.1,0,0,1-1-.48,3,3,0,0,1-.27-1.45v-5.13h4.76v8.09a.21.21,0,0,0,0,.12.2.2,0,0,0,.15.11l.25.06a2.56,2.56,0,0,0,.42,0,2.36,2.36,0,0,0,.4,0l.25-.06a.18.18,0,0,0,.15-.11.21.21,0,0,0,0-.12v-8.95a.69.69,0,0,0-.1-.4.53.53,0,0,0-.42-.14Zm6.42-3.66a1.06,1.06,0,0,0-1.87.82,1.14,1.14,0,0,0,.23.8A1.06,1.06,0,0,0,368,306a1.09,1.09,0,0,0-.23-.8Z" transform="translate(551.62 116.05)"/><text class="cls-16" transform="translate(915.11 434.68)"> </text><text class="cls-16" transform="translate(920.95 434.68)">on</text><text class="cls-16" transform="translate(943.06 434.68)">s</text><path class="cls-13" d="M347.66,474.61c41.49,0,75.12-18.66,75.12-41.68s-33.63-41.69-75.12-41.69-75.13,18.66-75.13,41.69,33.64,41.68,75.13,41.68Z" transform="translate(551.62 116.05)"/><text class="cls-14" transform="translate(859.33 561.03)">ALLE</text><text class="cls-14" transform="translate(920.36 561.03)">A</text><path class="cls-13" d="M552.91,390.69C594.4,390.69,628,372,628,349s-33.63-41.68-75.12-41.68S477.78,326,477.78,349s33.64,41.69,75.13,41.69Z" transform="translate(551.62 116.05)"/><text class="cls-18" transform="translate(1046.23 473.67)">CLARIN ERIC</text><path class="cls-13" d="M856.41,349c41.49,0,75.12-18.66,75.12-41.68s-33.63-41.69-75.12-41.69-75.13,18.66-75.13,41.69S814.92,349,856.41,349Z" transform="translate(551.62 116.05)"/><text class="cls-19" transform="translate(1370.89 418.2)">DA</text><text class="cls-18" transform="translate(1398 418.2)">RIAH </text><text class="cls-18" transform="translate(1386.51 445.79)">ERIC</text><path class="cls-13" d="M525.41,568.81c41.49,0,75.12-18.67,75.12-41.69s-33.63-41.69-75.12-41.69-75.13,18.67-75.13,41.69,33.64,41.69,75.13,41.69Z" transform="translate(551.62 116.05)"/><text class="cls-20" transform="translate(1042.68 655.23)">EO</text><text class="cls-21" transform="translate(1079.19 655.23)">SC</text><path class="cls-13" d="M706.16,474.07c41.49,0,75.12-18.67,75.12-41.69s-33.63-41.69-75.12-41.69S631,409.35,631,432.38s33.64,41.69,75.13,41.69Z" transform="translate(551.62 116.05)"/><text class="cls-22" transform="translate(1200.72 558.17)">Eur</text><text class="cls-22" transform="translate(1235.72 558.17)">opeana</text><path class="cls-13" d="M290.88,594.52c41.48,0,75.12-18.66,75.12-41.68s-33.64-41.69-75.12-41.69-75.13,18.66-75.13,41.69,33.64,41.68,75.13,41.68Z" transform="translate(551.62 116.05)"/><text class="cls-21" transform="translate(807.1 680.95)">ESFR</text><text class="cls-14" transform="translate(869.53 680.95)">I</text><path class="cls-13" d="M827.87,610.49c41.49,0,75.12-18.66,75.12-41.68s-33.63-41.69-75.12-41.69-75.13,18.66-75.13,41.69,33.64,41.68,75.13,41.68Z" transform="translate(551.62 116.05)"/><text class="cls-23" transform="translate(1324.39 694.98)">OpenAIRE</text><path class="cls-13" d="M895.13,470.22c41.49,0,75.12-18.67,75.12-41.69s-33.63-41.69-75.12-41.69S820,405.51,820,428.53s33.63,41.69,75.13,41.69Z" transform="translate(551.62 116.05)"/><text class="cls-24" transform="translate(1397.4 555.83)">OPERAS</text><path class="cls-13" d="M812.06,746.92c41.49,0,75.13-18.66,75.13-41.68s-33.64-41.69-75.13-41.69-75.12,18.66-75.12,41.69,33.63,41.68,75.12,41.68Z" transform="translate(551.62 116.05)"/><text class="cls-14" transform="translate(1335.85 833.35)">RD</text><text class="cls-14" transform="translate(1372.65 833.35)">A</text><path class="cls-13" d="M615.26,682.73c41.49,0,75.13-18.66,75.13-41.69s-33.64-41.68-75.13-41.68S540.14,618,540.14,641s33.63,41.69,75.12,41.69Z" transform="translate(551.62 116.05)"/><text class="cls-14" transform="translate(1131.72 769.16)">HTR</text><text class="cls-14" transform="translate(1184.64 769.16)">C</text><path class="cls-13" d="M332.39,702.38c41.49,0,75.12-18.66,75.12-41.69S373.88,619,332.39,619s-75.13,18.67-75.13,41.69,33.64,41.69,75.13,41.69Z" transform="translate(551.62 116.05)"/><text class="cls-14" transform="translate(859.54 788.81)">DIN</text><path class="cls-13" d="M93,652.18c41.49,0,75.12-18.66,75.12-41.69S134.49,568.81,93,568.81s-75.12,18.66-75.12,41.68S51.51,652.18,93,652.18Z" transform="translate(551.62 116.05)"/><text class="cls-14" transform="translate(622.4 738.6)">ISO</text><path class="cls-13" d="M199.12,762c41.49,0,75.13-18.66,75.13-41.69s-33.64-41.69-75.13-41.69S124,697.29,124,720.31,157.64,762,199.12,762Z" transform="translate(551.62 116.05)"/><text class="cls-14" transform="translate(730.87 848.43)">TEI</text><path class="cls-13" d="M509.19,769.76c41.49,0,75.12-18.67,75.12-41.69s-33.63-41.69-75.12-41.69S434.06,705,434.06,728.07s33.64,41.69,75.13,41.69Z" transform="translate(551.62 116.05)"/><text class="cls-14" transform="translate(1029.64 856.18)">W3C</text><g class="cls-2"><path class="cls-25" d="M-240.06,536.89c151.23-8.07,271.9-131.27,275.94-283.53m-.31-23.71C27.5,78.42-95.7-42.25-248-46.29m-23.71.31C-422.9-37.91-543.57,85.29-547.62,237.55m.32,23.71c8.07,151.23,131.26,271.9,283.53,276" transform="translate(551.62 116.05)"/><path class="cls-26" d="M36,245.45h0M-255.87-46.4h0M-547.72,245.45h0m291.85,291.86h0" transform="translate(551.62 116.05)"/><line class="cls-27" x1="489.64" y1="280.27" x2="100.33" y2="445.62"/><path class="cls-28" d="M-53.43,160.59h0m-402.14,170.8h0" transform="translate(551.62 116.05)"/></g><line class="cls-29" x1="319.79" y1="154.43" x2="268.33" y2="574.26"/><path class="cls-30" d="M-230.7,29.16h0m-53.16,433.67h0" transform="translate(551.62 116.05)"/><g class="cls-2"><line class="cls-31" x1="132.03" y1="224.02" x2="430.52" y2="454.79"/><path class="cls-28" d="M-427,102.28h0m309.54,239.31h0" transform="translate(551.62 116.05)"/><path class="cls-32" d="M-300.35,607a73.55,73.55,0,0,0,73.55-73.55,73.55,73.55,0,0,0-73.55-73.55,73.55,73.55,0,0,0-73.55,73.55A73.55,73.55,0,0,0-300.35,607Z" transform="translate(551.62 116.05)"/><path class="cls-32" d="M-226.8,31.05A73.55,73.55,0,0,0-153.25-42.5,73.55,73.55,0,0,0-226.8-116,73.55,73.55,0,0,0-300.35-42.5,73.55,73.55,0,0,0-226.8,31.05Z" transform="translate(551.62 116.05)"/></g><path class="cls-32" d="M6.25,191.89A73.55,73.55,0,1,0-67.3,118.34,73.55,73.55,0,0,0,6.25,191.89Z" transform="translate(551.62 116.05)"/><path class="cls-33" d="M-329.41,245.13a73.54,73.54,0,0,0,73.54,73.55,73.55,73.55,0,0,0,73.55-73.55" transform="translate(551.62 116.05)"/><path class="cls-33" d="M-182.32,245.77a73.55,73.55,0,0,0-73.55-73.54,73.54,73.54,0,0,0-73.54,73.54" transform="translate(551.62 116.05)"/><path class="cls-34" d="M-19.83,543.73A128.41,128.41,0,0,0,108.59,415.31,128.41,128.41,0,0,0-19.83,286.9,128.41,128.41,0,0,0-148.24,415.31,128.41,128.41,0,0,0-19.83,543.73Z" transform="translate(551.62 116.05)"/><text class="cls-35" transform="translate(447.68 560.7)">Te</text><text class="cls-36" transform="translate(516.61 560.7)">xt</text><text class="cls-37" transform="translate(576.94 560.7)">+</text></svg>