<svg id="Layer_1" data-name="Layer 1" xmlns="http://www.w3.org/2000/svg" xmlns:xlink="http://www.w3.org/1999/xlink" viewBox="0 0 611.83 577.28"><defs><style>.cls-1,.cls-10,.cls-3,.cls-38,.cls-39,.cls-4,.cls-40,.cls-41,.cls-42,.cls-43,.cls-44,.cls-45,.cls-46,.cls-47,.cls-48,.cls-49,.cls-5,.cls-50,.cls-51,.cls-52,.cls-53,.cls-54,.cls-55,.cls-56,.cls-57,.cls-6,.cls-7,.cls-78,.cls-79,.cls-8,.cls-80,.cls-81,.cls-9{fill:none;}.cls-2{clip-path:url(#clip-path);}.cls-3{stroke:#f1f2f2;stroke-miterlimit:10;}.cls-4,.cls-5{stroke:#c7c8ca;stroke-width:5px;}.cls-10,.cls-4,.cls-5,.cls-6,.cls-7,.cls-8,.cls-9{stroke-linecap:round;stroke-linejoin:round;}.cls-4{stroke-dasharray:0 10.14;}.cls-10,.cls-6,.cls-7,.cls-8,.cls-9{stroke:#c3c5c5;}.cls-10,.cls-6,.cls-7{stroke-width:3px;}.cls-6,.cls-8{stroke-dasharray:0 5.96;}.cls-8,.cls-9{stroke-width:3px;}.cls-10{stroke-dasharray:0 5.97;}.cls-11{fill:#4e846f;}.cls-12,.cls-13,.cls-15,.cls-16,.cls-17,.cls-18,.cls-19{font-size:16px;}.cls-12,.cls-13,.cls-14,.cls-15,.cls-16,.cls-17,.cls-18,.cls-19{fill:#dbdcc4;}.cls-12,.cls-13,.cls-15,.cls-16,.cls-17,.cls-18,.cls-19,.cls-21,.cls-22,.cls-23,.cls-25,.cls-26,.cls-27,.cls-28,.cls-29,.cls-30,.cls-31,.cls-32,.cls-33,.cls-34,.cls-35,.cls-36,.cls-88,.cls-89,.cls-90,.cls-91,.cls-92,.cls-93,.cls-94,.cls-95,.cls-96,.cls-97{font-family:Calibri-Light, Calibri, Arial, Helvetica, sans-serif;font-weight:300;}.cls-12{letter-spacing:0.02em;}.cls-15{letter-spacing:-0.01em;}.cls-16{letter-spacing:0.01em;}.cls-17{letter-spacing:0.01em;}.cls-18{letter-spacing:0.02em;}.cls-19{letter-spacing:-0.06em;}.cls-20{fill:#743947;}.cls-21,.cls-22,.cls-23{font-size:50.16px;}.cls-21,.cls-22,.cls-23,.cls-88,.cls-89,.cls-90,.cls-91,.cls-92,.cls-93,.cls-94,.cls-95,.cls-96,.cls-97{fill:#fff;}.cls-21{letter-spacing:-0.09em;}.cls-22{letter-spacing:0em;}.cls-24{fill:#c3c5c5;}.cls-25{font-size:12px;}.cls-25,.cls-26,.cls-27,.cls-28,.cls-29,.cls-30,.cls-31,.cls-32,.cls-33,.cls-34,.cls-35,.cls-36,.cls-58,.cls-59,.cls-60,.cls-61,.cls-62,.cls-63,.cls-64,.cls-65,.cls-66,.cls-67,.cls-68,.cls-69,.cls-70,.cls-71,.cls-72,.cls-73,.cls-74,.cls-75,.cls-76,.cls-77,.cls-82,.cls-83,.cls-84,.cls-85{fill:#49332f;}.cls-26{font-size:12px;}.cls-27{font-size:12px;}.cls-28{font-size:12px;}.cls-29{font-size:12px;}.cls-30{font-size:12px;}.cls-31{font-size:12px;}.cls-32{font-size:12px;}.cls-33{font-size:12px;}.cls-34{font-size:12px;}.cls-35{font-size:12px;}.cls-36{font-size:12px;}.cls-37{clip-path:url(#clip-path-2);}.cls-38,.cls-58{font-size:15.8px;}.cls-38,.cls-39,.cls-40,.cls-41,.cls-42,.cls-43,.cls-44,.cls-45,.cls-46,.cls-47,.cls-48,.cls-49,.cls-50,.cls-51,.cls-52,.cls-53,.cls-54,.cls-55,.cls-56,.cls-57,.cls-78,.cls-79,.cls-80,.cls-81{stroke:#fff;stroke-width:2px;}.cls-38,.cls-39,.cls-40,.cls-41,.cls-42,.cls-43,.cls-44,.cls-45,.cls-46,.cls-47,.cls-48,.cls-49,.cls-50,.cls-51,.cls-52,.cls-53,.cls-54,.cls-55,.cls-57,.cls-58,.cls-59,.cls-60,.cls-61,.cls-62,.cls-63,.cls-64,.cls-65,.cls-66,.cls-67,.cls-68,.cls-69,.cls-70,.cls-71,.cls-72,.cls-73,.cls-74,.cls-75,.cls-77,.cls-78,.cls-79,.cls-80,.cls-81,.cls-82,.cls-83,.cls-84,.cls-85{font-family:Calibri, Arial, Helvetica, sans-serif;}.cls-39,.cls-59{font-size:15.8px;}.cls-40,.cls-60{font-size:15.8px;}.cls-41,.cls-61{font-size:15.8px;}.cls-42,.cls-62{font-size:15.8px;}.cls-43,.cls-63{font-size:15.8px;}.cls-44,.cls-64{font-size:15.8px;}.cls-45,.cls-65{font-size:15.8px;}.cls-46,.cls-66{font-size:15.8px;}.cls-47,.cls-67{font-size:15.8px;}.cls-48,.cls-68{font-size:15.8px;}.cls-49,.cls-69{font-size:15.8px;}.cls-50,.cls-70{font-size:15.8px;}.cls-51,.cls-71{font-size:15.8px;}.cls-52,.cls-72{font-size:15.8px;}.cls-53,.cls-73{font-size:15.8px;}.cls-54,.cls-74{font-size:15.8px;}.cls-55,.cls-75{font-size:15.8px;}.cls-57,.cls-77{font-size:15.8px;}.cls-78,.cls-82{font-size:15.8px;}.cls-79,.cls-83{font-size:15.8px;}.cls-80,.cls-84{font-size:15.8px;}.cls-81,.cls-85{font-size:15.8px;}.cls-86{fill:#c7c8ca;}.cls-87{fill:#9d9fa2;}.cls-88{font-size:16px;}.cls-89{font-size:16px;}.cls-90{font-size:16px;}.cls-91{font-size:16px;}.cls-92{font-size:16px;}.cls-93{font-size:16px;}.cls-94{font-size:16px;}.cls-95{font-size:16px;}.cls-96{font-size:16px;}.cls-97{font-size:16px;}</style><clipPath id="clip-path" transform="translate(-0.67 3.78)"><rect class="cls-1" width="612" height="573"/></clipPath><clipPath id="clip-path-2" transform="translate(-0.67 3.78)"><rect class="cls-1" x="8" y="-24" width="595.28" height="841.89"/></clipPath></defs><title>Wagenrad_mit_gruen_englisch</title><g class="cls-2"><polygon class="cls-3" points="0.5 0.5 0.5 576.78 611.33 576.78 611.33 0.5 0.5 0.5 0.5 0.5"/></g><path class="cls-4" d="M275.21,442.39A187.1,187.1,0,0,0,452.1,260.64m-.21-15.19c-5.17-96.95-84.14-174.3-181.75-176.89m-15.19.2C158,73.93,80.65,152.9,78.06,250.51m.2,15.2C83.43,362.65,162.4,440,260,442.59" transform="translate(-0.67 3.78)"/><path class="cls-5" d="M452.16,255.58h0M265.08,68.49h0M78,255.58h0M265.08,442.66h0" transform="translate(-0.67 3.78)"/><line class="cls-6" x1="388.7" y1="207.29" x2="139.14" y2="313.28"/><path class="cls-7" d="M394.85,201.18h0M137.06,310.66h0" transform="translate(-0.67 3.78)"/><line class="cls-8" x1="279.82" y1="126.62" x2="246.83" y2="395.74"/><path class="cls-9" d="M281.21,116.92h0m-34.08,278h0" transform="translate(-0.67 3.78)"/><line class="cls-10" x1="159.46" y1="171.23" x2="350.8" y2="319.15"/><path class="cls-7" d="M155.4,163.79h0M353.83,317.2h0" transform="translate(-0.67 3.78)"/><polygon class="cls-11" points="256.78 507.73 256.78 566.55 567.18 566.55 567.18 507.73 256.78 507.73 256.78 507.73"/><text class="cls-12" transform="translate(287.63 533.54)">TEXT</text><text class="cls-13" transform="translate(319.53 533.54)">+</text><path class="cls-14" d="M338.48,524.5a.39.39,0,0,0-.05-.13s0,0-.08-.07H335a.23.23,0,0,0-.18.08.48.48,0,0,0-.06.3.51.51,0,0,0,.06.32.23.23,0,0,0,.18.08h3.26a.18.18,0,0,0,.16-.08.5.5,0,0,0,.07-.32.44.44,0,0,0,0-.17Z" transform="translate(-0.67 3.78)"/><text class="cls-15" transform="translate(338.03 533.54)"><tspan xml:space="preserve"> L</tspan></text><text class="cls-12" transform="translate(348.49 533.54)">ANGU</text><text class="cls-16" transform="translate(388.51 533.54)">AG</text><path class="cls-14" d="M415.49,529.15c0-.06,0-.09-.05-.12s-.05-.07-.08-.08a.21.21,0,0,0-.11,0H411v-4h3.57a.2.2,0,0,0,.11,0,.15.15,0,0,0,.08-.08l.05-.11a.91.91,0,0,0,0-.17,1.15,1.15,0,0,0,0-.2c0-.06,0-.09-.05-.12a.13.13,0,0,0-.08-.08.21.21,0,0,0-.11,0H411v-3.57h4.14a.19.19,0,0,0,.1,0,.13.13,0,0,0,.08-.08,1.23,1.23,0,0,0,.05-.13.86.86,0,0,0,0-.17,1.15,1.15,0,0,0,0-.19l-.05-.13a.2.2,0,0,0-.08-.08.19.19,0,0,0-.1,0h-4.67a.44.44,0,0,0-.29.11c-.1.06-.14.19-.14.38v9.13c0,.19,0,.32.14.38a.44.44,0,0,0,.29.11h4.74a.2.2,0,0,0,.11,0l.08-.08.05-.13a.91.91,0,0,0,0-.17,1.15,1.15,0,0,0,0-.2Zm5.13-4.65a.89.89,0,0,0-.05-.13s-.05,0-.08-.07h-3.34a.23.23,0,0,0-.18.08.48.48,0,0,0-.06.3.51.51,0,0,0,.06.32.23.23,0,0,0,.18.08h3.26a.18.18,0,0,0,.16-.08.5.5,0,0,0,.07-.32.44.44,0,0,0,0-.17Z" transform="translate(-0.67 3.78)"/><text class="cls-15" transform="translate(420.17 533.54)"><tspan xml:space="preserve"> A</tspan></text><text class="cls-17" transform="translate(432.94 533.54)">ND</text><text class="cls-15" transform="translate(453 533.54)"><tspan xml:space="preserve"> T</tspan></text><text class="cls-17" transform="translate(464.49 533.54)">EX</text><path class="cls-14" d="M489.05,519.89a.89.89,0,0,0-.05-.13.16.16,0,0,0-.08-.08l-.09,0h-7s-.09,0-.1,0a.16.16,0,0,0-.08.08.89.89,0,0,0-.05.13.58.58,0,0,0,0,.19.44.44,0,0,0,0,.17.44.44,0,0,0,.05.13.11.11,0,0,0,.08.08s.06,0,.1,0h3v9.11a.18.18,0,0,0,0,.1.18.18,0,0,0,.08.06.57.57,0,0,0,.16,0,1.22,1.22,0,0,0,.44,0,.57.57,0,0,0,.16,0,.18.18,0,0,0,.08-.06.18.18,0,0,0,0-.1v-9.11h3l.09,0a.11.11,0,0,0,.08-.08.44.44,0,0,0,.05-.13.44.44,0,0,0,0-.17.58.58,0,0,0,0-.19Zm4.41,4.61a1,1,0,0,0,0-.13.27.27,0,0,0-.08-.07H490a.23.23,0,0,0-.18.08.56.56,0,0,0-.06.3.6.6,0,0,0,.06.32.23.23,0,0,0,.18.08h3.27a.21.21,0,0,0,.16-.08.6.6,0,0,0,.06-.32.44.44,0,0,0,0-.17Zm8.23,1.48a2.56,2.56,0,0,0-.42-.76,3.05,3.05,0,0,0-.64-.55,2.31,2.31,0,0,0-.77-.29,1.76,1.76,0,0,0,.6-.38,1.81,1.81,0,0,0,.4-.51,2.37,2.37,0,0,0,.25-.61,3.16,3.16,0,0,0-.09-1.73,2,2,0,0,0-.53-.82,2.57,2.57,0,0,0-.91-.51,5,5,0,0,0-1.43-.17H496a.42.42,0,0,0-.29.11.41.41,0,0,0-.15.38v9.13a.41.41,0,0,0,.15.38.42.42,0,0,0,.29.11h2.62a5.3,5.3,0,0,0,1-.08,3.85,3.85,0,0,0,.77-.25A3.22,3.22,0,0,0,501,529a2.59,2.59,0,0,0,.48-.56,2.51,2.51,0,0,0,.29-.69,2.73,2.73,0,0,0,.11-.83,2.67,2.67,0,0,0-.16-.95Zm-1.62-3a1.4,1.4,0,0,1-.33.61,1.54,1.54,0,0,1-.58.4,2.22,2.22,0,0,1-.93.16H496.5v-3.64h1.59a3.52,3.52,0,0,1,1,.13,1.3,1.3,0,0,1,.61.35,1.27,1.27,0,0,1,.35.56,2,2,0,0,1,.12.73,2.06,2.06,0,0,1-.12.7Zm.61,4.88a1.68,1.68,0,0,1-.46.59,1.83,1.83,0,0,1-.66.36,2.72,2.72,0,0,1-.85.12H496.5V525h1.83a4.42,4.42,0,0,1,1.12.13,2.09,2.09,0,0,1,.77.4,1.57,1.57,0,0,1,.46.64,2.16,2.16,0,0,1,.16.88,2,2,0,0,1-.16.83Zm7.07-8a.2.2,0,0,0-.06-.11.24.24,0,0,0-.11-.06.65.65,0,0,0-.2,0h-.48a.47.47,0,0,0-.17,0,.26.26,0,0,0-.13.06.2.2,0,0,0-.06.11L503,529.44a.52.52,0,0,0,0,.19.18.18,0,0,0,.05.12l.16,0a1.1,1.1,0,0,0,.27,0,1,1,0,0,0,.26,0l.14,0,.1-.07a.26.26,0,0,0,0-.09l.93-2.68h4.45l1,2.69a.14.14,0,0,0,.05.1s0,0,.08.06a.26.26,0,0,0,.14,0,1.77,1.77,0,0,0,.53,0,.22.22,0,0,0,.16,0,.18.18,0,0,0,0-.12.52.52,0,0,0,0-.19Zm1.32,6.29h-3.88l1.91-5.44Z" transform="translate(-0.67 3.78)"/><text class="cls-18" transform="translate(511.11 533.54)">SED </text><text class="cls-17" transform="translate(298.34 552.74)">RESEARCH</text><text class="cls-15" transform="translate(366.75 552.74)"><tspan xml:space="preserve"> D</tspan></text><text class="cls-19" transform="translate(380.07 552.74)">AT</text><text class="cls-15" transform="translate(394.77 552.74)">A </text><text class="cls-17" transform="translate(407.22 552.74)">INFRASTRUCTUR</text><text class="cls-13" transform="translate(517.81 552.74)">E</text><path class="cls-20" d="M416.39,446.78a82.32,82.32,0,1,0-82.32-82.32,82.32,82.32,0,0,0,82.32,82.32Z" transform="translate(-0.67 3.78)"/><text class="cls-21" transform="translate(362.99 386.94)">Te</text><text class="cls-22" transform="translate(406.75 386.94)">xt</text><text class="cls-23" transform="translate(444.47 386.94)">+</text><path class="cls-24" d="M236.56,487.31a47.15,47.15,0,1,0-47.14-47.15,47.15,47.15,0,0,0,47.14,47.15Z" transform="translate(-0.67 3.78)"/><text class="cls-25" transform="matrix(0.66, -0.75, 0.75, 0.66, 206.15, 423.65)">N</text><text class="cls-26" transform="translate(210.63 418.54) rotate(-40.22)">F</text><text class="cls-27" transform="translate(214.05 415.47) rotate(-31.97)">D</text><text class="cls-28" transform="translate(219.54 412.11) rotate(-23.63)">I</text><text class="cls-29" transform="translate(222.26 410.87) rotate(-19.4)"> </text><text class="cls-30" transform="translate(224.26 409.92) rotate(-12.28)">C</text><text class="cls-31" transform="matrix(1, -0.06, 0.06, 1, 229.75, 408.54)">o</text><text class="cls-32" transform="translate(235.14 408.01) rotate(5.07)">n</text><text class="cls-30" transform="translate(240.69 408.41) rotate(12.28)">s</text><text class="cls-29" transform="translate(244.73 409.17) rotate(19.4)">o</text><text class="cls-33" transform="translate(249.89 410.93) rotate(27.82)">r</text><text class="cls-34" transform="matrix(0.84, 0.55, -0.55, 0.84, 253.7, 412.9)">t</text><text class="cls-35" transform="translate(256.75 414.87) rotate(38.85)">i</text><text class="cls-36" transform="matrix(0.72, 0.7, -0.7, 0.72, 258.65, 416.24)">u</text><text class="cls-26" transform="matrix(0.57, 0.82, -0.82, 0.57, 262.35, 419.4)">m</text><g class="cls-37"><text class="cls-38" transform="matrix(0.51, 0.86, -0.86, 0.51, 331.98, 416.34)">I</text><text class="cls-39" transform="matrix(0.57, 0.82, -0.82, 0.57, 334.59, 420.72)">n</text><text class="cls-40" transform="translate(340.23 428.56) rotate(49.78)">f</text><text class="cls-41" transform="matrix(0.68, 0.73, -0.73, 0.68, 343.83, 432.79)">r</text><text class="cls-42" transform="translate(348.36 437.65) rotate(41.58)">a</text><text class="cls-43" transform="matrix(0.79, 0.61, -0.61, 0.79, 354.86, 443.37)">s</text><text class="cls-44" transform="matrix(0.84, 0.55, -0.55, 0.84, 360.53, 447.66)">t</text><text class="cls-45" transform="translate(365.87 451.17) rotate(29.21)">r</text><text class="cls-46" transform="translate(371.63 454.43) rotate(25.03)">u</text><text class="cls-47" transform="translate(380.56 458.48) rotate(19.4)">c</text><text class="cls-48" transform="translate(387.94 461.03) rotate(15.14)">t</text><text class="cls-49" transform="translate(394.15 462.72) rotate(10.85)">u</text><text class="cls-43" transform="translate(403.46 464.35) rotate(6.52)">r</text><text class="cls-50" transform="translate(410.28 465.1) rotate(0.72)">e</text><text class="cls-51" transform="translate(418.91 465.14) rotate(-2.18)"> </text><text class="cls-43" transform="translate(423.63 464.96) rotate(-6.52)">/</text><text class="cls-52" transform="translate(430.45 464.14) rotate(-9.41)"> </text><text class="cls-53" transform="translate(435.13 463.43) rotate(-13.71)">O</text><text class="cls-47" transform="matrix(0.93, -0.36, 0.36, 0.93, 447.05, 460.24)">p</text><text class="cls-54" transform="matrix(0.9, -0.45, 0.45, 0.9, 456.17, 456.66)">e</text><text class="cls-38" transform="matrix(0.86, -0.51, 0.51, 0.86, 464.13, 452.53)">r</text><text class="cls-55" transform="matrix(0.81, -0.59, 0.59, 0.81, 469.86, 449.15)">a</text><path class="cls-56" d="M474.9,432.8l-1.09-1.23-.09-.06h-.13l-.18.1a2.7,2.7,0,0,0-.25.2L473,432l-.13.17a.31.31,0,0,0,0,.13.12.12,0,0,0,.05.1l1.09,1.23-.73.64a.33.33,0,0,0-.06.1s0,.07,0,.13l.07.15a1.27,1.27,0,0,0,.16.2.72.72,0,0,0,.31.25.19.19,0,0,0,.22,0l.74-.65,2.68,3a3.8,3.8,0,0,0,.78.71,1.6,1.6,0,0,0,.76.31,1.46,1.46,0,0,0,.76-.1,2.57,2.57,0,0,0,.79-.51l.25-.24a3.42,3.42,0,0,1,.22-.28,1.57,1.57,0,0,0,.14-.25.42.42,0,0,0,.06-.21.3.3,0,0,0-.06-.21,1.52,1.52,0,0,0-.21-.29.62.62,0,0,0-.17-.16s-.08-.08-.12-.09a.1.1,0,0,0-.09,0,.06.06,0,0,0-.06,0,.35.35,0,0,0-.08.13.85.85,0,0,1-.1.18c0,.06-.09.14-.12.21a2.4,2.4,0,0,1-.22.24.83.83,0,0,1-.82.24,2.32,2.32,0,0,1-.88-.68l-2.55-2.89,2.68-2.38,4,4.56a.18.18,0,0,0,.08.05.19.19,0,0,0,.14,0l.17-.09a1.66,1.66,0,0,0,.25-.2,1.39,1.39,0,0,0,.21-.21.66.66,0,0,0,.11-.16.14.14,0,0,0,0-.13.18.18,0,0,0,0-.09l-4.46-5a.44.44,0,0,0-.26-.17.39.39,0,0,0-.31.12Zm1.8-5.26a.88.88,0,0,0-.57.29.89.89,0,0,0-.35.52.88.88,0,0,0,.27.58.86.86,0,0,0,.53.33.88.88,0,0,0,.57-.29.92.92,0,0,0,.36-.52.9.9,0,0,0-.28-.58.86.86,0,0,0-.53-.33Z" transform="translate(-0.67 3.78)"/><text class="cls-41" transform="matrix(0.73, -0.68, 0.68, 0.73, 480.62, 440.76)"> </text><text class="cls-41" transform="matrix(0.68, -0.73, 0.73, 0.68, 484.65, 437.03)">o</text><text class="cls-43" transform="matrix(0.61, -0.79, 0.79, 0.61, 491.23, 429.78)">n</text><text class="cls-57" transform="translate(497.05 421.94) rotate(-58.03)">s</text></g><text class="cls-58" transform="matrix(0.51, 0.86, -0.86, 0.51, 331.98, 416.34)">I</text><text class="cls-59" transform="matrix(0.57, 0.82, -0.82, 0.57, 334.59, 420.72)">n</text><text class="cls-60" transform="translate(340.23 428.56) rotate(49.78)">f</text><text class="cls-61" transform="matrix(0.68, 0.73, -0.73, 0.68, 343.83, 432.79)">r</text><text class="cls-62" transform="translate(348.36 437.65) rotate(41.58)">a</text><text class="cls-63" transform="matrix(0.79, 0.61, -0.61, 0.79, 354.86, 443.37)">s</text><text class="cls-64" transform="matrix(0.84, 0.55, -0.55, 0.84, 360.53, 447.66)">t</text><text class="cls-65" transform="translate(365.87 451.17) rotate(29.21)">r</text><text class="cls-66" transform="translate(371.63 454.43) rotate(25.03)">u</text><text class="cls-67" transform="translate(380.56 458.48) rotate(19.4)">c</text><text class="cls-68" transform="translate(387.94 461.03) rotate(15.14)">t</text><text class="cls-69" transform="translate(394.15 462.72) rotate(10.85)">u</text><text class="cls-63" transform="translate(403.46 464.35) rotate(6.52)">r</text><text class="cls-70" transform="translate(410.28 465.1) rotate(0.72)">e</text><text class="cls-71" transform="translate(418.91 465.14) rotate(-2.18)"> </text><text class="cls-63" transform="translate(423.63 464.96) rotate(-6.52)">/</text><text class="cls-72" transform="translate(430.45 464.14) rotate(-9.41)"> </text><text class="cls-73" transform="translate(435.13 463.43) rotate(-13.71)">O</text><text class="cls-67" transform="matrix(0.93, -0.36, 0.36, 0.93, 447.05, 460.24)">p</text><text class="cls-74" transform="matrix(0.9, -0.45, 0.45, 0.9, 456.17, 456.66)">e</text><text class="cls-58" transform="matrix(0.86, -0.51, 0.51, 0.86, 464.13, 452.53)">r</text><text class="cls-75" transform="matrix(0.81, -0.59, 0.59, 0.81, 469.86, 449.15)">a</text><path class="cls-76" d="M474.9,432.8l-1.09-1.23-.09-.06h-.13l-.18.1a2.7,2.7,0,0,0-.25.2L473,432l-.13.17a.31.31,0,0,0,0,.13.12.12,0,0,0,.05.1l1.09,1.23-.73.64a.33.33,0,0,0-.06.1s0,.07,0,.13l.07.15a1.27,1.27,0,0,0,.16.2.72.72,0,0,0,.31.25.19.19,0,0,0,.22,0l.74-.65,2.68,3a3.8,3.8,0,0,0,.78.71,1.6,1.6,0,0,0,.76.31,1.46,1.46,0,0,0,.76-.1,2.57,2.57,0,0,0,.79-.51l.25-.24a3.42,3.42,0,0,1,.22-.28,1.57,1.57,0,0,0,.14-.25.42.42,0,0,0,.06-.21.3.3,0,0,0-.06-.21,1.52,1.52,0,0,0-.21-.29.62.62,0,0,0-.17-.16s-.08-.08-.12-.09a.1.1,0,0,0-.09,0,.06.06,0,0,0-.06,0,.35.35,0,0,0-.08.13.85.85,0,0,1-.1.18c0,.06-.09.14-.12.21a2.4,2.4,0,0,1-.22.24.83.83,0,0,1-.82.24,2.32,2.32,0,0,1-.88-.68l-2.55-2.89,2.68-2.38,4,4.56a.18.18,0,0,0,.08.05.19.19,0,0,0,.14,0l.17-.09a1.66,1.66,0,0,0,.25-.2,1.39,1.39,0,0,0,.21-.21.66.66,0,0,0,.11-.16.14.14,0,0,0,0-.13.18.18,0,0,0,0-.09l-4.46-5a.44.44,0,0,0-.26-.17.39.39,0,0,0-.31.12Zm1.8-5.26a.88.88,0,0,0-.57.29.89.89,0,0,0-.35.52.88.88,0,0,0,.27.58.86.86,0,0,0,.53.33.88.88,0,0,0,.57-.29.92.92,0,0,0,.36-.52.9.9,0,0,0-.28-.58.86.86,0,0,0-.53-.33Z" transform="translate(-0.67 3.78)"/><text class="cls-61" transform="matrix(0.73, -0.68, 0.68, 0.73, 480.62, 440.76)"> </text><text class="cls-61" transform="matrix(0.68, -0.73, 0.73, 0.68, 484.65, 437.03)">o</text><text class="cls-63" transform="matrix(0.61, -0.79, 0.79, 0.61, 491.23, 429.78)">n</text><text class="cls-77" transform="translate(497.05 421.94) rotate(-58.03)">s</text><g class="cls-37"><text class="cls-78" transform="translate(329.42 367.36) rotate(-86.37)">C</text><text class="cls-52" transform="translate(329.96 358.46) rotate(-80.59)">o</text><text class="cls-53" transform="translate(331.46 349.9) rotate(-76.29)">l</text><text class="cls-48" transform="translate(332.33 346.24) rotate(-74.86)">l</text><text class="cls-47" transform="translate(333.37 342.39) rotate(-70.6)">e</text><text class="cls-46" transform="translate(336.23 334.57) rotate(-64.97)">c</text><path class="cls-56" d="M335,318.17l-1.41-.84-.11,0a.34.34,0,0,0-.12,0l-.15.16a1.3,1.3,0,0,0-.17.26,2.38,2.38,0,0,0-.14.27,1.36,1.36,0,0,0-.06.2.22.22,0,0,0,0,.12s0,.06.08.08l1.41.84-.49.83a.15.15,0,0,0,0,.11.21.21,0,0,0,0,.13l.12.12a.86.86,0,0,0,.2.14.85.85,0,0,0,.38.15.21.21,0,0,0,.2-.1l.5-.84,3.48,2.06a4.49,4.49,0,0,0,.95.43,1.73,1.73,0,0,0,.83.07,1.52,1.52,0,0,0,.69-.33,2.65,2.65,0,0,0,.59-.73L342,321c.05-.11.08-.23.12-.33a1,1,0,0,0,.05-.28.42.42,0,0,0,0-.22A.41.41,0,0,0,342,320a1.36,1.36,0,0,0-.29-.21.85.85,0,0,0-.21-.11,1,1,0,0,0-.14,0s-.07,0-.08,0l-.06,0a.19.19,0,0,0,0,.15.9.9,0,0,1-.05.19,1.38,1.38,0,0,1-.05.25,1.75,1.75,0,0,1-.13.28.84.84,0,0,1-.71.49,2.25,2.25,0,0,1-1-.38l-3.32-2,1.83-3.09,5.23,3.09a.22.22,0,0,0,.1,0,.15.15,0,0,0,.12-.06l.14-.14a2.73,2.73,0,0,0,.18-.26,1.62,1.62,0,0,0,.13-.27,1,1,0,0,0,.06-.19.14.14,0,0,0,0-.13.25.25,0,0,0-.07-.08l-5.79-3.42a.5.5,0,0,0-.3-.09.4.4,0,0,0-.25.22Zm.1-5.56c-.16,0-.3.19-.45.45a.84.84,0,0,0-.18.61.85.85,0,0,0,.44.46.84.84,0,0,0,.61.16c.15,0,.29-.19.45-.45a.65.65,0,0,0-.27-1.08.81.81,0,0,0-.6-.15Z" transform="translate(-0.67 3.78)"/><text class="cls-57" transform="translate(341.5 324.15) rotate(-58.03)"> </text><text class="cls-55" transform="matrix(0.59, -0.81, 0.81, 0.59, 343.98, 320.11)">o</text><text class="cls-42" transform="translate(349.23 313.05) rotate(-48.42)">n</text><text class="cls-41" transform="matrix(0.73, -0.68, 0.68, 0.73, 355.15, 306.57)">s</text><text class="cls-42" transform="translate(359.96 302.16) rotate(-38.85)"> </text><text class="cls-55" transform="matrix(0.81, -0.59, 0.59, 0.81, 362.9, 299.75)">-</text><text class="cls-44" transform="matrix(0.84, -0.55, 0.55, 0.84, 367.01, 296.77)"> </text><text class="cls-45" transform="translate(370.23 294.54) rotate(-29.21)">L</text><text class="cls-46" transform="translate(376.33 291.09) rotate(-25.03)">e</text><text class="cls-47" transform="translate(383.68 287.68) rotate(-19.4)">x</text><text class="cls-57" transform="translate(390.37 285.38) rotate(-16.57)">i</text><text class="cls-79" transform="translate(394.2 284.2) rotate(-12.28)">c</text><text class="cls-80" transform="translate(400.95 282.74) rotate(-7.97)">a</text><text class="cls-78" transform="translate(408.84 281.76) rotate(-3.63)">l</text><text class="cls-50" transform="translate(412.7 281.5) rotate(-0.72)"> </text><text class="cls-78" transform="translate(416.64 281.31) rotate(3.63)">R</text><text class="cls-80" transform="translate(425.31 281.88) rotate(7.97)">e</text><text class="cls-53" transform="translate(433.57 283.14) rotate(13.71)">s</text><text class="cls-50" transform="matrix(0.95, 0.31, -0.31, 0.95, 439.92, 284.68)">o</text><text class="cls-46" transform="translate(448.4 287.48) rotate(25.03)">u</text><text class="cls-45" transform="translate(456.22 291.18) rotate(29.21)">r</text><text class="cls-44" transform="matrix(0.84, 0.55, -0.55, 0.84, 461.14, 293.93)">c</text><text class="cls-42" transform="translate(467.12 297.84) rotate(38.85)">e</text><text class="cls-41" transform="matrix(0.73, 0.68, -0.68, 0.73, 473.49, 303.03)">s</text><text class="cls-41" transform="matrix(0.68, 0.73, -0.73, 0.68, 478.21, 307.53)"> </text><text class="cls-40" transform="translate(480.82 310.3) rotate(49.78)">-</text><text class="cls-43" transform="matrix(0.61, 0.79, -0.79, 0.61, 484.08, 314.19)"> </text><text class="cls-44" transform="matrix(0.55, 0.84, -0.84, 0.55, 486.51, 317.28)">E</text><text class="cls-55" transform="matrix(0.47, 0.88, -0.88, 0.47, 490.9, 323.91)">d</text><text class="cls-81" transform="translate(494.86 331.6) rotate(66.37)">i</text><path class="cls-56" d="M505,331.62l1.55-.55a.2.2,0,0,0,.09-.06s0-.06.05-.12a1.14,1.14,0,0,0,0-.21,1.21,1.21,0,0,0-.09-.3,1.63,1.63,0,0,0-.11-.28l-.11-.18c-.05,0-.08-.06-.11-.06a.14.14,0,0,0-.11,0l-1.56.54-.32-.91a.2.2,0,0,0-.06-.09.17.17,0,0,0-.12-.06h-.17a1,1,0,0,0-.24.07.85.85,0,0,0-.35.19.21.21,0,0,0-.06.22l.33.92-3.82,1.35a3.66,3.66,0,0,0-.95.45,1.72,1.72,0,0,0-.58.59,1.62,1.62,0,0,0-.19.74,2.37,2.37,0,0,0,.18.92c0,.11.09.22.13.33s.12.2.17.3a1,1,0,0,0,.18.22.53.53,0,0,0,.17.15.39.39,0,0,0,.22,0,1.94,1.94,0,0,0,.34-.09l.22-.09s.1,0,.12-.08a.07.07,0,0,0,0-.08.09.09,0,0,0,0-.07.47.47,0,0,0-.09-.12,1.32,1.32,0,0,1-.12-.16c-.06-.05-.1-.13-.16-.19a2.55,2.55,0,0,1-.13-.29.83.83,0,0,1,.08-.85,2.19,2.19,0,0,1,1-.56L504,332l1.19,3.39-5.74,2a.17.17,0,0,0-.08.06.15.15,0,0,0,0,.13,1.42,1.42,0,0,0,0,.19c0,.08.05.19.09.31a2.38,2.38,0,0,0,.12.27l.11.17a.17.17,0,0,0,.11.08h.1l6.35-2.23a.54.54,0,0,0,.26-.18.42.42,0,0,0,0-.33Zm4.2,3.65a.89.89,0,0,0-.06-.64c-.1-.28-.21-.46-.35-.52a.86.86,0,0,0-.64,0,.85.85,0,0,0-.51.36.91.91,0,0,0,.06.63.87.87,0,0,0,.35.53.86.86,0,0,0,.64,0,.85.85,0,0,0,.51-.36Z" transform="translate(-0.67 3.78)"/><text class="cls-50" transform="matrix(0.31, 0.95, -0.95, 0.31, 498.06, 339.48)"> </text><text class="cls-53" transform="translate(499.57 344.02) rotate(76.29)">o</text><text class="cls-80" transform="translate(501.57 352.6) rotate(82.03)">n</text><text class="cls-51" transform="translate(502.68 361.32) rotate(87.82)">s</text></g><text class="cls-82" transform="translate(329.42 367.36) rotate(-86.37)">C</text><text class="cls-72" transform="translate(329.96 358.46) rotate(-80.59)">o</text><text class="cls-73" transform="translate(331.46 349.9) rotate(-76.29)">l</text><text class="cls-68" transform="translate(332.33 346.24) rotate(-74.86)">l</text><text class="cls-67" transform="translate(333.37 342.39) rotate(-70.6)">e</text><text class="cls-66" transform="translate(336.23 334.57) rotate(-64.97)">c</text><path class="cls-76" d="M335,318.17l-1.41-.84-.11,0a.34.34,0,0,0-.12,0l-.15.16a1.3,1.3,0,0,0-.17.26,2.38,2.38,0,0,0-.14.27,1.36,1.36,0,0,0-.06.2.22.22,0,0,0,0,.12s0,.06.08.08l1.41.84-.49.83a.15.15,0,0,0,0,.11.21.21,0,0,0,0,.13l.12.12a.86.86,0,0,0,.2.14.85.85,0,0,0,.38.15.21.21,0,0,0,.2-.1l.5-.84,3.48,2.06a4.49,4.49,0,0,0,.95.43,1.73,1.73,0,0,0,.83.07,1.52,1.52,0,0,0,.69-.33,2.65,2.65,0,0,0,.59-.73L342,321c.05-.11.08-.23.12-.33a1,1,0,0,0,.05-.28.42.42,0,0,0,0-.22A.41.41,0,0,0,342,320a1.36,1.36,0,0,0-.29-.21.85.85,0,0,0-.21-.11,1,1,0,0,0-.14,0s-.07,0-.08,0l-.06,0a.19.19,0,0,0,0,.15.9.9,0,0,1-.05.19,1.38,1.38,0,0,1-.05.25,1.75,1.75,0,0,1-.13.28.84.84,0,0,1-.71.49,2.25,2.25,0,0,1-1-.38l-3.32-2,1.83-3.09,5.23,3.09a.22.22,0,0,0,.1,0,.15.15,0,0,0,.12-.06l.14-.14a2.73,2.73,0,0,0,.18-.26,1.62,1.62,0,0,0,.13-.27,1,1,0,0,0,.06-.19.14.14,0,0,0,0-.13.25.25,0,0,0-.07-.08l-5.79-3.42a.5.5,0,0,0-.3-.09.4.4,0,0,0-.25.22Zm.1-5.56c-.16,0-.3.19-.45.45a.84.84,0,0,0-.18.61.85.85,0,0,0,.44.46.84.84,0,0,0,.61.16c.15,0,.29-.19.45-.45a.65.65,0,0,0-.27-1.08.81.81,0,0,0-.6-.15Z" transform="translate(-0.67 3.78)"/><text class="cls-77" transform="translate(341.5 324.15) rotate(-58.03)"> </text><text class="cls-75" transform="matrix(0.59, -0.81, 0.81, 0.59, 343.98, 320.11)">o</text><text class="cls-62" transform="translate(349.23 313.05) rotate(-48.42)">n</text><text class="cls-61" transform="matrix(0.73, -0.68, 0.68, 0.73, 355.15, 306.57)">s</text><text class="cls-62" transform="translate(359.96 302.16) rotate(-38.85)"> </text><text class="cls-75" transform="matrix(0.81, -0.59, 0.59, 0.81, 362.9, 299.75)">-</text><text class="cls-64" transform="matrix(0.84, -0.55, 0.55, 0.84, 367.01, 296.77)"> </text><text class="cls-65" transform="translate(370.23 294.54) rotate(-29.21)">L</text><text class="cls-66" transform="translate(376.33 291.09) rotate(-25.03)">e</text><text class="cls-67" transform="translate(383.68 287.68) rotate(-19.4)">x</text><text class="cls-77" transform="translate(390.37 285.38) rotate(-16.57)">i</text><text class="cls-83" transform="translate(394.2 284.2) rotate(-12.28)">c</text><text class="cls-84" transform="translate(400.95 282.74) rotate(-7.97)">a</text><text class="cls-82" transform="translate(408.84 281.76) rotate(-3.63)">l</text><text class="cls-70" transform="translate(412.7 281.5) rotate(-0.72)"> </text><text class="cls-82" transform="translate(416.64 281.31) rotate(3.63)">R</text><text class="cls-84" transform="translate(425.31 281.88) rotate(7.97)">e</text><text class="cls-73" transform="translate(433.57 283.14) rotate(13.71)">s</text><text class="cls-70" transform="matrix(0.95, 0.31, -0.31, 0.95, 439.92, 284.68)">o</text><text class="cls-66" transform="translate(448.4 287.48) rotate(25.03)">u</text><text class="cls-65" transform="translate(456.22 291.18) rotate(29.21)">r</text><text class="cls-64" transform="matrix(0.84, 0.55, -0.55, 0.84, 461.14, 293.93)">c</text><text class="cls-62" transform="translate(467.12 297.84) rotate(38.85)">e</text><text class="cls-61" transform="matrix(0.73, 0.68, -0.68, 0.73, 473.49, 303.03)">s</text><text class="cls-61" transform="matrix(0.68, 0.73, -0.73, 0.68, 478.21, 307.53)"> </text><text class="cls-60" transform="translate(480.82 310.3) rotate(49.78)">-</text><text class="cls-63" transform="matrix(0.61, 0.79, -0.79, 0.61, 484.08, 314.19)"> </text><text class="cls-64" transform="matrix(0.55, 0.84, -0.84, 0.55, 486.51, 317.28)">E</text><text class="cls-75" transform="matrix(0.47, 0.88, -0.88, 0.47, 490.9, 323.91)">d</text><text class="cls-85" transform="translate(494.86 331.6) rotate(66.37)">i</text><path class="cls-76" d="M505,331.62l1.55-.55a.2.2,0,0,0,.09-.06s0-.06.05-.12a1.14,1.14,0,0,0,0-.21,1.21,1.21,0,0,0-.09-.3,1.63,1.63,0,0,0-.11-.28l-.11-.18c-.05,0-.08-.06-.11-.06a.14.14,0,0,0-.11,0l-1.56.54-.32-.91a.2.2,0,0,0-.06-.09.17.17,0,0,0-.12-.06h-.17a1,1,0,0,0-.24.07.85.85,0,0,0-.35.19.21.21,0,0,0-.06.22l.33.92-3.82,1.35a3.66,3.66,0,0,0-.95.45,1.72,1.72,0,0,0-.58.59,1.62,1.62,0,0,0-.19.74,2.37,2.37,0,0,0,.18.92c0,.11.09.22.13.33s.12.2.17.3a1,1,0,0,0,.18.22.53.53,0,0,0,.17.15.39.39,0,0,0,.22,0,1.94,1.94,0,0,0,.34-.09l.22-.09s.1,0,.12-.08a.07.07,0,0,0,0-.08.09.09,0,0,0,0-.07.47.47,0,0,0-.09-.12,1.32,1.32,0,0,1-.12-.16c-.06-.05-.1-.13-.16-.19a2.55,2.55,0,0,1-.13-.29.83.83,0,0,1,.08-.85,2.19,2.19,0,0,1,1-.56L504,332l1.19,3.39-5.74,2a.17.17,0,0,0-.08.06.15.15,0,0,0,0,.13,1.42,1.42,0,0,0,0,.19c0,.08.05.19.09.31a2.38,2.38,0,0,0,.12.27l.11.17a.17.17,0,0,0,.11.08h.1l6.35-2.23a.54.54,0,0,0,.26-.18.42.42,0,0,0,0-.33Zm4.2,3.65a.89.89,0,0,0-.06-.64c-.1-.28-.21-.46-.35-.52a.86.86,0,0,0-.64,0,.85.85,0,0,0-.51.36.91.91,0,0,0,.06.63.87.87,0,0,0,.35.53.86.86,0,0,0,.64,0,.85.85,0,0,0,.51-.36Z" transform="translate(-0.67 3.78)"/><text class="cls-70" transform="matrix(0.31, 0.95, -0.95, 0.31, 498.06, 339.48)"> </text><text class="cls-73" transform="translate(499.57 344.02) rotate(76.29)">o</text><text class="cls-84" transform="translate(501.57 352.6) rotate(82.03)">n</text><text class="cls-71" transform="translate(502.68 361.32) rotate(87.82)">s</text><path class="cls-24" d="M91.15,364.35A47.15,47.15,0,1,0,44,317.2a47.15,47.15,0,0,0,47.15,47.15Z" transform="translate(-0.67 3.78)"/><text class="cls-25" transform="matrix(0.66, -0.75, 0.75, 0.66, 60.74, 300.69)">N</text><text class="cls-26" transform="translate(65.21 295.58) rotate(-40.22)">F</text><text class="cls-27" transform="translate(68.64 292.52) rotate(-31.97)">D</text><text class="cls-28" transform="translate(74.12 289.15) rotate(-23.63)">I</text><text class="cls-29" transform="translate(76.84 287.9) rotate(-19.4)"> </text><text class="cls-30" transform="translate(78.85 286.96) rotate(-12.28)">C</text><text class="cls-31" transform="matrix(1, -0.06, 0.06, 1, 84.34, 285.58)">o</text><text class="cls-32" transform="translate(89.72 285.05) rotate(5.07)">n</text><text class="cls-30" transform="translate(95.28 285.46) rotate(12.28)">s</text><text class="cls-29" transform="translate(99.31 286.21) rotate(19.4)">o</text><text class="cls-33" transform="translate(104.46 287.96) rotate(27.82)">r</text><text class="cls-34" transform="matrix(0.84, 0.55, -0.55, 0.84, 108.28, 289.93)">t</text><text class="cls-35" transform="translate(111.34 291.91) rotate(38.85)">i</text><text class="cls-36" transform="matrix(0.72, 0.7, -0.7, 0.72, 113.22, 293.27)">u</text><text class="cls-26" transform="matrix(0.57, 0.82, -0.82, 0.57, 116.93, 296.44)">m</text><path class="cls-24" d="M122.64,182a47.15,47.15,0,1,0-47.15-47.14A47.14,47.14,0,0,0,122.64,182Z" transform="translate(-0.67 3.78)"/><text class="cls-25" transform="matrix(0.66, -0.75, 0.75, 0.66, 92.22, 118.36)">N</text><text class="cls-26" transform="translate(96.7 113.25) rotate(-40.22)">F</text><text class="cls-27" transform="translate(100.12 110.2) rotate(-31.97)">D</text><text class="cls-28" transform="translate(105.61 106.83) rotate(-23.63)">I</text><text class="cls-29" transform="translate(108.33 105.59) rotate(-19.4)"> </text><text class="cls-30" transform="translate(110.34 104.63) rotate(-12.28)">C</text><text class="cls-31" transform="matrix(1, -0.06, 0.06, 1, 115.83, 103.26)">o</text><text class="cls-32" transform="translate(121.2 102.72) rotate(5.07)">n</text><text class="cls-30" transform="translate(126.76 103.13) rotate(12.28)">s</text><text class="cls-29" transform="translate(130.8 103.89) rotate(19.4)">o</text><text class="cls-33" transform="translate(135.96 105.64) rotate(27.82)">r</text><text class="cls-34" transform="matrix(0.84, 0.55, -0.55, 0.84, 139.78, 107.61)">t</text><text class="cls-35" transform="translate(142.83 109.59) rotate(38.85)">i</text><text class="cls-36" transform="matrix(0.72, 0.7, -0.7, 0.72, 144.71, 110.95)">u</text><text class="cls-26" transform="matrix(0.57, 0.82, -0.82, 0.57, 148.42, 114.11)">m</text><path class="cls-24" d="M283.71,118.14A47.15,47.15,0,1,0,236.56,71a47.14,47.14,0,0,0,47.15,47.15Z" transform="translate(-0.67 3.78)"/><text class="cls-25" transform="matrix(0.66, -0.75, 0.75, 0.66, 253.3, 54.47)">N</text><text class="cls-26" transform="translate(257.77 49.37) rotate(-40.22)">F</text><text class="cls-27" transform="translate(261.2 46.3) rotate(-31.97)">D</text><text class="cls-28" transform="translate(266.68 42.94) rotate(-23.63)">I</text><text class="cls-29" transform="translate(269.4 41.69) rotate(-19.4)"> </text><text class="cls-30" transform="translate(271.41 40.74) rotate(-12.28)">C</text><text class="cls-31" transform="matrix(1, -0.06, 0.06, 1, 276.9, 39.37)">o</text><text class="cls-32" transform="translate(282.28 38.84) rotate(5.07)">n</text><text class="cls-30" transform="translate(287.84 39.25) rotate(12.28)">s</text><text class="cls-29" transform="translate(291.88 40) rotate(19.4)">o</text><text class="cls-33" transform="translate(297.03 41.75) rotate(27.82)">r</text><text class="cls-34" transform="matrix(0.84, 0.55, -0.55, 0.84, 300.84, 43.72)">t</text><text class="cls-35" transform="translate(303.9 45.7) rotate(38.85)">i</text><text class="cls-36" transform="matrix(0.72, 0.7, -0.7, 0.72, 305.8, 47.07)">u</text><text class="cls-26" transform="matrix(0.57, 0.82, -0.82, 0.57, 309.5, 50.23)">m</text><path class="cls-86" d="M433.1,221.24A47.15,47.15,0,1,0,386,174.09a47.14,47.14,0,0,0,47.15,47.15Z" transform="translate(-0.67 3.78)"/><text class="cls-25" transform="matrix(0.66, -0.75, 0.75, 0.66, 402.69, 157.58)">N</text><text class="cls-26" transform="translate(407.16 152.46) rotate(-40.22)">F</text><text class="cls-27" transform="translate(410.59 149.4) rotate(-31.97)">D</text><text class="cls-28" transform="translate(416.07 146.03) rotate(-23.63)">I</text><text class="cls-29" transform="translate(418.79 144.79) rotate(-19.4)"> </text><text class="cls-30" transform="translate(420.79 143.84) rotate(-12.28)">C</text><text class="cls-31" transform="matrix(1, -0.06, 0.06, 1, 426.29, 142.48)">o</text><text class="cls-32" transform="translate(431.67 141.94) rotate(5.07)">n</text><text class="cls-30" transform="translate(437.22 142.35) rotate(12.28)">s</text><text class="cls-29" transform="translate(441.27 143.1) rotate(19.4)">o</text><text class="cls-33" transform="translate(446.43 144.86) rotate(27.82)">r</text><text class="cls-34" transform="matrix(0.84, 0.55, -0.55, 0.84, 450.23, 146.82)">t</text><text class="cls-35" transform="translate(453.29 148.8) rotate(38.85)">i</text><text class="cls-36" transform="matrix(0.72, 0.7, -0.7, 0.72, 455.18, 150.16)">u</text><text class="cls-26" transform="matrix(0.57, 0.82, -0.82, 0.57, 458.89, 153.33)">m</text><path class="cls-87" d="M217.93,255.37a47.15,47.15,0,1,0,94.29,0" transform="translate(-0.67 3.78)"/><text class="cls-88" transform="matrix(0.36, 0.93, -0.93, 0.36, 222.12, 268.52)">D</text><text class="cls-89" transform="matrix(0.57, 0.82, -0.82, 0.57, 226.73, 280)">I</text><text class="cls-90" transform="translate(230.31 285.73) rotate(44.32)">R</text><text class="cls-91" transform="matrix(0.86, 0.51, -0.51, 0.86, 238.26, 293.47)">E</text><text class="cls-92" transform="translate(246.96 298.82) rotate(15.14)">C</text><text class="cls-93" transform="translate(258.39 301.92) rotate(0.73)">T</text><text class="cls-92" transform="translate(268.52 302.43) rotate(-15.14)">O</text><text class="cls-91" transform="matrix(0.86, -0.51, 0.51, 0.86, 281.17, 299.03)">R</text><text class="cls-90" transform="translate(291.14 293.11) rotate(-45.68)">A</text><text class="cls-94" transform="translate(298.77 285.51) rotate(-60.79)">T</text><text class="cls-95" transform="matrix(0.31, -0.95, 0.95, 0.31, 303.97, 276.08)">E</text><path class="cls-87" d="M312.22,255.78a47.15,47.15,0,1,0-94.29,0" transform="translate(-0.67 3.78)"/><text class="cls-95" transform="matrix(0.96, -0.29, 0.29, 0.96, 248.24, 231.07)">N</text><text class="cls-96" transform="translate(257.81 227.89) rotate(-2.18)">F</text><text class="cls-94" transform="translate(264.94 227.02) rotate(12.28)">D</text><text class="cls-97" transform="translate(275.05 229.37) rotate(23.63)">I</text></svg>