<svg id="Layer_1" data-name="Layer 1" xmlns="http://www.w3.org/2000/svg" xmlns:xlink="http://www.w3.org/1999/xlink" viewBox="0 0 504.99 546.01"><defs><style>.cls-1,.cls-29,.cls-3,.cls-30,.cls-31,.cls-32,.cls-33,.cls-34,.cls-35,.cls-36,.cls-37,.cls-38,.cls-39,.cls-4,.cls-40,.cls-41,.cls-42,.cls-43,.cls-44,.cls-5,.cls-6,.cls-61,.cls-62,.cls-63,.cls-64,.cls-65,.cls-66,.cls-67,.cls-7,.cls-8,.cls-9{fill:none;}.cls-2{fill:#f1f2f2;}.cls-3,.cls-4{stroke:#c7c8ca;stroke-width:5px;}.cls-3,.cls-4,.cls-5,.cls-6,.cls-7,.cls-8,.cls-9{stroke-linecap:round;stroke-linejoin:round;}.cls-3{stroke-dasharray:0 10.14;}.cls-5,.cls-6,.cls-7,.cls-8,.cls-9{stroke:#c3c5c5;}.cls-5,.cls-6,.cls-9{stroke-width:3px;}.cls-5,.cls-7{stroke-dasharray:0 5.96;}.cls-7,.cls-8{stroke-width:3px;}.cls-9{stroke-dasharray:0 5.97;}.cls-10{fill:#743947;}.cls-11,.cls-12,.cls-13{font-size:50.16px;}.cls-11,.cls-12,.cls-13,.cls-77,.cls-78,.cls-79,.cls-80,.cls-81,.cls-82,.cls-83,.cls-84,.cls-85,.cls-86{fill:#fff;}.cls-11,.cls-12,.cls-13,.cls-15,.cls-16,.cls-17,.cls-18,.cls-19,.cls-20,.cls-21,.cls-22,.cls-23,.cls-24,.cls-25,.cls-26,.cls-27,.cls-77,.cls-78,.cls-79,.cls-80,.cls-81,.cls-82,.cls-83,.cls-84,.cls-85,.cls-86{font-family:Calibri-Light, Calibri;font-weight:300;}.cls-11{letter-spacing:-0.09em;}.cls-12{letter-spacing:0em;}.cls-14{fill:#c3c5c5;}.cls-15{font-size:12px;}.cls-15,.cls-16,.cls-17,.cls-18,.cls-19,.cls-20,.cls-21,.cls-22,.cls-23,.cls-24,.cls-25,.cls-26,.cls-27,.cls-45,.cls-46,.cls-47,.cls-48,.cls-49,.cls-50,.cls-51,.cls-52,.cls-53,.cls-54,.cls-55,.cls-56,.cls-57,.cls-58,.cls-59,.cls-60,.cls-68,.cls-69,.cls-70,.cls-71,.cls-72,.cls-73,.cls-74{fill:#49332f;}.cls-16,.cls-44,.cls-60{font-size:12px;}.cls-17{font-size:12px;}.cls-18,.cls-33,.cls-49{font-size:12px;}.cls-19,.cls-34,.cls-50{font-size:12px;}.cls-20,.cls-30,.cls-46{font-size:12px;}.cls-21,.cls-65,.cls-72{font-size:12px;}.cls-22,.cls-38,.cls-54{font-size:12px;}.cls-23,.cls-36,.cls-52{font-size:12px;}.cls-24,.cls-61,.cls-68{font-size:12px;}.cls-25,.cls-63,.cls-70{font-size:12px;}.cls-26,.cls-40,.cls-56{font-size:12px;}.cls-27,.cls-29,.cls-45{font-size:12px;}.cls-28{clip-path:url(#clip-path);}.cls-29,.cls-30,.cls-31,.cls-32,.cls-33,.cls-34,.cls-35,.cls-36,.cls-37,.cls-38,.cls-39,.cls-40,.cls-41,.cls-42,.cls-43,.cls-44,.cls-61,.cls-62,.cls-63,.cls-64,.cls-65,.cls-66,.cls-67{stroke:#fff;stroke-width:2px;}.cls-29,.cls-30,.cls-31,.cls-32,.cls-33,.cls-34,.cls-35,.cls-36,.cls-37,.cls-38,.cls-39,.cls-40,.cls-41,.cls-42,.cls-43,.cls-44,.cls-45,.cls-46,.cls-47,.cls-48,.cls-49,.cls-50,.cls-51,.cls-52,.cls-53,.cls-54,.cls-55,.cls-56,.cls-57,.cls-58,.cls-59,.cls-60,.cls-61,.cls-62,.cls-63,.cls-64,.cls-65,.cls-66,.cls-68,.cls-69,.cls-70,.cls-71,.cls-72,.cls-73{font-family:Calibri;}.cls-31,.cls-47{font-size:12px;}.cls-32,.cls-48{font-size:12px;}.cls-35,.cls-51{font-size:12px;}.cls-37,.cls-53{font-size:12px;}.cls-39,.cls-55{font-size:12px;}.cls-41,.cls-57{font-size:12px;}.cls-42,.cls-58{font-size:12px;}.cls-43,.cls-59{font-size:12px;}.cls-62,.cls-69{font-size:12px;}.cls-64,.cls-71{font-size:12px;}.cls-66,.cls-73{font-size:12px;}.cls-75{fill:#c7c8ca;}.cls-76{fill:#9d9fa2;}.cls-77{font-size:16px;}.cls-78{font-size:16px;}.cls-79{font-size:16px;}.cls-80{font-size:16px;}.cls-81{font-size:16px;}.cls-82{font-size:16px;}.cls-83{font-size:16px;}.cls-84{font-size:16px;}.cls-85{font-size:16px;}.cls-86{font-size:16px;}</style><clipPath id="clip-path" transform="translate(-8 -23.84)"><rect class="cls-1" x="8" y="-24" width="595.28" height="841.89"/></clipPath></defs><title>Wagenrad_ohne_gruen_deutsch</title><polygon class="cls-2" points="0 537.29 0 546.01 3 546.01 3 537.29 0 537.29 0 537.29"/><path class="cls-3" d="M275.21,442.39A187.1,187.1,0,0,0,452.1,260.64m-.21-15.19c-5.17-96.95-84.14-174.3-181.75-176.89m-15.19.2C158,73.93,80.65,152.9,78.06,250.51m.2,15.2C83.43,362.65,162.4,440,260,442.59" transform="translate(-8 -23.84)"/><path class="cls-4" d="M452.16,255.58h0M265.08,68.49h0M78,255.58h0M265.08,442.66h0" transform="translate(-8 -23.84)"/><line class="cls-5" x1="381.36" y1="179.66" x2="131.8" y2="285.66"/><path class="cls-6" d="M394.85,201.18h0M137.06,310.66h0" transform="translate(-8 -23.84)"/><line class="cls-7" x1="272.48" y1="99" x2="239.5" y2="368.12"/><path class="cls-8" d="M281.21,116.92h0m-34.08,278h0" transform="translate(-8 -23.84)"/><line class="cls-9" x1="152.13" y1="143.6" x2="343.46" y2="291.53"/><path class="cls-6" d="M155.4,163.79h0M353.83,317.2h0" transform="translate(-8 -23.84)"/><path class="cls-10" d="M416.39,446.78a82.32,82.32,0,1,0-82.32-82.32,82.32,82.32,0,0,0,82.32,82.32Z" transform="translate(-8 -23.84)"/><text class="cls-11" transform="translate(355.65 359.32)">Te</text><text class="cls-12" transform="translate(399.42 359.32)">xt</text><text class="cls-13" transform="translate(437.14 359.32)">+</text><path class="cls-14" d="M236.56,487.31a47.15,47.15,0,1,0-47.14-47.15,47.15,47.15,0,0,0,47.14,47.15Z" transform="translate(-8 -23.84)"/><text class="cls-15" transform="matrix(0.66, -0.75, 0.75, 0.66, 198.82, 396.03)">N</text><text class="cls-16" transform="translate(203.29 390.91) rotate(-40.22)">F</text><text class="cls-17" transform="translate(206.71 387.85) rotate(-31.97)">D</text><text class="cls-18" transform="translate(212.2 384.49) rotate(-23.63)">I</text><text class="cls-19" transform="translate(214.92 383.25) rotate(-19.4)"> </text><text class="cls-20" transform="matrix(0.97, -0.24, 0.24, 0.97, 217.22, 382.3)">K</text><text class="cls-21" transform="translate(222.08 381.03) rotate(-5.07)">o</text><text class="cls-22" transform="matrix(1, 0.06, -0.06, 1, 227.43, 380.46)">n</text><text class="cls-23" transform="matrix(0.98, 0.19, -0.19, 0.98, 232.98, 380.79)">s</text><text class="cls-19" transform="translate(236.78 381.33) rotate(19.4)">o</text><text class="cls-24" transform="matrix(0.9, 0.45, -0.45, 0.9, 242.19, 383.19)">r</text><text class="cls-20" transform="matrix(0.84, 0.55, -0.55, 0.84, 245.82, 384.91)">t</text><text class="cls-25" transform="translate(249.11 387.06) rotate(37.48)">i</text><text class="cls-26" transform="matrix(0.72, 0.7, -0.7, 0.72, 250.84, 388.15)">u</text><text class="cls-27" transform="translate(254.71 391.55) rotate(53.9)">m</text><g class="cls-28"><text class="cls-29" transform="translate(351.73 415.33) rotate(36.1)">I</text><text class="cls-30" transform="matrix(0.84, 0.55, -0.55, 0.84, 354.62, 417.49)">n</text><text class="cls-31" transform="translate(360.6 421.36) rotate(29.21)">f</text><text class="cls-32" transform="translate(364.07 423.3) rotate(27.82)">r</text><text class="cls-33" transform="translate(368.35 425.54) rotate(23.63)">a</text><text class="cls-34" transform="translate(374.2 428.04) rotate(20.82)">s</text><text class="cls-35" transform="translate(379.33 429.94) rotate(16.57)">t</text><text class="cls-30" transform="matrix(0.97, 0.24, -0.24, 0.97, 383.77, 431.29)">r</text><text class="cls-36" transform="matrix(0.98, 0.19, -0.19, 0.98, 388.43, 432.43)">u</text><text class="cls-37" transform="translate(395.54 433.73) rotate(6.52)">k</text><text class="cls-38" transform="matrix(1, 0.06, -0.06, 1, 401.54, 434.36)">t</text><text class="cls-39" transform="translate(406.47 434.67) rotate(-0.73)">u</text><text class="cls-38" transform="matrix(1, -0.06, 0.06, 1, 413.4, 434.55)">r</text><text class="cls-37" transform="translate(418.2 434.19) rotate(-6.52)"> </text><text class="cls-40" transform="matrix(0.99, -0.16, 0.16, 0.99, 421.51, 433.82)">/</text><text class="cls-41" transform="translate(426.7 432.98) rotate(-12.28)"> </text><text class="cls-42" transform="translate(429.96 432.34) rotate(-15.14)">B</text><text class="cls-34" transform="translate(437.15 430.37) rotate(-19.4)">e</text><text class="cls-38" transform="matrix(0.93, -0.38, 0.38, 0.93, 443.28, 428.16)">t</text><text class="cls-43" transform="matrix(0.91, -0.42, 0.42, 0.91, 447.53, 426.35)">r</text><text class="cls-32" transform="translate(451.83 424.28) rotate(-27.82)">i</text><text class="cls-29" transform="matrix(0.86, -0.51, 0.51, 0.86, 454.8, 422.71)">e</text><text class="cls-44" transform="matrix(0.82, -0.57, 0.57, 0.82, 460.66, 419.15)">b</text></g><text class="cls-45" transform="translate(351.73 415.33) rotate(36.1)">I</text><text class="cls-46" transform="matrix(0.84, 0.55, -0.55, 0.84, 354.62, 417.49)">n</text><text class="cls-47" transform="translate(360.6 421.36) rotate(29.21)">f</text><text class="cls-48" transform="translate(364.07 423.3) rotate(27.82)">r</text><text class="cls-49" transform="translate(368.35 425.54) rotate(23.63)">a</text><text class="cls-50" transform="translate(374.2 428.04) rotate(20.82)">s</text><text class="cls-51" transform="translate(379.33 429.94) rotate(16.57)">t</text><text class="cls-46" transform="matrix(0.97, 0.24, -0.24, 0.97, 383.77, 431.29)">r</text><text class="cls-52" transform="matrix(0.98, 0.19, -0.19, 0.98, 388.43, 432.43)">u</text><text class="cls-53" transform="translate(395.54 433.73) rotate(6.52)">k</text><text class="cls-54" transform="matrix(1, 0.06, -0.06, 1, 401.54, 434.36)">t</text><text class="cls-55" transform="translate(406.47 434.67) rotate(-0.73)">u</text><text class="cls-54" transform="matrix(1, -0.06, 0.06, 1, 413.4, 434.55)">r</text><text class="cls-53" transform="translate(418.2 434.19) rotate(-6.52)"> </text><text class="cls-56" transform="matrix(0.99, -0.16, 0.16, 0.99, 421.51, 433.82)">/</text><text class="cls-57" transform="translate(426.7 432.98) rotate(-12.28)"> </text><text class="cls-58" transform="translate(429.96 432.34) rotate(-15.14)">B</text><text class="cls-50" transform="translate(437.15 430.37) rotate(-19.4)">e</text><text class="cls-54" transform="matrix(0.93, -0.38, 0.38, 0.93, 443.28, 428.16)">t</text><text class="cls-59" transform="matrix(0.91, -0.42, 0.42, 0.91, 447.53, 426.35)">r</text><text class="cls-48" transform="translate(451.83 424.28) rotate(-27.82)">i</text><text class="cls-45" transform="matrix(0.86, -0.51, 0.51, 0.86, 454.8, 422.71)">e</text><text class="cls-60" transform="matrix(0.82, -0.57, 0.57, 0.82, 460.66, 419.15)">b</text><g class="cls-28"><text class="cls-37" transform="translate(323.62 333.48) rotate(-83.48)">S</text><text class="cls-36" transform="matrix(0.19, -0.98, 0.98, 0.19, 324.27, 327.72)">a</text><text class="cls-42" transform="translate(325.35 321.78) rotate(-74.86)">m</text><text class="cls-38" transform="matrix(0.38, -0.93, 0.93, 0.38, 328.09, 312.13)">m</text><text class="cls-61" transform="matrix(0.45, -0.9, 0.9, 0.45, 331.99, 303.07)">l</text><text class="cls-29" transform="translate(333.28 300.34) rotate(-59.41)">u</text><text class="cls-44" transform="matrix(0.57, -0.82, 0.82, 0.57, 336.62, 294.67)">n</text><text class="cls-29" transform="translate(340.36 289.26) rotate(-51.15)">g</text><text class="cls-62" transform="translate(344 284.73) rotate(-47.05)">e</text><text class="cls-62" transform="translate(348.24 280.16) rotate(-42.95)">n</text><text class="cls-44" transform="translate(353.02 275.77) rotate(-40.22)"> </text><text class="cls-63" transform="translate(355.22 273.92) rotate(-37.48)">-</text><text class="cls-29" transform="translate(358.22 271.63) rotate(-36.1)"> </text><text class="cls-30" transform="matrix(0.84, -0.55, 0.55, 0.84, 360.56, 269.94)">L</text><text class="cls-31" transform="translate(365.01 267.05) rotate(-29.21)">e</text><text class="cls-43" transform="matrix(0.91, -0.42, 0.42, 0.91, 370.33, 264.12)">x</text><text class="cls-38" transform="matrix(0.93, -0.38, 0.38, 0.93, 375.21, 261.88)">i</text><text class="cls-34" transform="translate(377.92 260.74) rotate(-19.4)">k</text><text class="cls-42" transform="translate(383.12 258.88) rotate(-15.14)">a</text><text class="cls-41" transform="translate(388.85 257.35) rotate(-12.28)">l</text><text class="cls-36" transform="matrix(0.98, -0.19, 0.19, 0.98, 391.64, 256.74)">i</text><text class="cls-64" transform="translate(394.52 256.18) rotate(-7.97)">s</text><text class="cls-65" transform="translate(399.35 255.5) rotate(-5.07)">c</text><text class="cls-39" transform="translate(404.69 255.05) rotate(-0.73)">h</text><text class="cls-38" transform="matrix(1, 0.06, -0.06, 1, 411.28, 254.98)">e</text><text class="cls-37" transform="translate(417.41 255.42) rotate(6.52)"> </text><text class="cls-40" transform="matrix(0.99, 0.16, -0.16, 0.99, 420.29, 255.72)">R</text><text class="cls-30" transform="matrix(0.97, 0.24, -0.24, 0.97, 426.8, 256.85)">e</text><text class="cls-66" transform="translate(432.84 258.36) rotate(17.99)">s</text><text class="cls-34" transform="translate(437.48 259.88) rotate(20.82)">s</text><text class="cls-43" transform="matrix(0.91, 0.42, -0.42, 0.91, 442.13, 261.65)">o</text><text class="cls-31" transform="translate(448.09 264.45) rotate(29.21)">u</text><text class="cls-30" transform="matrix(0.84, 0.55, -0.55, 0.84, 453.81, 267.71)">r</text><text class="cls-29" transform="translate(457.32 270) rotate(36.1)">c</text><text class="cls-44" transform="translate(461.63 273.14) rotate(40.22)">e</text><text class="cls-40" transform="matrix(0.72, 0.7, -0.7, 0.72, 466.41, 277.17)">n</text><text class="cls-62" transform="translate(470.98 281.73) rotate(47.05)"> </text><text class="cls-44" transform="translate(472.95 283.85) rotate(49.78)">-</text><text class="cls-63" transform="translate(475.44 286.79) rotate(52.52)"> </text><text class="cls-44" transform="matrix(0.57, 0.82, -0.82, 0.57, 477.25, 289.04)">E</text><text class="cls-29" transform="translate(480.68 293.92) rotate(59.41)">d</text><text class="cls-32" transform="translate(483.95 299.52) rotate(62.18)">i</text><path class="cls-67" d="M499.27,325.49l1.13-.53s.05,0,.07-.06a.17.17,0,0,0,0-.09.64.64,0,0,0,0-.15c0-.06,0-.14-.09-.23a1.2,1.2,0,0,0-.11-.2.44.44,0,0,0-.1-.12s-.06,0-.08,0a.1.1,0,0,0-.09,0l-1.13.53-.31-.67-.06-.06s-.05,0-.09,0l-.13,0-.18.07a.67.67,0,0,0-.25.17.18.18,0,0,0,0,.17l.32.68-2.79,1.3a2.84,2.84,0,0,0-.68.41,1.26,1.26,0,0,0-.39.49,1.09,1.09,0,0,0-.09.57,1.83,1.83,0,0,0,.2.69c0,.08.09.16.12.23a2.09,2.09,0,0,0,.16.22.77.77,0,0,0,.15.16.33.33,0,0,0,.14.09.24.24,0,0,0,.17,0,1.11,1.11,0,0,0,.25-.09.61.61,0,0,0,.16-.09s.07,0,.08-.06,0-.05,0-.07v-.05a.2.2,0,0,0-.08-.08l-.11-.11a1.66,1.66,0,0,0-.13-.14,2,2,0,0,1-.12-.21.63.63,0,0,1,0-.65,1.72,1.72,0,0,1,.69-.49l2.65-1.24,1.15,2.47-4.18,2a.14.14,0,0,0-.08.15s0,.09,0,.15l.09.22a1.8,1.8,0,0,0,.11.2l.09.11a.2.2,0,0,0,.09.06h.08l4.63-2.17a.31.31,0,0,0,.18-.15.28.28,0,0,0,0-.25Zm3.45,2.44a.64.64,0,0,0-.09-.47c-.1-.21-.2-.33-.31-.37a.64.64,0,0,0-.48.07.64.64,0,0,0-.36.32.69.69,0,0,0,.09.47.73.73,0,0,0,.31.38.7.7,0,0,0,.48-.08c.21-.1.32-.2.36-.32Z" transform="translate(-8 -23.84)"/><text class="cls-33" transform="translate(486.79 305.21) rotate(66.37)"> </text><text class="cls-34" transform="translate(488.28 308.5) rotate(70.6)">o</text><text class="cls-42" transform="translate(490.5 314.71) rotate(74.86)">n</text><text class="cls-36" transform="matrix(0.19, 0.98, -0.98, 0.19, 492.24, 321.08)">e</text><text class="cls-37" transform="translate(493.43 327.22) rotate(83.48)">n</text></g><text class="cls-53" transform="translate(323.62 333.48) rotate(-83.48)">S</text><text class="cls-52" transform="matrix(0.19, -0.98, 0.98, 0.19, 324.27, 327.72)">a</text><text class="cls-58" transform="translate(325.35 321.78) rotate(-74.86)">m</text><text class="cls-54" transform="matrix(0.38, -0.93, 0.93, 0.38, 328.09, 312.13)">m</text><text class="cls-68" transform="matrix(0.45, -0.9, 0.9, 0.45, 331.99, 303.07)">l</text><text class="cls-45" transform="translate(333.28 300.34) rotate(-59.41)">u</text><text class="cls-60" transform="matrix(0.57, -0.82, 0.82, 0.57, 336.62, 294.67)">n</text><text class="cls-45" transform="translate(340.36 289.26) rotate(-51.15)">g</text><text class="cls-69" transform="translate(344 284.73) rotate(-47.05)">e</text><text class="cls-69" transform="translate(348.24 280.16) rotate(-42.95)">n</text><text class="cls-60" transform="translate(353.02 275.77) rotate(-40.22)"> </text><text class="cls-70" transform="translate(355.22 273.92) rotate(-37.48)">-</text><text class="cls-45" transform="translate(358.22 271.63) rotate(-36.1)"> </text><text class="cls-46" transform="matrix(0.84, -0.55, 0.55, 0.84, 360.56, 269.94)">L</text><text class="cls-47" transform="translate(365.01 267.05) rotate(-29.21)">e</text><text class="cls-59" transform="matrix(0.91, -0.42, 0.42, 0.91, 370.33, 264.12)">x</text><text class="cls-54" transform="matrix(0.93, -0.38, 0.38, 0.93, 375.21, 261.88)">i</text><text class="cls-50" transform="translate(377.92 260.74) rotate(-19.4)">k</text><text class="cls-58" transform="translate(383.12 258.88) rotate(-15.14)">a</text><text class="cls-57" transform="translate(388.85 257.35) rotate(-12.28)">l</text><text class="cls-52" transform="matrix(0.98, -0.19, 0.19, 0.98, 391.64, 256.74)">i</text><text class="cls-71" transform="translate(394.52 256.18) rotate(-7.97)">s</text><text class="cls-72" transform="translate(399.35 255.5) rotate(-5.07)">c</text><text class="cls-55" transform="translate(404.69 255.05) rotate(-0.73)">h</text><text class="cls-54" transform="matrix(1, 0.06, -0.06, 1, 411.28, 254.98)">e</text><text class="cls-53" transform="translate(417.41 255.42) rotate(6.52)"> </text><text class="cls-56" transform="matrix(0.99, 0.16, -0.16, 0.99, 420.29, 255.72)">R</text><text class="cls-46" transform="matrix(0.97, 0.24, -0.24, 0.97, 426.8, 256.85)">e</text><text class="cls-73" transform="translate(432.84 258.36) rotate(17.99)">s</text><text class="cls-50" transform="translate(437.48 259.88) rotate(20.82)">s</text><text class="cls-59" transform="matrix(0.91, 0.42, -0.42, 0.91, 442.13, 261.65)">o</text><text class="cls-47" transform="translate(448.09 264.45) rotate(29.21)">u</text><text class="cls-46" transform="matrix(0.84, 0.55, -0.55, 0.84, 453.81, 267.71)">r</text><text class="cls-45" transform="translate(457.32 270) rotate(36.1)">c</text><text class="cls-60" transform="translate(461.63 273.14) rotate(40.22)">e</text><text class="cls-56" transform="matrix(0.72, 0.7, -0.7, 0.72, 466.41, 277.17)">n</text><text class="cls-69" transform="translate(470.98 281.73) rotate(47.05)"> </text><text class="cls-60" transform="translate(472.95 283.85) rotate(49.78)">-</text><text class="cls-70" transform="translate(475.44 286.79) rotate(52.52)"> </text><text class="cls-60" transform="matrix(0.57, 0.82, -0.82, 0.57, 477.25, 289.04)">E</text><text class="cls-45" transform="translate(480.68 293.92) rotate(59.41)">d</text><text class="cls-48" transform="translate(483.95 299.52) rotate(62.18)">i</text><path class="cls-74" d="M499.27,325.49l1.13-.53s.05,0,.07-.06a.17.17,0,0,0,0-.09.64.64,0,0,0,0-.15c0-.06,0-.14-.09-.23a1.2,1.2,0,0,0-.11-.2.44.44,0,0,0-.1-.12s-.06,0-.08,0a.1.1,0,0,0-.09,0l-1.13.53-.31-.67-.06-.06s-.05,0-.09,0l-.13,0-.18.07a.67.67,0,0,0-.25.17.18.18,0,0,0,0,.17l.32.68-2.79,1.3a2.84,2.84,0,0,0-.68.41,1.26,1.26,0,0,0-.39.49,1.09,1.09,0,0,0-.09.57,1.83,1.83,0,0,0,.2.69c0,.08.09.16.12.23a2.09,2.09,0,0,0,.16.22.77.77,0,0,0,.15.16.33.33,0,0,0,.14.09.24.24,0,0,0,.17,0,1.11,1.11,0,0,0,.25-.09.61.61,0,0,0,.16-.09s.07,0,.08-.06,0-.05,0-.07v-.05a.2.2,0,0,0-.08-.08l-.11-.11a1.66,1.66,0,0,0-.13-.14,2,2,0,0,1-.12-.21.63.63,0,0,1,0-.65,1.72,1.72,0,0,1,.69-.49l2.65-1.24,1.15,2.47-4.18,2a.14.14,0,0,0-.08.15s0,.09,0,.15l.09.22a1.8,1.8,0,0,0,.11.2l.09.11a.2.2,0,0,0,.09.06h.08l4.63-2.17a.31.31,0,0,0,.18-.15.28.28,0,0,0,0-.25Zm3.45,2.44a.64.64,0,0,0-.09-.47c-.1-.21-.2-.33-.31-.37a.64.64,0,0,0-.48.07.64.64,0,0,0-.36.32.69.69,0,0,0,.09.47.73.73,0,0,0,.31.38.7.7,0,0,0,.48-.08c.21-.1.32-.2.36-.32Z" transform="translate(-8 -23.84)"/><text class="cls-49" transform="translate(486.79 305.21) rotate(66.37)"> </text><text class="cls-50" transform="translate(488.28 308.5) rotate(70.6)">o</text><text class="cls-58" transform="translate(490.5 314.71) rotate(74.86)">n</text><text class="cls-52" transform="matrix(0.19, 0.98, -0.98, 0.19, 492.24, 321.08)">e</text><text class="cls-53" transform="translate(493.43 327.22) rotate(83.48)">n</text><path class="cls-14" d="M91.15,364.35A47.15,47.15,0,1,0,44,317.2a47.15,47.15,0,0,0,47.15,47.15Z" transform="translate(-8 -23.84)"/><text class="cls-15" transform="matrix(0.66, -0.75, 0.75, 0.66, 53.41, 273.07)">N</text><text class="cls-16" transform="translate(57.88 267.96) rotate(-40.22)">F</text><text class="cls-17" transform="translate(61.3 264.9) rotate(-31.97)">D</text><text class="cls-18" transform="translate(66.79 261.52) rotate(-23.63)">I</text><text class="cls-19" transform="translate(69.5 260.28) rotate(-19.4)"> </text><text class="cls-20" transform="matrix(0.97, -0.24, 0.24, 0.97, 71.81, 259.34)">K</text><text class="cls-21" transform="translate(76.65 258.06) rotate(-5.07)">o</text><text class="cls-22" transform="matrix(1, 0.06, -0.06, 1, 82.01, 257.5)">n</text><text class="cls-23" transform="matrix(0.98, 0.19, -0.19, 0.98, 87.56, 257.83)">s</text><text class="cls-19" transform="translate(91.36 258.37) rotate(19.4)">o</text><text class="cls-24" transform="matrix(0.9, 0.45, -0.45, 0.9, 96.76, 260.23)">r</text><text class="cls-20" transform="matrix(0.84, 0.55, -0.55, 0.84, 100.41, 261.96)">t</text><text class="cls-25" transform="translate(103.68 264.1) rotate(37.48)">i</text><text class="cls-26" transform="matrix(0.72, 0.7, -0.7, 0.72, 105.43, 265.2)">u</text><text class="cls-27" transform="translate(109.29 268.58) rotate(53.9)">m</text><path class="cls-14" d="M122.64,182a47.15,47.15,0,1,0-47.15-47.14A47.14,47.14,0,0,0,122.64,182Z" transform="translate(-8 -23.84)"/><text class="cls-15" transform="matrix(0.66, -0.75, 0.75, 0.66, 84.89, 90.74)">N</text><text class="cls-16" transform="translate(89.36 85.63) rotate(-40.22)">F</text><text class="cls-17" transform="translate(92.79 82.57) rotate(-31.97)">D</text><text class="cls-18" transform="translate(98.28 79.2) rotate(-23.63)">I</text><text class="cls-19" transform="translate(101 77.96) rotate(-19.4)"> </text><text class="cls-20" transform="matrix(0.97, -0.24, 0.24, 0.97, 103.3, 77.01)">K</text><text class="cls-21" transform="translate(108.14 75.74) rotate(-5.07)">o</text><text class="cls-22" transform="matrix(1, 0.06, -0.06, 1, 113.5, 75.17)">n</text><text class="cls-23" transform="matrix(0.98, 0.19, -0.19, 0.98, 119.05, 75.5)">s</text><text class="cls-19" transform="translate(122.85 76.04) rotate(19.4)">o</text><text class="cls-24" transform="matrix(0.9, 0.45, -0.45, 0.9, 128.26, 77.9)">r</text><text class="cls-20" transform="matrix(0.84, 0.55, -0.55, 0.84, 131.89, 79.63)">t</text><text class="cls-25" transform="translate(135.18 81.77) rotate(37.48)">i</text><text class="cls-26" transform="matrix(0.72, 0.7, -0.7, 0.72, 136.92, 82.88)">u</text><text class="cls-27" transform="translate(140.78 86.26) rotate(53.9)">m</text><path class="cls-14" d="M283.71,118.14A47.15,47.15,0,1,0,236.56,71a47.14,47.14,0,0,0,47.15,47.15Z" transform="translate(-8 -23.84)"/><text class="cls-15" transform="matrix(0.66, -0.75, 0.75, 0.66, 245.97, 26.85)">N</text><text class="cls-16" transform="translate(250.44 21.75) rotate(-40.22)">F</text><text class="cls-17" transform="translate(253.86 18.68) rotate(-31.97)">D</text><text class="cls-18" transform="translate(259.34 15.32) rotate(-23.63)">I</text><text class="cls-19" transform="translate(262.06 14.07) rotate(-19.4)"> </text><text class="cls-20" transform="matrix(0.97, -0.24, 0.24, 0.97, 264.38, 13.13)">K</text><text class="cls-21" transform="translate(269.22 11.85) rotate(-5.07)">o</text><text class="cls-22" transform="matrix(1, 0.06, -0.06, 1, 274.59, 11.29)">n</text><text class="cls-23" transform="matrix(0.98, 0.19, -0.19, 0.98, 280.12, 11.62)">s</text><text class="cls-19" transform="translate(283.92 12.16) rotate(19.4)">o</text><text class="cls-24" transform="matrix(0.9, 0.45, -0.45, 0.9, 289.33, 14.02)">r</text><text class="cls-20" transform="matrix(0.84, 0.55, -0.55, 0.84, 292.97, 15.75)">t</text><text class="cls-25" transform="translate(296.25 17.89) rotate(37.48)">i</text><text class="cls-26" transform="matrix(0.72, 0.7, -0.7, 0.72, 297.99, 18.98)">u</text><text class="cls-27" transform="translate(301.85 22.37) rotate(53.9)">m</text><path class="cls-75" d="M433.1,221.24A47.15,47.15,0,1,0,386,174.09a47.14,47.14,0,0,0,47.15,47.15Z" transform="translate(-8 -23.84)"/><text class="cls-15" transform="matrix(0.66, -0.75, 0.75, 0.66, 395.36, 129.96)">N</text><text class="cls-16" transform="translate(399.82 124.84) rotate(-40.22)">F</text><text class="cls-17" transform="translate(403.25 121.78) rotate(-31.97)">D</text><text class="cls-18" transform="translate(408.74 118.41) rotate(-23.63)">I</text><text class="cls-19" transform="translate(411.45 117.17) rotate(-19.4)"> </text><text class="cls-20" transform="matrix(0.97, -0.24, 0.24, 0.97, 413.76, 116.23)">K</text><text class="cls-21" transform="translate(418.61 114.96) rotate(-5.07)">o</text><text class="cls-22" transform="matrix(1, 0.06, -0.06, 1, 423.97, 114.39)">n</text><text class="cls-23" transform="matrix(0.98, 0.19, -0.19, 0.98, 429.51, 114.72)">s</text><text class="cls-19" transform="translate(433.31 115.26) rotate(19.4)">o</text><text class="cls-24" transform="matrix(0.9, 0.45, -0.45, 0.9, 438.72, 117.12)">r</text><text class="cls-20" transform="matrix(0.84, 0.55, -0.55, 0.84, 442.36, 118.84)">t</text><text class="cls-25" transform="translate(445.64 120.99) rotate(37.48)">i</text><text class="cls-26" transform="matrix(0.72, 0.7, -0.7, 0.72, 447.39, 122.09)">u</text><text class="cls-27" transform="translate(451.24 125.47) rotate(53.9)">m</text><path class="cls-76" d="M217.93,255.37a47.15,47.15,0,1,0,94.29,0" transform="translate(-8 -23.84)"/><text class="cls-77" transform="translate(216.22 246.26) rotate(60.79)">D</text><text class="cls-78" transform="matrix(0.66, 0.75, -0.75, 0.66, 222.45, 257.07)">I</text><text class="cls-79" transform="translate(226.58 262.32) rotate(36.1)">R</text><text class="cls-80" transform="matrix(0.93, 0.38, -0.38, 0.93, 235.47, 269)">E</text><text class="cls-81" transform="matrix(0.99, 0.14, -0.14, 0.99, 244.9, 273.1)">K</text><text class="cls-79" transform="translate(256.11 274.76) rotate(-6.52)">T</text><text class="cls-80" transform="matrix(0.93, -0.38, 0.38, 0.93, 266.26, 274.07)">O</text><text class="cls-82" transform="matrix(0.79, -0.61, 0.61, 0.79, 278.42, 269.16)">R</text><text class="cls-82" transform="matrix(0.61, -0.79, 0.79, 0.61, 287.63, 262.1)">A</text><text class="cls-83" transform="translate(294.18 253.37) rotate(-64.97)">T</text><path class="cls-76" d="M312.22,255.78a47.15,47.15,0,1,0-94.29,0" transform="translate(-8 -23.84)"/><text class="cls-84" transform="matrix(0.96, -0.29, 0.29, 0.96, 240.91, 203.44)">N</text><text class="cls-85" transform="translate(250.47 200.26) rotate(-2.18)">F</text><text class="cls-77" transform="translate(257.61 199.4) rotate(12.28)">D</text><text class="cls-86" transform="translate(267.71 201.75) rotate(23.63)">I</text></svg>