<svg id="Layer_1" data-name="Layer 1" xmlns="http://www.w3.org/2000/svg" xmlns:xlink="http://www.w3.org/1999/xlink" viewBox="0 0 1463.21 865.9"><defs><style>.cls-1,.cls-63,.cls-64,.cls-65,.cls-66,.cls-67,.cls-68,.cls-69,.cls-72,.cls-73,.cls-74,.cls-75,.cls-76,.cls-77{fill:none;}.cls-2,.cls-25,.cls-26,.cls-27,.cls-28,.cls-29,.cls-3,.cls-30,.cls-39,.cls-4,.cls-40,.cls-47,.cls-48,.cls-49,.cls-5,.cls-50,.cls-58,.cls-6{font-size:38.61px;}.cls-2,.cls-25,.cls-26,.cls-27,.cls-28,.cls-29,.cls-3,.cls-30,.cls-39,.cls-4,.cls-40,.cls-47,.cls-48,.cls-49,.cls-5,.cls-50,.cls-58,.cls-6,.cls-79,.cls-80,.cls-81{font-family:Calibri;}.cls-2{letter-spacing:0.03em;}.cls-3{letter-spacing:0.01em;}.cls-4{letter-spacing:0.03em;}.cls-5{letter-spacing:0.03em;}.cls-6{letter-spacing:0.02em;}.cls-10,.cls-11,.cls-31,.cls-32,.cls-33,.cls-34,.cls-35,.cls-41,.cls-42,.cls-43,.cls-44,.cls-51,.cls-52,.cls-53,.cls-54,.cls-59,.cls-7,.cls-8,.cls-9{font-size:25.74px;}.cls-10,.cls-11,.cls-12,.cls-13,.cls-14,.cls-15,.cls-16,.cls-17,.cls-18,.cls-19,.cls-20,.cls-21,.cls-22,.cls-23,.cls-24,.cls-31,.cls-32,.cls-33,.cls-34,.cls-35,.cls-36,.cls-37,.cls-38,.cls-41,.cls-42,.cls-43,.cls-44,.cls-45,.cls-51,.cls-52,.cls-53,.cls-54,.cls-55,.cls-56,.cls-59,.cls-60,.cls-7,.cls-8,.cls-9{font-family:Calibri-Bold, Calibri;font-weight:700;}.cls-7{letter-spacing:0.03em;}.cls-9{letter-spacing:0.04em;}.cls-10{letter-spacing:0.03em;}.cls-11{letter-spacing:0.04em;}.cls-12,.cls-13,.cls-14,.cls-15,.cls-16,.cls-17,.cls-18,.cls-19,.cls-20,.cls-21,.cls-22,.cls-23,.cls-24,.cls-36,.cls-37,.cls-38,.cls-45,.cls-55,.cls-56,.cls-60{font-size:20px;}.cls-12{letter-spacing:0.04em;}.cls-13{letter-spacing:0.04em;}.cls-14{letter-spacing:0.02em;}.cls-15{letter-spacing:0.03em;}.cls-16{letter-spacing:0.02em;}.cls-17{letter-spacing:0.04em;}.cls-18{letter-spacing:0.02em;}.cls-19{letter-spacing:0.04em;}.cls-20{letter-spacing:0.06em;}.cls-21{letter-spacing:0.04em;}.cls-22{letter-spacing:0.02em;}.cls-23{letter-spacing:0.04em;}.cls-25{letter-spacing:0.02em;}.cls-26{letter-spacing:0.05em;}.cls-27{letter-spacing:0.02em;}.cls-28{letter-spacing:0.02em;}.cls-30{letter-spacing:0.02em;}.cls-31{letter-spacing:0.02em;}.cls-32{letter-spacing:0.04em;}.cls-33{letter-spacing:0.06em;}.cls-34{letter-spacing:0.02em;}.cls-35{letter-spacing:0.03em;}.cls-36{letter-spacing:-0.02em;}.cls-37{letter-spacing:0.07em;}.cls-38{letter-spacing:0.04em;}.cls-39,.cls-41{letter-spacing:0.03em;}.cls-40{letter-spacing:0.02em;}.cls-42{letter-spacing:0.05em;}.cls-43{letter-spacing:0.02em;}.cls-44{letter-spacing:0.03em;}.cls-45{letter-spacing:-0.02em;}.cls-46{fill:#79a777;}.cls-47{letter-spacing:0.03em;}.cls-48{letter-spacing:0.06em;}.cls-49{letter-spacing:0.04em;}.cls-50{letter-spacing:0.01em;}.cls-51{letter-spacing:0.03em;}.cls-52{letter-spacing:0.06em;}.cls-53{letter-spacing:0.05em;}.cls-54{letter-spacing:0.03em;}.cls-55{letter-spacing:0.03em;}.cls-56{letter-spacing:0.04em;}.cls-57{fill:#e89329;}.cls-58{letter-spacing:0.03em;}.cls-59{letter-spacing:0.03em;}.cls-60{letter-spacing:0.03em;}.cls-61{fill:#759ea6;}.cls-62{clip-path:url(#clip-path);}.cls-63,.cls-64,.cls-65,.cls-66,.cls-67,.cls-68,.cls-69{stroke:#939598;}.cls-63,.cls-64,.cls-65,.cls-66,.cls-67,.cls-68,.cls-69,.cls-72,.cls-73,.cls-74,.cls-75,.cls-76,.cls-77{stroke-linecap:round;stroke-linejoin:round;}.cls-63,.cls-64{stroke-width:7.8px;}.cls-63{stroke-dasharray:0 15.81;}.cls-65,.cls-66,.cls-69{stroke-width:4.68px;}.cls-65,.cls-67{stroke-dasharray:0 9.3;}.cls-67,.cls-68{stroke-width:4.68px;}.cls-69{stroke-dasharray:0 9.32;}.cls-70{fill:#939598;}.cls-71{fill:#6d6e71;}.cls-72,.cls-73,.cls-74,.cls-75,.cls-76,.cls-77{stroke:#000;stroke-width:7px;}.cls-72{stroke-dasharray:0 13.8;}.cls-74{stroke-dasharray:0 13.99;}.cls-75{stroke-dasharray:0 13.72;}.cls-76{stroke-dasharray:0 13.88;}.cls-77{stroke-dasharray:0 13.74;}.cls-78{fill:#743947;}.cls-79,.cls-80,.cls-81{font-size:78.25px;fill:#fff;}.cls-79{letter-spacing:-0.09em;}.cls-80{letter-spacing:0em;}</style><clipPath id="clip-path" transform="translate(500 114)"><rect class="cls-1" x="-377" y="12" width="1366" height="768"/></clipPath></defs><title>Wagenrad_Applicants-mit_Namen</title><text class="cls-2" transform="translate(788.76 191.17)">VE</text><text class="cls-3" transform="translate(830.98 191.17)">RW</text><text class="cls-4" transform="translate(886.24 191.17)">AL</text><text class="cls-5" transform="translate(924.78 191.17)">TU</text><text class="cls-6" transform="translate(970.45 191.17)">NG</text><text class="cls-7" transform="translate(788.5 229.79)">PROF</text><text class="cls-8" transform="translate(846.57 229.79)">. </text><text class="cls-9" transform="translate(859.77 229.79)">DR</text><text class="cls-8" transform="translate(892.11 229.79)">. </text><text class="cls-10" transform="translate(905.3 229.79)">ERHARD HINRIC</text><text class="cls-11" transform="translate(1086.34 229.79)">HS</text><text class="cls-8" transform="translate(1116.27 229.79)"> </text><text class="cls-12" transform="translate(788.39 259.78)">LEIBNI</text><path d="M355,144c-.06-.16-.16-.24-.28-.24h-5.28l4.82-7.68c.12-.16.2-.32.28-.44s.12-.26.16-.38a1.21,1.21,0,0,0,.1-.36,3.24,3.24,0,0,0,0-.46v-.48a.79.79,0,0,0-.2-.58.73.73,0,0,0-.58-.2h-7a.59.59,0,0,0-.2,0,.44.44,0,0,0-.14.18,1.06,1.06,0,0,0-.08.32,3.7,3.7,0,0,0,0,.5,3.1,3.1,0,0,0,0,.46,1.06,1.06,0,0,0,.08.32c0,.08.08.14.14.16a.34.34,0,0,0,.2.06h4.86L347,143c-.12.18-.2.34-.28.46a3,3,0,0,0-.18.36,2.09,2.09,0,0,0-.08.34,1.94,1.94,0,0,0,0,.36v.42a1,1,0,0,0,.2.66.83.83,0,0,0,.62.22h7.44a.38.38,0,0,0,.16,0,.7.7,0,0,0,.12-.18,1.06,1.06,0,0,0,.08-.32,3.25,3.25,0,0,0,0-.48,2.42,2.42,0,0,0-.1-.8Zm5.74-5a1.08,1.08,0,0,0-.08-.3.7.7,0,0,0-.14-.18.71.71,0,0,0-.2,0h-4.08a.4.4,0,0,0-.36.22,2.36,2.36,0,0,0-.1.78,2.2,2.2,0,0,0,.1.78.38.38,0,0,0,.36.24h4.08a.39.39,0,0,0,.34-.22,2.42,2.42,0,0,0,.1-.8,3.54,3.54,0,0,0,0-.48Z" transform="translate(500 114)"/><text class="cls-13" transform="translate(861.83 259.78)">INSTITU</text><text class="cls-14" transform="translate(933.41 259.78)">T F</text><text class="cls-15" transform="translate(958.27 259.78)">ÜR</text><text class="cls-14" transform="translate(983.66 259.78)"><tspan xml:space="preserve"> D</tspan></text><text class="cls-16" transform="translate(1001.89 259.78)">EU</text><text class="cls-17" transform="translate(1025.95 259.78)">TSCH</text><text class="cls-18" transform="translate(1071.77 259.78)">E </text><text class="cls-19" transform="translate(1086.83 259.78)">SP</text><text class="cls-20" transform="translate(1108.2 259.78)">RA</text><text class="cls-21" transform="translate(1133.11 259.78)">CH</text><text class="cls-22" transform="translate(1157.88 259.78)">E,</text><text class="cls-14" transform="translate(1173.2 259.78)"><tspan xml:space="preserve"> M</tspan></text><text class="cls-23" transform="translate(1196.3 259.78)">ANNHEI</text><text class="cls-24" transform="translate(1266.69 259.78)">M</text><text class="cls-25" transform="translate(744.54 791.17)">INFR</text><text class="cls-26" transform="translate(822.14 791.17)">AS</text><text class="cls-5" transform="translate(865.68 791.17)">TR</text><text class="cls-27" transform="translate(907.15 791.17)">UK</text><text class="cls-5" transform="translate(955.02 791.17)">TU</text><text class="cls-28" transform="translate(1000.69 791.17)">R </text><text class="cls-29" transform="translate(1031.13 791.17)">/ </text><text class="cls-6" transform="translate(1055.53 791.17)">BE</text><text class="cls-5" transform="translate(1098.13 791.17)">TR</text><text class="cls-30" transform="translate(1139.89 791.17)">IE</text><text class="cls-29" transform="translate(1169.67 791.17)">B</text><text class="cls-7" transform="translate(744.29 829.79)">PROF</text><text class="cls-8" transform="translate(802.36 829.79)">. </text><text class="cls-9" transform="translate(815.55 829.79)">DR</text><text class="cls-8" transform="translate(847.9 829.79)">. </text><text class="cls-31" transform="translate(861.1 829.79)">WO</text><text class="cls-32" transform="translate(903.19 829.79)">LF</text><text class="cls-33" transform="translate(927.45 829.79)">RA</text><text class="cls-34" transform="translate(959.86 829.79)">M H</text><text class="cls-35" transform="translate(1006.36 829.79)">ORSTMANN</text><text class="cls-23" transform="translate(744.18 859.78)">UNIVERSI</text><text class="cls-36" transform="translate(829.24 859.78)">TÄ</text><text class="cls-14" transform="translate(850.38 859.78)">T </text><text class="cls-15" transform="translate(865.58 859.78)">GÖ</text><text class="cls-37" transform="translate(893.13 859.78)">TT</text><text class="cls-38" transform="translate(915.13 859.78)">INGE</text><text class="cls-24" transform="translate(958.92 859.78)">N</text><text class="cls-39" transform="translate(881.01 341.17)">SA</text><text class="cls-40" transform="translate(923.51 341.17)">MMLUNGE</text><text class="cls-29" transform="translate(1103.71 341.17)">N</text><text class="cls-9" transform="translate(880.77 379.79)">DR</text><text class="cls-8" transform="translate(913.11 379.79)">. </text><text class="cls-41" transform="translate(926.3 379.79)">ELISAB</text><text class="cls-42" transform="translate(1004.18 379.79)">ET</text><text class="cls-43" transform="translate(1031.67 379.79)">H </text><text class="cls-44" transform="translate(1054.73 379.79)">NIGGEMAN</text><text class="cls-8" transform="translate(1185.8 379.79)">N</text><text class="cls-38" transform="translate(880.65 409.78)">DE</text><text class="cls-13" transform="translate(904.2 409.78)">UTSCHE</text><text class="cls-14" transform="translate(974 409.78)"><tspan xml:space="preserve"> N</tspan></text><text class="cls-45" transform="translate(992.78 409.78)">AT</text><text class="cls-38" transform="translate(1015.13 409.78)">IONALBIBLIOTHE</text><text class="cls-24" transform="translate(1165.11 409.78)">K</text><path class="cls-46" d="M650.5,230.39a16.09,16.09,0,1,0-16.08-16.09,16.09,16.09,0,0,0,16.08,16.09Z" transform="translate(500 114)"/><text class="cls-47" transform="translate(894.74 491.17)">LEXI</text><text class="cls-48" transform="translate(964.2 491.17)">KA</text><text class="cls-39" transform="translate(1010.01 491.17)">LISC</text><text class="cls-28" transform="translate(1078.99 491.17)">HE RE</text><text class="cls-49" transform="translate(1174.83 491.17)">SS</text><text class="cls-25" transform="translate(1213.09 491.17)">OURC</text><text class="cls-50" transform="translate(1308.27 491.17)">EN</text><text class="cls-51" transform="translate(894.49 529.79)">PD DR.</text><text class="cls-34" transform="translate(971.09 529.79)"><tspan xml:space="preserve"> A</tspan></text><text class="cls-32" transform="translate(993.88 529.79)">LE</text><text class="cls-52" transform="translate(1019.38 529.79)">XA</text><text class="cls-44" transform="translate(1051.55 529.79)">NDER</text><text class="cls-34" transform="translate(1114.81 529.79)"><tspan xml:space="preserve"> G</tspan></text><text class="cls-53" transform="translate(1138.43 529.79)">EY</text><text class="cls-54" transform="translate(1166.45 529.79)">KE</text><text class="cls-8" transform="translate(1194.68 529.79)">N</text><path d="M404.7,440.82a2.87,2.87,0,0,0-.52-.9,3.52,3.52,0,0,0-.8-.64,3.93,3.93,0,0,0-1-.34,3,3,0,0,0,.76-.4,3,3,0,0,0,.54-.58,2.49,2.49,0,0,0,.34-.74,3.08,3.08,0,0,0,.12-.86,3.19,3.19,0,0,0-.3-1.44,2.38,2.38,0,0,0-.84-1,3.73,3.73,0,0,0-1.34-.58,8.05,8.05,0,0,0-2-.2h-3.16a.72.72,0,0,0-.54.2.77.77,0,0,0-.22.62v11a.77.77,0,0,0,.22.62.72.72,0,0,0,.54.2h3.36a9.72,9.72,0,0,0,1.38-.1,7,7,0,0,0,1.16-.28,5.19,5.19,0,0,0,1-.5,3.34,3.34,0,0,0,.78-.72,3.06,3.06,0,0,0,.52-1,3.82,3.82,0,0,0,.18-1.22,3.07,3.07,0,0,0-.2-1.16Zm-3.22-3.52a1.25,1.25,0,0,1-.34.54,1.29,1.29,0,0,1-.54.36,2.19,2.19,0,0,1-.88.14h-1.44v-3.28h1.3a3.85,3.85,0,0,1,.94.1,1.71,1.71,0,0,1,.6.32,1.3,1.3,0,0,1,.34.5,1.79,1.79,0,0,1,.12.68,2.25,2.25,0,0,1-.1.64Zm.6,5.52a1.65,1.65,0,0,1-.42.56,1.52,1.52,0,0,1-.62.32,2.88,2.88,0,0,1-.9.12h-1.86v-3.6h1.52a4.41,4.41,0,0,1,1.14.12,2.42,2.42,0,0,1,.72.36,1.47,1.47,0,0,1,.44.6,1.87,1.87,0,0,1,.14.78,1.75,1.75,0,0,1-.16.74Zm13,1.48A1.06,1.06,0,0,0,415,444a.26.26,0,0,0-.12-.16.23.23,0,0,0-.16-.06H410.2V440.2H414a.38.38,0,0,0,.16,0,.48.48,0,0,0,.12-.16,1.08,1.08,0,0,0,.08-.3,3.4,3.4,0,0,0,0-.48,3.1,3.1,0,0,0,0-.46,1.08,1.08,0,0,0-.08-.3.26.26,0,0,0-.12-.16.23.23,0,0,0-.16-.06h-3.8v-3.08h4.5a.23.23,0,0,0,.16-.06.21.21,0,0,0,.12-.16,1.06,1.06,0,0,0,.08-.32,3.1,3.1,0,0,0,0-.46,3.25,3.25,0,0,0,0-.48,1.06,1.06,0,0,0-.08-.32.41.41,0,0,0-.12-.18.38.38,0,0,0-.16,0h-6.3a.72.72,0,0,0-.54.2.77.77,0,0,0-.22.62v11a.77.77,0,0,0,.22.62.72.72,0,0,0,.54.2h6.34a.23.23,0,0,0,.16-.06.26.26,0,0,0,.12-.16,1.06,1.06,0,0,0,.08-.32,3.25,3.25,0,0,0,0-.48,3.1,3.1,0,0,0,0-.46Zm12.3.88c0-.12-.1-.3-.2-.54l-1.08-2.5a6,6,0,0,0-.38-.8,3,3,0,0,0-.42-.64,2.64,2.64,0,0,0-.46-.48,3.55,3.55,0,0,0-.54-.34,4.28,4.28,0,0,0,1.06-.48,2.9,2.9,0,0,0,.76-.72,2.53,2.53,0,0,0,.48-.92,4.28,4.28,0,0,0,.16-1.16,3.8,3.8,0,0,0-.22-1.32,3,3,0,0,0-.66-1,3.37,3.37,0,0,0-1-.68,5.82,5.82,0,0,0-1.38-.38l-.58,0c-.22,0-.5,0-.82,0h-3.28a.72.72,0,0,0-.54.2.77.77,0,0,0-.22.62v11.46a.24.24,0,0,0,.06.18.4.4,0,0,0,.2.14c.1,0,.24.06.4.08l.62,0,.62,0a3,3,0,0,0,.38-.08.47.47,0,0,0,.22-.14.24.24,0,0,0,.06-.18V440.6h.8a1.94,1.94,0,0,1,.72.12,1.85,1.85,0,0,1,.56.38,3.78,3.78,0,0,1,.44.62c.14.26.26.54.4.86l1.14,2.82a.47.47,0,0,0,.1.2.31.31,0,0,0,.2.14,1.56,1.56,0,0,0,.38.08,6,6,0,0,0,.66,0c.32,0,.58,0,.76,0l.44-.06c.1,0,.16-.08.18-.14a.4.4,0,0,0,0-.18,2.1,2.1,0,0,0,0-.26ZM424,437.6a1.44,1.44,0,0,1-.4.58,1.78,1.78,0,0,1-.7.36,2.66,2.66,0,0,1-.94.14h-1.32V435.1h1.16a6.45,6.45,0,0,1,.68,0l.44.08a1.54,1.54,0,0,1,.94.62,1.87,1.87,0,0,1,.28,1,1.75,1.75,0,0,1-.14.74Zm12.92,6.62a1.42,1.42,0,0,0-.08-.34.26.26,0,0,0-.12-.16.24.24,0,0,0-.18-.06h-4V433.5a.24.24,0,0,0-.06-.18.47.47,0,0,0-.22-.14c-.1,0-.22-.06-.38-.08a5.64,5.64,0,0,0-.62,0,6,6,0,0,0-.64,0c-.16,0-.28.06-.38.08a.47.47,0,0,0-.22.14.24.24,0,0,0-.06.18V445a.77.77,0,0,0,.22.62.72.72,0,0,0,.54.2h5.78a.24.24,0,0,0,.18-.06.7.7,0,0,0,.12-.18,1.42,1.42,0,0,0,.08-.34,3.7,3.7,0,0,0,0-.5,3.25,3.25,0,0,0,0-.48Zm4.78-10.72a.24.24,0,0,0-.06-.18.47.47,0,0,0-.22-.14c-.1,0-.22-.06-.38-.08a5.64,5.64,0,0,0-.62,0,5.45,5.45,0,0,0-.62,0c-.16,0-.3.06-.4.08a.47.47,0,0,0-.22.14.24.24,0,0,0-.06.18v11.92a.24.24,0,0,0,.06.18.47.47,0,0,0,.22.14c.1,0,.22.06.38.08l.64,0,.62,0c.16,0,.28-.06.38-.08a.47.47,0,0,0,.22-.14.24.24,0,0,0,.06-.18Zm13.84,0a.58.58,0,0,0,0-.18.7.7,0,0,0-.18-.14,1.21,1.21,0,0,0-.34-.08,8.13,8.13,0,0,0-1.14,0,1.21,1.21,0,0,0-.36.08.57.57,0,0,0-.2.14.32.32,0,0,0-.06.18v5.94c0,.44,0,.92,0,1.42s0,1,0,1.42h0a6.78,6.78,0,0,0-.36-.78c-.12-.26-.24-.52-.38-.8s-.26-.54-.4-.82-.28-.54-.42-.82l-2.46-4.62a4.57,4.57,0,0,0-.36-.64,1.47,1.47,0,0,0-.38-.4,1.14,1.14,0,0,0-.44-.22,2.9,2.9,0,0,0-.64-.06H446a1,1,0,0,0-.66.22.89.89,0,0,0-.26.7v11.36a.58.58,0,0,0,0,.18.41.41,0,0,0,.18.12,1.31,1.31,0,0,0,.36.1l.56,0,.58,0a1.13,1.13,0,0,0,.36-.1.32.32,0,0,0,.18-.12.32.32,0,0,0,.06-.18V438.8c0-.5,0-1,0-1.44l-.06-1.4h0c.14.38.32.78.5,1.18s.38.8.56,1.14l3.14,5.92a9,9,0,0,0,.44.8,2,2,0,0,0,.4.48,1.51,1.51,0,0,0,.46.26,2.64,2.64,0,0,0,.6.06h1.1a1.13,1.13,0,0,0,.36-.06.69.69,0,0,0,.32-.16,1.12,1.12,0,0,0,.2-.3.84.84,0,0,0,.08-.4ZM463.1,439a1.08,1.08,0,0,0-.08-.3.7.7,0,0,0-.14-.18.71.71,0,0,0-.2,0H458.6a.4.4,0,0,0-.36.22,2.36,2.36,0,0,0-.1.78,2.2,2.2,0,0,0,.1.78.38.38,0,0,0,.36.24h4.08a.39.39,0,0,0,.34-.22,2.42,2.42,0,0,0,.1-.8,3.54,3.54,0,0,0,0-.48Zm11.56,1.84a2.87,2.87,0,0,0-.52-.9,3.52,3.52,0,0,0-.8-.64,3.93,3.93,0,0,0-1-.34,3,3,0,0,0,.76-.4,3,3,0,0,0,.54-.58,2.49,2.49,0,0,0,.34-.74,3.08,3.08,0,0,0,.12-.86,3.19,3.19,0,0,0-.3-1.44,2.38,2.38,0,0,0-.84-1,3.73,3.73,0,0,0-1.34-.58,8.05,8.05,0,0,0-2-.2h-3.16a.72.72,0,0,0-.54.2.77.77,0,0,0-.22.62v11a.77.77,0,0,0,.22.62.72.72,0,0,0,.54.2h3.36a9.72,9.72,0,0,0,1.38-.1,7,7,0,0,0,1.16-.28,5.19,5.19,0,0,0,1-.5,3.34,3.34,0,0,0,.78-.72,3.06,3.06,0,0,0,.52-1,3.82,3.82,0,0,0,.18-1.22,3.07,3.07,0,0,0-.2-1.16Zm-3.22-3.52a1.25,1.25,0,0,1-.34.54,1.29,1.29,0,0,1-.54.36,2.19,2.19,0,0,1-.88.14h-1.44v-3.28h1.3a3.85,3.85,0,0,1,.94.1,1.71,1.71,0,0,1,.6.32,1.3,1.3,0,0,1,.34.5,1.79,1.79,0,0,1,.12.68,2.25,2.25,0,0,1-.1.64Zm.6,5.52a1.65,1.65,0,0,1-.42.56,1.52,1.52,0,0,1-.62.32,2.88,2.88,0,0,1-.9.12h-1.86v-3.6h1.52a4.41,4.41,0,0,1,1.14.12,2.42,2.42,0,0,1,.72.36,1.47,1.47,0,0,1,.44.6,1.87,1.87,0,0,1,.14.78,1.75,1.75,0,0,1-.16.74Z" transform="translate(500 114)"/><text class="cls-20" transform="translate(976.2 559.78)">RA</text><text class="cls-23" transform="translate(1001.43 559.78)">NDENBURGISCH</text><text class="cls-18" transform="translate(1144.89 559.78)">E </text><text class="cls-38" transform="translate(1159.95 559.78)">AK</text><text class="cls-15" transform="translate(1184.95 559.78)">ADEMIE</text><text class="cls-14" transform="translate(1255.88 559.78)"><tspan xml:space="preserve"> D</tspan></text><text class="cls-55" transform="translate(1274.13 559.78)">ER</text><text class="cls-14" transform="translate(1296.16 559.78)"><tspan xml:space="preserve"> W</tspan></text><text class="cls-56" transform="translate(1319.81 559.78)">ISSENSCHAF</text><text class="cls-56" transform="translate(1428.95 559.78)">TE</text><text class="cls-24" transform="translate(1450.03 559.78)">N</text><path class="cls-57" d="M876.09,382.09A16.09,16.09,0,1,0,860,366a16.1,16.1,0,0,0,16.09,16.09Z" transform="translate(500 114)"/><text class="cls-50" transform="translate(854.88 641.17)">ED</text><text class="cls-58" transform="translate(898.88 641.17)">ITIO</text><text class="cls-40" transform="translate(967.31 641.17)">NE</text><text class="cls-25" transform="translate(1012.3 641.17)">N </text><text class="cls-59" transform="translate(854.63 679.79)">PROF</text><text class="cls-8" transform="translate(912.7 679.79)">. </text><text class="cls-9" transform="translate(925.89 679.79)">DR</text><text class="cls-8" transform="translate(958.24 679.79)">. </text><text class="cls-35" transform="translate(971.44 679.79)">ANDR</text><text class="cls-53" transform="translate(1038.16 679.79)">EA</text><text class="cls-34" transform="translate(1068 679.79)"><tspan xml:space="preserve"> R</tspan></text><text class="cls-41" transform="translate(1090.25 679.79)">AP</text><text class="cls-8" transform="translate(1121.06 679.79)">P</text><text class="cls-56" transform="translate(854.52 709.78)">TE</text><text class="cls-56" transform="translate(875.37 709.78)">CHNISCHE</text><text class="cls-14" transform="translate(965.32 709.78)"><tspan xml:space="preserve"> U</tspan></text><text class="cls-56" transform="translate(983.98 709.78)">NIVERSIT</text><text class="cls-24" transform="translate(1064.76 709.78)">Ä</text><text class="cls-14" transform="translate(1076.43 709.78)">T D</text><text class="cls-56" transform="translate(1104.59 709.78)">ARMS</text><text class="cls-36" transform="translate(1157.9 709.78)">TA</text><text class="cls-60" transform="translate(1180.18 709.78)">DT</text><path class="cls-61" d="M562.09,530.39A16.09,16.09,0,1,0,546,514.3a16.09,16.09,0,0,0,16.09,16.09Z" transform="translate(500 114)"/><g class="cls-62"><path class="cls-63" d="M-139.32,538.94c151.23-8.07,271.9-131.27,276-283.53m-.32-23.71C128.25,80.47,5.05-40.2-147.22-44.25m-23.7.32c-151.23,8.07-271.9,131.26-276,283.53m.31,23.71C-438.49,414.54-315.29,535.2-163,539.25" transform="translate(500 114)"/><path class="cls-64" d="M136.73,247.5h0M-155.12-44.35h0M-447,247.5h0m291.86,291.86h0" transform="translate(500 114)"/></g><line class="cls-65" x1="538.76" y1="280.28" x2="149.45" y2="445.63"/><path class="cls-66" d="M47.32,162.64h0m-402.15,170.8h0" transform="translate(500 114)"/><line class="cls-67" x1="368.92" y1="154.43" x2="317.46" y2="574.26"/><path class="cls-68" d="M-129.95,31.21h0m-53.16,433.67h0" transform="translate(500 114)"/><line class="cls-69" x1="181.16" y1="224.02" x2="479.65" y2="454.79"/><path class="cls-66" d="M-326.21,104.32h0M-16.67,343.64h0" transform="translate(500 114)"/><g class="cls-62"><path class="cls-70" d="M-199.6,609A73.54,73.54,0,0,0-126,535.46a73.55,73.55,0,0,0-73.55-73.55,73.55,73.55,0,0,0-73.55,73.55A73.54,73.54,0,0,0-199.6,609Z" transform="translate(500 114)"/><path class="cls-70" d="M-426.45,417.18a73.53,73.53,0,0,0,73.54-73.54,73.54,73.54,0,0,0-73.54-73.55A73.55,73.55,0,0,0-500,343.64a73.54,73.54,0,0,0,73.55,73.54Z" transform="translate(500 114)"/><path class="cls-70" d="M-377.33,132.76a73.55,73.55,0,0,0,73.55-73.55,73.54,73.54,0,0,0-73.55-73.54,73.54,73.54,0,0,0-73.55,73.54,73.55,73.55,0,0,0,73.55,73.55Z" transform="translate(500 114)"/><path class="cls-70" d="M-126,33.09A73.53,73.53,0,0,0-52.51-40.45,73.54,73.54,0,0,0-126-114,73.55,73.55,0,0,0-199.6-40.45,73.54,73.54,0,0,0-126,33.09Z" transform="translate(500 114)"/></g><path class="cls-70" d="M107,193.93a73.55,73.55,0,1,0-73.54-73.55A73.55,73.55,0,0,0,107,193.93Z" transform="translate(500 114)"/><path class="cls-71" d="M-228.67,247.18a73.55,73.55,0,0,0,73.55,73.55,73.55,73.55,0,0,0,73.55-73.55" transform="translate(500 114)"/><path class="cls-71" d="M-81.57,247.82a73.55,73.55,0,0,0-73.55-73.55,73.55,73.55,0,0,0-73.55,73.55" transform="translate(500 114)"/><line class="cls-72" x1="773.55" y1="197.42" x2="589.47" y2="513.4"/><path class="cls-73" d="M280.5,71.5h0M86,405.36h0" transform="translate(500 114)"/><line class="cls-74" x1="858.96" y1="345.41" x2="587.77" y2="531.4"/><path class="cls-73" d="M370.5,223.5h0M82,421.36h0" transform="translate(500 114)"/><line class="cls-75" x1="875" y1="485.93" x2="584.75" y2="538.15"/><path class="cls-73" d="M388.5,369.5h0M78,425.36h0" transform="translate(500 114)"/><line class="cls-76" x1="833.28" y1="619.29" x2="588.61" y2="541.47"/><path class="cls-73" d="M346.5,509.5h0M82,425.36h0" transform="translate(500 114)"/><line class="cls-77" x1="727.74" y1="747.38" x2="591.88" y2="549.03"/><path class="cls-73" d="M235.5,644.72h0M88,429.36h0" transform="translate(500 114)"/><path class="cls-78" d="M80.92,545.78A128.42,128.42,0,1,0-47.49,417.36,128.43,128.43,0,0,0,80.92,545.78Z" transform="translate(500 114)"/><text class="cls-79" transform="translate(496.8 560.7)">Te</text><text class="cls-80" transform="translate(565.73 560.7)">xt</text><text class="cls-81" transform="translate(626.06 560.7)">+</text></svg>