<svg id="Layer_1" data-name="Layer 1" xmlns="http://www.w3.org/2000/svg" xmlns:xlink="http://www.w3.org/1999/xlink" viewBox="0 0 595.13 598.11"><defs><style>.cls-1,.cls-10,.cls-28,.cls-29,.cls-30,.cls-31,.cls-32,.cls-33,.cls-34,.cls-35,.cls-36,.cls-37,.cls-38,.cls-39,.cls-4,.cls-40,.cls-41,.cls-42,.cls-43,.cls-44,.cls-45,.cls-46,.cls-47,.cls-5,.cls-6,.cls-68,.cls-69,.cls-7,.cls-70,.cls-71,.cls-8,.cls-9{fill:none;}.cls-2{clip-path:url(#clip-path);}.cls-3{fill:#f1f2f2;}.cls-4,.cls-5{stroke:#c7c8ca;stroke-width:5px;}.cls-10,.cls-4,.cls-5,.cls-6,.cls-7,.cls-8,.cls-9{stroke-linecap:round;stroke-linejoin:round;}.cls-4{stroke-dasharray:0 10.14;}.cls-10,.cls-6,.cls-7,.cls-8,.cls-9{stroke:#c3c5c5;}.cls-10,.cls-6,.cls-7{stroke-width:3px;}.cls-6,.cls-8{stroke-dasharray:0 5.96;}.cls-8,.cls-9{stroke-width:3px;}.cls-10{stroke-dasharray:0 5.97;}.cls-11{fill:#743947;}.cls-12,.cls-13,.cls-14{font-size:50.16px;}.cls-12,.cls-13,.cls-14,.cls-78,.cls-79,.cls-80,.cls-81,.cls-82,.cls-83,.cls-84,.cls-85,.cls-86,.cls-87{fill:#fff;}.cls-12,.cls-13,.cls-14,.cls-16,.cls-17,.cls-18,.cls-19,.cls-20,.cls-21,.cls-22,.cls-23,.cls-24,.cls-25,.cls-26,.cls-27,.cls-78,.cls-79,.cls-80,.cls-81,.cls-82,.cls-83,.cls-84,.cls-85,.cls-86,.cls-87{font-family:Calibri-Light, Calibri;font-weight:300;}.cls-12{letter-spacing:-0.09em;}.cls-13{letter-spacing:0em;}.cls-15{fill:#c3c5c5;}.cls-16{font-size:12px;}.cls-16,.cls-17,.cls-18,.cls-19,.cls-20,.cls-21,.cls-22,.cls-23,.cls-24,.cls-25,.cls-26,.cls-27,.cls-48,.cls-49,.cls-50,.cls-51,.cls-52,.cls-53,.cls-54,.cls-55,.cls-56,.cls-57,.cls-58,.cls-59,.cls-60,.cls-61,.cls-62,.cls-63,.cls-64,.cls-65,.cls-66,.cls-67,.cls-72,.cls-73,.cls-74,.cls-75{fill:#49332f;}.cls-17{font-size:12px;}.cls-18{font-size:12px;}.cls-19{font-size:12px;}.cls-20{font-size:12px;}.cls-21{font-size:12px;}.cls-22{font-size:12px;}.cls-23{font-size:12px;}.cls-24{font-size:12px;}.cls-25{font-size:12px;}.cls-26{font-size:12px;}.cls-27{font-size:12px;}.cls-28,.cls-48{font-size:15.8px;}.cls-28,.cls-29,.cls-30,.cls-31,.cls-32,.cls-33,.cls-34,.cls-35,.cls-36,.cls-37,.cls-38,.cls-39,.cls-40,.cls-41,.cls-42,.cls-43,.cls-44,.cls-45,.cls-46,.cls-47,.cls-68,.cls-69,.cls-70,.cls-71{stroke:#fff;stroke-width:2px;}.cls-28,.cls-29,.cls-30,.cls-31,.cls-32,.cls-33,.cls-34,.cls-35,.cls-36,.cls-37,.cls-38,.cls-39,.cls-40,.cls-41,.cls-42,.cls-43,.cls-44,.cls-45,.cls-47,.cls-48,.cls-49,.cls-50,.cls-51,.cls-52,.cls-53,.cls-54,.cls-55,.cls-56,.cls-57,.cls-58,.cls-59,.cls-60,.cls-61,.cls-62,.cls-63,.cls-64,.cls-65,.cls-67,.cls-68,.cls-69,.cls-70,.cls-71,.cls-72,.cls-73,.cls-74,.cls-75{font-family:Calibri;}.cls-29,.cls-49{font-size:15.8px;}.cls-30,.cls-50{font-size:15.8px;}.cls-31,.cls-51{font-size:15.8px;}.cls-32,.cls-52{font-size:15.8px;}.cls-33,.cls-53{font-size:15.8px;}.cls-34,.cls-54{font-size:15.8px;}.cls-35,.cls-55{font-size:15.8px;}.cls-36,.cls-56{font-size:15.8px;}.cls-37,.cls-57{font-size:15.8px;}.cls-38,.cls-58{font-size:15.8px;}.cls-39,.cls-59{font-size:15.8px;}.cls-40,.cls-60{font-size:15.8px;}.cls-41,.cls-61{font-size:15.8px;}.cls-42,.cls-62{font-size:15.8px;}.cls-43,.cls-63{font-size:15.8px;}.cls-44,.cls-64{font-size:15.8px;}.cls-45,.cls-65{font-size:15.8px;}.cls-47,.cls-67{font-size:15.8px;}.cls-68,.cls-72{font-size:15.8px;}.cls-69,.cls-73{font-size:15.8px;}.cls-70,.cls-74{font-size:15.8px;}.cls-71,.cls-75{font-size:15.8px;}.cls-76{fill:#c7c8ca;}.cls-77{fill:#9d9fa2;}.cls-78{font-size:16px;}.cls-79{font-size:16px;}.cls-80{font-size:16px;}.cls-81{font-size:16px;}.cls-82{font-size:16px;}.cls-83{font-size:16px;}.cls-84{font-size:16px;}.cls-85{font-size:16px;}.cls-86{font-size:16px;}.cls-87{font-size:16px;}</style><clipPath id="clip-path" transform="translate(-5.87 28.25)"><rect class="cls-1" x="8" y="-24" width="595.28" height="841.89"/></clipPath></defs><title>Wagenrad_ohne_gruen_englisch</title><g class="cls-2"><polygon class="cls-3" points="0 0 0 598.11 595.13 598.11 595.13 0 0 0 0 0"/></g><path class="cls-4" d="M275.21,442.39A187.1,187.1,0,0,0,452.1,260.64m-.21-15.19c-5.17-96.95-84.14-174.3-181.75-176.89m-15.19.2C158,73.93,80.65,152.9,78.06,250.51m.2,15.2C83.43,362.65,162.4,440,260,442.59" transform="translate(-5.87 28.25)"/><path class="cls-5" d="M452.16,255.58h0M265.08,68.49h0M78,255.58h0M265.08,442.66h0" transform="translate(-5.87 28.25)"/><line class="cls-6" x1="383.49" y1="231.76" x2="133.93" y2="337.75"/><path class="cls-7" d="M394.85,201.18h0M137.06,310.66h0" transform="translate(-5.87 28.25)"/><line class="cls-8" x1="274.61" y1="151.09" x2="241.62" y2="420.21"/><path class="cls-9" d="M281.21,116.92h0m-34.08,278h0" transform="translate(-5.87 28.25)"/><line class="cls-10" x1="154.25" y1="195.7" x2="345.59" y2="343.63"/><path class="cls-7" d="M155.4,163.79h0M353.83,317.2h0" transform="translate(-5.87 28.25)"/><path class="cls-11" d="M416.39,446.78a82.32,82.32,0,1,0-82.32-82.32,82.32,82.32,0,0,0,82.32,82.32Z" transform="translate(-5.87 28.25)"/><text class="cls-12" transform="translate(357.78 411.42)">Te</text><text class="cls-13" transform="translate(401.55 411.42)">xt</text><text class="cls-14" transform="translate(439.26 411.42)">+</text><path class="cls-15" d="M236.56,487.31a47.15,47.15,0,1,0-47.14-47.15,47.15,47.15,0,0,0,47.14,47.15Z" transform="translate(-5.87 28.25)"/><text class="cls-16" transform="matrix(0.66, -0.75, 0.75, 0.66, 200.94, 448.13)">N</text><text class="cls-17" transform="translate(205.42 443.01) rotate(-40.22)">F</text><text class="cls-18" transform="translate(208.84 439.94) rotate(-31.97)">D</text><text class="cls-19" transform="translate(214.33 436.58) rotate(-23.63)">I</text><text class="cls-20" transform="translate(217.05 435.35) rotate(-19.4)"> </text><text class="cls-21" transform="translate(219.05 434.39) rotate(-12.28)">C</text><text class="cls-22" transform="matrix(1, -0.06, 0.06, 1, 224.54, 433.01)">o</text><text class="cls-23" transform="translate(229.93 432.49) rotate(5.07)">n</text><text class="cls-21" transform="translate(235.49 432.88) rotate(12.28)">s</text><text class="cls-20" transform="translate(239.52 433.64) rotate(19.4)">o</text><text class="cls-24" transform="translate(244.68 435.4) rotate(27.82)">r</text><text class="cls-25" transform="matrix(0.84, 0.55, -0.55, 0.84, 248.49, 437.37)">t</text><text class="cls-26" transform="translate(251.54 439.35) rotate(38.85)">i</text><text class="cls-27" transform="matrix(0.72, 0.7, -0.7, 0.72, 253.44, 440.71)">u</text><text class="cls-17" transform="matrix(0.57, 0.82, -0.82, 0.57, 257.14, 443.87)">m</text><g class="cls-2"><text class="cls-28" transform="matrix(0.51, 0.86, -0.86, 0.51, 326.77, 440.81)">I</text><text class="cls-29" transform="matrix(0.57, 0.82, -0.82, 0.57, 329.38, 445.19)">n</text><text class="cls-30" transform="translate(335.02 453.03) rotate(49.78)">f</text><text class="cls-31" transform="matrix(0.68, 0.73, -0.73, 0.68, 338.63, 457.26)">r</text><text class="cls-32" transform="translate(343.15 462.12) rotate(41.58)">a</text><text class="cls-33" transform="matrix(0.79, 0.61, -0.61, 0.79, 349.65, 467.84)">s</text><text class="cls-34" transform="matrix(0.84, 0.55, -0.55, 0.84, 355.32, 472.14)">t</text><text class="cls-35" transform="translate(360.67 475.64) rotate(29.21)">r</text><text class="cls-36" transform="translate(366.42 478.9) rotate(25.03)">u</text><text class="cls-37" transform="translate(375.35 482.95) rotate(19.4)">c</text><text class="cls-38" transform="translate(382.73 485.5) rotate(15.14)">t</text><text class="cls-39" transform="translate(388.94 487.2) rotate(10.85)">u</text><text class="cls-33" transform="translate(398.25 488.82) rotate(6.52)">r</text><text class="cls-40" transform="translate(405.07 489.57) rotate(0.72)">e</text><text class="cls-41" transform="translate(413.7 489.62) rotate(-2.18)"> </text><text class="cls-33" transform="translate(418.42 489.43) rotate(-6.52)">/</text><text class="cls-42" transform="translate(425.24 488.62) rotate(-9.41)"> </text><text class="cls-43" transform="translate(429.92 487.9) rotate(-13.71)">O</text><text class="cls-37" transform="matrix(0.93, -0.36, 0.36, 0.93, 441.84, 484.71)">p</text><text class="cls-44" transform="matrix(0.9, -0.45, 0.45, 0.9, 450.96, 481.13)">e</text><text class="cls-28" transform="matrix(0.86, -0.51, 0.51, 0.86, 458.92, 477)">r</text><text class="cls-45" transform="matrix(0.81, -0.59, 0.59, 0.81, 464.65, 473.62)">a</text><path class="cls-46" d="M474.9,432.8l-1.09-1.23-.09-.06h-.13l-.18.1a2.7,2.7,0,0,0-.25.2L473,432l-.13.17a.31.31,0,0,0,0,.13.12.12,0,0,0,.05.1l1.09,1.23-.73.64a.33.33,0,0,0-.06.1s0,.07,0,.13l.07.15a1.27,1.27,0,0,0,.16.2.72.72,0,0,0,.31.25.19.19,0,0,0,.22,0l.74-.65,2.68,3a3.8,3.8,0,0,0,.78.71,1.6,1.6,0,0,0,.76.31,1.46,1.46,0,0,0,.76-.1,2.57,2.57,0,0,0,.79-.51l.25-.24a3.42,3.42,0,0,1,.22-.28,1.57,1.57,0,0,0,.14-.25.42.42,0,0,0,.06-.21.3.3,0,0,0-.06-.21,1.52,1.52,0,0,0-.21-.29.62.62,0,0,0-.17-.16s-.08-.08-.12-.09a.1.1,0,0,0-.09,0,.06.06,0,0,0-.06,0,.35.35,0,0,0-.08.13.85.85,0,0,1-.1.18c0,.06-.09.14-.12.21a2.4,2.4,0,0,1-.22.24.83.83,0,0,1-.82.24,2.32,2.32,0,0,1-.88-.68l-2.55-2.89,2.68-2.38,4,4.56a.18.18,0,0,0,.08.05.19.19,0,0,0,.14,0l.17-.09a1.66,1.66,0,0,0,.25-.2,1.39,1.39,0,0,0,.21-.21.66.66,0,0,0,.11-.16.14.14,0,0,0,0-.13.18.18,0,0,0,0-.09l-4.46-5a.44.44,0,0,0-.26-.17.39.39,0,0,0-.31.12Zm1.8-5.26a.88.88,0,0,0-.57.29.89.89,0,0,0-.35.52.88.88,0,0,0,.27.58.86.86,0,0,0,.53.33.88.88,0,0,0,.57-.29.92.92,0,0,0,.36-.52.9.9,0,0,0-.28-.58.86.86,0,0,0-.53-.33Z" transform="translate(-5.87 28.25)"/><text class="cls-31" transform="matrix(0.73, -0.68, 0.68, 0.73, 475.41, 465.23)"> </text><text class="cls-31" transform="matrix(0.68, -0.73, 0.73, 0.68, 479.44, 461.5)">o</text><text class="cls-33" transform="matrix(0.61, -0.79, 0.79, 0.61, 486.02, 454.26)">n</text><text class="cls-47" transform="translate(491.84 446.41) rotate(-58.03)">s</text></g><text class="cls-48" transform="matrix(0.51, 0.86, -0.86, 0.51, 326.77, 440.81)">I</text><text class="cls-49" transform="matrix(0.57, 0.82, -0.82, 0.57, 329.38, 445.19)">n</text><text class="cls-50" transform="translate(335.02 453.03) rotate(49.78)">f</text><text class="cls-51" transform="matrix(0.68, 0.73, -0.73, 0.68, 338.63, 457.26)">r</text><text class="cls-52" transform="translate(343.15 462.12) rotate(41.58)">a</text><text class="cls-53" transform="matrix(0.79, 0.61, -0.61, 0.79, 349.65, 467.84)">s</text><text class="cls-54" transform="matrix(0.84, 0.55, -0.55, 0.84, 355.32, 472.14)">t</text><text class="cls-55" transform="translate(360.67 475.64) rotate(29.21)">r</text><text class="cls-56" transform="translate(366.42 478.9) rotate(25.03)">u</text><text class="cls-57" transform="translate(375.35 482.95) rotate(19.4)">c</text><text class="cls-58" transform="translate(382.73 485.5) rotate(15.14)">t</text><text class="cls-59" transform="translate(388.94 487.2) rotate(10.85)">u</text><text class="cls-53" transform="translate(398.25 488.82) rotate(6.52)">r</text><text class="cls-60" transform="translate(405.07 489.57) rotate(0.72)">e</text><text class="cls-61" transform="translate(413.7 489.62) rotate(-2.18)"> </text><text class="cls-53" transform="translate(418.42 489.43) rotate(-6.52)">/</text><text class="cls-62" transform="translate(425.24 488.62) rotate(-9.41)"> </text><text class="cls-63" transform="translate(429.92 487.9) rotate(-13.71)">O</text><text class="cls-57" transform="matrix(0.93, -0.36, 0.36, 0.93, 441.84, 484.71)">p</text><text class="cls-64" transform="matrix(0.9, -0.45, 0.45, 0.9, 450.96, 481.13)">e</text><text class="cls-48" transform="matrix(0.86, -0.51, 0.51, 0.86, 458.92, 477)">r</text><text class="cls-65" transform="matrix(0.81, -0.59, 0.59, 0.81, 464.65, 473.62)">a</text><path class="cls-66" d="M474.9,432.8l-1.09-1.23-.09-.06h-.13l-.18.1a2.7,2.7,0,0,0-.25.2L473,432l-.13.17a.31.31,0,0,0,0,.13.12.12,0,0,0,.05.1l1.09,1.23-.73.64a.33.33,0,0,0-.06.1s0,.07,0,.13l.07.15a1.27,1.27,0,0,0,.16.2.72.72,0,0,0,.31.25.19.19,0,0,0,.22,0l.74-.65,2.68,3a3.8,3.8,0,0,0,.78.71,1.6,1.6,0,0,0,.76.31,1.46,1.46,0,0,0,.76-.1,2.57,2.57,0,0,0,.79-.51l.25-.24a3.42,3.42,0,0,1,.22-.28,1.57,1.57,0,0,0,.14-.25.42.42,0,0,0,.06-.21.3.3,0,0,0-.06-.21,1.52,1.52,0,0,0-.21-.29.62.62,0,0,0-.17-.16s-.08-.08-.12-.09a.1.1,0,0,0-.09,0,.06.06,0,0,0-.06,0,.35.35,0,0,0-.08.13.85.85,0,0,1-.1.18c0,.06-.09.14-.12.21a2.4,2.4,0,0,1-.22.24.83.83,0,0,1-.82.24,2.32,2.32,0,0,1-.88-.68l-2.55-2.89,2.68-2.38,4,4.56a.18.18,0,0,0,.08.05.19.19,0,0,0,.14,0l.17-.09a1.66,1.66,0,0,0,.25-.2,1.39,1.39,0,0,0,.21-.21.66.66,0,0,0,.11-.16.14.14,0,0,0,0-.13.18.18,0,0,0,0-.09l-4.46-5a.44.44,0,0,0-.26-.17.39.39,0,0,0-.31.12Zm1.8-5.26a.88.88,0,0,0-.57.29.89.89,0,0,0-.35.52.88.88,0,0,0,.27.58.86.86,0,0,0,.53.33.88.88,0,0,0,.57-.29.92.92,0,0,0,.36-.52.9.9,0,0,0-.28-.58.86.86,0,0,0-.53-.33Z" transform="translate(-5.87 28.25)"/><text class="cls-51" transform="matrix(0.73, -0.68, 0.68, 0.73, 475.41, 465.23)"> </text><text class="cls-51" transform="matrix(0.68, -0.73, 0.73, 0.68, 479.44, 461.5)">o</text><text class="cls-53" transform="matrix(0.61, -0.79, 0.79, 0.61, 486.02, 454.26)">n</text><text class="cls-67" transform="translate(491.84 446.41) rotate(-58.03)">s</text><g class="cls-2"><text class="cls-68" transform="translate(324.21 391.83) rotate(-86.37)">C</text><text class="cls-42" transform="translate(324.76 382.94) rotate(-80.59)">o</text><text class="cls-43" transform="translate(326.25 374.37) rotate(-76.29)">l</text><text class="cls-38" transform="translate(327.13 370.72) rotate(-74.86)">l</text><text class="cls-37" transform="translate(328.16 366.86) rotate(-70.6)">e</text><text class="cls-36" transform="translate(331.02 359.04) rotate(-64.97)">c</text><path class="cls-46" d="M335,318.17l-1.41-.84-.11,0a.34.34,0,0,0-.12,0l-.15.16a1.3,1.3,0,0,0-.17.26,2.38,2.38,0,0,0-.14.27,1.36,1.36,0,0,0-.06.2.22.22,0,0,0,0,.12s0,.06.08.08l1.41.84-.49.83a.15.15,0,0,0,0,.11.21.21,0,0,0,0,.13l.12.12a.86.86,0,0,0,.2.14.85.85,0,0,0,.38.15.21.21,0,0,0,.2-.1l.5-.84,3.48,2.06a4.49,4.49,0,0,0,.95.43,1.73,1.73,0,0,0,.83.07,1.52,1.52,0,0,0,.69-.33,2.65,2.65,0,0,0,.59-.73L342,321c.05-.11.08-.23.12-.33a1,1,0,0,0,.05-.28.42.42,0,0,0,0-.22A.41.41,0,0,0,342,320a1.36,1.36,0,0,0-.29-.21.85.85,0,0,0-.21-.11,1,1,0,0,0-.14,0s-.07,0-.08,0l-.06,0a.19.19,0,0,0,0,.15.9.9,0,0,1-.05.19,1.38,1.38,0,0,1-.05.25,1.75,1.75,0,0,1-.13.28.84.84,0,0,1-.71.49,2.25,2.25,0,0,1-1-.38l-3.32-2,1.83-3.09,5.23,3.09a.22.22,0,0,0,.1,0,.15.15,0,0,0,.12-.06l.14-.14a2.73,2.73,0,0,0,.18-.26,1.62,1.62,0,0,0,.13-.27,1,1,0,0,0,.06-.19.14.14,0,0,0,0-.13.25.25,0,0,0-.07-.08l-5.79-3.42a.5.5,0,0,0-.3-.09.4.4,0,0,0-.25.22Zm.1-5.56c-.16,0-.3.19-.45.45a.84.84,0,0,0-.18.61.85.85,0,0,0,.44.46.84.84,0,0,0,.61.16c.15,0,.29-.19.45-.45a.65.65,0,0,0-.27-1.08.81.81,0,0,0-.6-.15Z" transform="translate(-5.87 28.25)"/><text class="cls-47" transform="translate(336.29 348.63) rotate(-58.03)"> </text><text class="cls-45" transform="matrix(0.59, -0.81, 0.81, 0.59, 338.77, 344.58)">o</text><text class="cls-32" transform="translate(344.02 337.52) rotate(-48.42)">n</text><text class="cls-31" transform="matrix(0.73, -0.68, 0.68, 0.73, 349.94, 331.05)">s</text><text class="cls-32" transform="translate(354.75 326.63) rotate(-38.85)"> </text><text class="cls-45" transform="matrix(0.81, -0.59, 0.59, 0.81, 357.69, 324.22)">-</text><text class="cls-34" transform="matrix(0.84, -0.55, 0.55, 0.84, 361.8, 321.24)"> </text><text class="cls-35" transform="translate(365.02 319.01) rotate(-29.21)">L</text><text class="cls-36" transform="translate(371.12 315.56) rotate(-25.03)">e</text><text class="cls-37" transform="translate(378.47 312.15) rotate(-19.4)">x</text><text class="cls-47" transform="translate(385.16 309.85) rotate(-16.57)">i</text><text class="cls-69" transform="translate(388.99 308.68) rotate(-12.28)">c</text><text class="cls-70" transform="translate(395.74 307.22) rotate(-7.97)">a</text><text class="cls-68" transform="translate(403.63 306.23) rotate(-3.63)">l</text><text class="cls-40" transform="translate(407.49 305.97) rotate(-0.72)"> </text><text class="cls-68" transform="translate(411.43 305.78) rotate(3.63)">R</text><text class="cls-70" transform="translate(420.1 306.35) rotate(7.97)">e</text><text class="cls-43" transform="translate(428.36 307.61) rotate(13.71)">s</text><text class="cls-40" transform="matrix(0.95, 0.31, -0.31, 0.95, 434.71, 309.15)">o</text><text class="cls-36" transform="translate(443.19 311.96) rotate(25.03)">u</text><text class="cls-35" transform="translate(451.02 315.65) rotate(29.21)">r</text><text class="cls-34" transform="matrix(0.84, 0.55, -0.55, 0.84, 455.93, 318.4)">c</text><text class="cls-32" transform="translate(461.91 322.31) rotate(38.85)">e</text><text class="cls-31" transform="matrix(0.73, 0.68, -0.68, 0.73, 468.28, 327.5)">s</text><text class="cls-31" transform="matrix(0.68, 0.73, -0.73, 0.68, 473, 332)"> </text><text class="cls-30" transform="translate(475.61 334.77) rotate(49.78)">-</text><text class="cls-33" transform="matrix(0.61, 0.79, -0.79, 0.61, 478.87, 338.66)"> </text><text class="cls-34" transform="matrix(0.55, 0.84, -0.84, 0.55, 481.3, 341.75)">E</text><text class="cls-45" transform="matrix(0.47, 0.88, -0.88, 0.47, 485.69, 348.38)">d</text><text class="cls-71" transform="translate(489.65 356.07) rotate(66.37)">i</text><path class="cls-46" d="M505,331.62l1.55-.55a.2.2,0,0,0,.09-.06s0-.06.05-.12a1.14,1.14,0,0,0,0-.21,1.21,1.21,0,0,0-.09-.3,1.63,1.63,0,0,0-.11-.28l-.11-.18c-.05,0-.08-.06-.11-.06a.14.14,0,0,0-.11,0l-1.56.54-.32-.91a.2.2,0,0,0-.06-.09.17.17,0,0,0-.12-.06h-.17a1,1,0,0,0-.24.07.85.85,0,0,0-.35.19.21.21,0,0,0-.06.22l.33.92-3.82,1.35a3.66,3.66,0,0,0-.95.45,1.72,1.72,0,0,0-.58.59,1.62,1.62,0,0,0-.19.74,2.37,2.37,0,0,0,.18.92c0,.11.09.22.13.33s.12.2.17.3a1,1,0,0,0,.18.22.53.53,0,0,0,.17.15.39.39,0,0,0,.22,0,1.94,1.94,0,0,0,.34-.09l.22-.09s.1,0,.12-.08a.07.07,0,0,0,0-.08.09.09,0,0,0,0-.07.47.47,0,0,0-.09-.12,1.32,1.32,0,0,1-.12-.16c-.06-.05-.1-.13-.16-.19a2.55,2.55,0,0,1-.13-.29.83.83,0,0,1,.08-.85,2.19,2.19,0,0,1,1-.56L504,332l1.19,3.39-5.74,2a.17.17,0,0,0-.08.06.15.15,0,0,0,0,.13,1.42,1.42,0,0,0,0,.19c0,.08.05.19.09.31a2.38,2.38,0,0,0,.12.27l.11.17a.17.17,0,0,0,.11.08h.1l6.35-2.23a.54.54,0,0,0,.26-.18.42.42,0,0,0,0-.33Zm4.2,3.65a.89.89,0,0,0-.06-.64c-.1-.28-.21-.46-.35-.52a.86.86,0,0,0-.64,0,.85.85,0,0,0-.51.36.91.91,0,0,0,.06.63.87.87,0,0,0,.35.53.86.86,0,0,0,.64,0,.85.85,0,0,0,.51-.36Z" transform="translate(-5.87 28.25)"/><text class="cls-40" transform="matrix(0.31, 0.95, -0.95, 0.31, 492.85, 363.96)"> </text><text class="cls-43" transform="translate(494.36 368.5) rotate(76.29)">o</text><text class="cls-70" transform="translate(496.36 377.07) rotate(82.03)">n</text><text class="cls-41" transform="translate(497.47 385.79) rotate(87.82)">s</text></g><text class="cls-72" transform="translate(324.21 391.83) rotate(-86.37)">C</text><text class="cls-62" transform="translate(324.76 382.94) rotate(-80.59)">o</text><text class="cls-63" transform="translate(326.25 374.37) rotate(-76.29)">l</text><text class="cls-58" transform="translate(327.13 370.72) rotate(-74.86)">l</text><text class="cls-57" transform="translate(328.16 366.86) rotate(-70.6)">e</text><text class="cls-56" transform="translate(331.02 359.04) rotate(-64.97)">c</text><path class="cls-66" d="M335,318.17l-1.41-.84-.11,0a.34.34,0,0,0-.12,0l-.15.16a1.3,1.3,0,0,0-.17.26,2.38,2.38,0,0,0-.14.27,1.36,1.36,0,0,0-.06.2.22.22,0,0,0,0,.12s0,.06.08.08l1.41.84-.49.83a.15.15,0,0,0,0,.11.21.21,0,0,0,0,.13l.12.12a.86.86,0,0,0,.2.14.85.85,0,0,0,.38.15.21.21,0,0,0,.2-.1l.5-.84,3.48,2.06a4.49,4.49,0,0,0,.95.43,1.73,1.73,0,0,0,.83.07,1.52,1.52,0,0,0,.69-.33,2.65,2.65,0,0,0,.59-.73L342,321c.05-.11.08-.23.12-.33a1,1,0,0,0,.05-.28.42.42,0,0,0,0-.22A.41.41,0,0,0,342,320a1.36,1.36,0,0,0-.29-.21.85.85,0,0,0-.21-.11,1,1,0,0,0-.14,0s-.07,0-.08,0l-.06,0a.19.19,0,0,0,0,.15.9.9,0,0,1-.05.19,1.38,1.38,0,0,1-.05.25,1.75,1.75,0,0,1-.13.28.84.84,0,0,1-.71.49,2.25,2.25,0,0,1-1-.38l-3.32-2,1.83-3.09,5.23,3.09a.22.22,0,0,0,.1,0,.15.15,0,0,0,.12-.06l.14-.14a2.73,2.73,0,0,0,.18-.26,1.62,1.62,0,0,0,.13-.27,1,1,0,0,0,.06-.19.14.14,0,0,0,0-.13.25.25,0,0,0-.07-.08l-5.79-3.42a.5.5,0,0,0-.3-.09.4.4,0,0,0-.25.22Zm.1-5.56c-.16,0-.3.19-.45.45a.84.84,0,0,0-.18.61.85.85,0,0,0,.44.46.84.84,0,0,0,.61.16c.15,0,.29-.19.45-.45a.65.65,0,0,0-.27-1.08.81.81,0,0,0-.6-.15Z" transform="translate(-5.87 28.25)"/><text class="cls-67" transform="translate(336.29 348.63) rotate(-58.03)"> </text><text class="cls-65" transform="matrix(0.59, -0.81, 0.81, 0.59, 338.77, 344.58)">o</text><text class="cls-52" transform="translate(344.02 337.52) rotate(-48.42)">n</text><text class="cls-51" transform="matrix(0.73, -0.68, 0.68, 0.73, 349.94, 331.05)">s</text><text class="cls-52" transform="translate(354.75 326.63) rotate(-38.85)"> </text><text class="cls-65" transform="matrix(0.81, -0.59, 0.59, 0.81, 357.69, 324.22)">-</text><text class="cls-54" transform="matrix(0.84, -0.55, 0.55, 0.84, 361.8, 321.24)"> </text><text class="cls-55" transform="translate(365.02 319.01) rotate(-29.21)">L</text><text class="cls-56" transform="translate(371.12 315.56) rotate(-25.03)">e</text><text class="cls-57" transform="translate(378.47 312.15) rotate(-19.4)">x</text><text class="cls-67" transform="translate(385.16 309.85) rotate(-16.57)">i</text><text class="cls-73" transform="translate(388.99 308.68) rotate(-12.28)">c</text><text class="cls-74" transform="translate(395.74 307.22) rotate(-7.97)">a</text><text class="cls-72" transform="translate(403.63 306.23) rotate(-3.63)">l</text><text class="cls-60" transform="translate(407.49 305.97) rotate(-0.72)"> </text><text class="cls-72" transform="translate(411.43 305.78) rotate(3.63)">R</text><text class="cls-74" transform="translate(420.1 306.35) rotate(7.97)">e</text><text class="cls-63" transform="translate(428.36 307.61) rotate(13.71)">s</text><text class="cls-60" transform="matrix(0.95, 0.31, -0.31, 0.95, 434.71, 309.15)">o</text><text class="cls-56" transform="translate(443.19 311.96) rotate(25.03)">u</text><text class="cls-55" transform="translate(451.02 315.65) rotate(29.21)">r</text><text class="cls-54" transform="matrix(0.84, 0.55, -0.55, 0.84, 455.93, 318.4)">c</text><text class="cls-52" transform="translate(461.91 322.31) rotate(38.85)">e</text><text class="cls-51" transform="matrix(0.73, 0.68, -0.68, 0.73, 468.28, 327.5)">s</text><text class="cls-51" transform="matrix(0.68, 0.73, -0.73, 0.68, 473, 332)"> </text><text class="cls-50" transform="translate(475.61 334.77) rotate(49.78)">-</text><text class="cls-53" transform="matrix(0.61, 0.79, -0.79, 0.61, 478.87, 338.66)"> </text><text class="cls-54" transform="matrix(0.55, 0.84, -0.84, 0.55, 481.3, 341.75)">E</text><text class="cls-65" transform="matrix(0.47, 0.88, -0.88, 0.47, 485.69, 348.38)">d</text><text class="cls-75" transform="translate(489.65 356.07) rotate(66.37)">i</text><path class="cls-66" d="M505,331.62l1.55-.55a.2.2,0,0,0,.09-.06s0-.06.05-.12a1.14,1.14,0,0,0,0-.21,1.21,1.21,0,0,0-.09-.3,1.63,1.63,0,0,0-.11-.28l-.11-.18c-.05,0-.08-.06-.11-.06a.14.14,0,0,0-.11,0l-1.56.54-.32-.91a.2.2,0,0,0-.06-.09.17.17,0,0,0-.12-.06h-.17a1,1,0,0,0-.24.07.85.85,0,0,0-.35.19.21.21,0,0,0-.06.22l.33.92-3.82,1.35a3.66,3.66,0,0,0-.95.45,1.72,1.72,0,0,0-.58.59,1.62,1.62,0,0,0-.19.74,2.37,2.37,0,0,0,.18.92c0,.11.09.22.13.33s.12.2.17.3a1,1,0,0,0,.18.22.53.53,0,0,0,.17.15.39.39,0,0,0,.22,0,1.94,1.94,0,0,0,.34-.09l.22-.09s.1,0,.12-.08a.07.07,0,0,0,0-.08.09.09,0,0,0,0-.07.47.47,0,0,0-.09-.12,1.32,1.32,0,0,1-.12-.16c-.06-.05-.1-.13-.16-.19a2.55,2.55,0,0,1-.13-.29.83.83,0,0,1,.08-.85,2.19,2.19,0,0,1,1-.56L504,332l1.19,3.39-5.74,2a.17.17,0,0,0-.08.06.15.15,0,0,0,0,.13,1.42,1.42,0,0,0,0,.19c0,.08.05.19.09.31a2.38,2.38,0,0,0,.12.27l.11.17a.17.17,0,0,0,.11.08h.1l6.35-2.23a.54.54,0,0,0,.26-.18.42.42,0,0,0,0-.33Zm4.2,3.65a.89.89,0,0,0-.06-.64c-.1-.28-.21-.46-.35-.52a.86.86,0,0,0-.64,0,.85.85,0,0,0-.51.36.91.91,0,0,0,.06.63.87.87,0,0,0,.35.53.86.86,0,0,0,.64,0,.85.85,0,0,0,.51-.36Z" transform="translate(-5.87 28.25)"/><text class="cls-60" transform="matrix(0.31, 0.95, -0.95, 0.31, 492.85, 363.96)"> </text><text class="cls-63" transform="translate(494.36 368.5) rotate(76.29)">o</text><text class="cls-74" transform="translate(496.36 377.07) rotate(82.03)">n</text><text class="cls-61" transform="translate(497.47 385.79) rotate(87.82)">s</text><path class="cls-15" d="M91.15,364.35A47.15,47.15,0,1,0,44,317.2a47.15,47.15,0,0,0,47.15,47.15Z" transform="translate(-5.87 28.25)"/><text class="cls-16" transform="matrix(0.66, -0.75, 0.75, 0.66, 55.54, 325.16)">N</text><text class="cls-17" transform="translate(60 320.05) rotate(-40.22)">F</text><text class="cls-18" transform="translate(63.43 316.99) rotate(-31.97)">D</text><text class="cls-19" transform="translate(68.91 313.62) rotate(-23.63)">I</text><text class="cls-20" transform="translate(71.63 312.38) rotate(-19.4)"> </text><text class="cls-21" transform="translate(73.64 311.43) rotate(-12.28)">C</text><text class="cls-22" transform="matrix(1, -0.06, 0.06, 1, 79.13, 310.05)">o</text><text class="cls-23" transform="translate(84.51 309.52) rotate(5.07)">n</text><text class="cls-21" transform="translate(90.07 309.94) rotate(12.28)">s</text><text class="cls-20" transform="translate(94.1 310.68) rotate(19.4)">o</text><text class="cls-24" transform="translate(99.26 312.44) rotate(27.82)">r</text><text class="cls-25" transform="matrix(0.84, 0.55, -0.55, 0.84, 103.07, 314.4)">t</text><text class="cls-26" transform="translate(106.13 316.39) rotate(38.85)">i</text><text class="cls-27" transform="matrix(0.72, 0.7, -0.7, 0.72, 108.01, 317.74)">u</text><text class="cls-17" transform="matrix(0.57, 0.82, -0.82, 0.57, 111.72, 320.91)">m</text><path class="cls-15" d="M122.64,182a47.15,47.15,0,1,0-47.15-47.14A47.14,47.14,0,0,0,122.64,182Z" transform="translate(-5.87 28.25)"/><text class="cls-16" transform="matrix(0.66, -0.75, 0.75, 0.66, 87.02, 142.83)">N</text><text class="cls-17" transform="translate(91.49 137.73) rotate(-40.22)">F</text><text class="cls-18" transform="translate(94.92 134.67) rotate(-31.97)">D</text><text class="cls-19" transform="translate(100.4 131.3) rotate(-23.63)">I</text><text class="cls-20" transform="translate(103.12 130.06) rotate(-19.4)"> </text><text class="cls-21" transform="translate(105.13 129.1) rotate(-12.28)">C</text><text class="cls-22" transform="matrix(1, -0.06, 0.06, 1, 110.63, 127.73)">o</text><text class="cls-23" transform="translate(116 127.2) rotate(5.07)">n</text><text class="cls-21" transform="translate(121.55 127.6) rotate(12.28)">s</text><text class="cls-20" transform="translate(125.59 128.36) rotate(19.4)">o</text><text class="cls-24" transform="translate(130.75 130.11) rotate(27.82)">r</text><text class="cls-25" transform="matrix(0.84, 0.55, -0.55, 0.84, 134.57, 132.08)">t</text><text class="cls-26" transform="translate(137.62 134.06) rotate(38.85)">i</text><text class="cls-27" transform="matrix(0.72, 0.7, -0.7, 0.72, 139.51, 135.42)">u</text><text class="cls-17" transform="matrix(0.57, 0.82, -0.82, 0.57, 143.21, 138.58)">m</text><path class="cls-15" d="M283.71,118.14A47.15,47.15,0,1,0,236.56,71a47.14,47.14,0,0,0,47.15,47.15Z" transform="translate(-5.87 28.25)"/><text class="cls-16" transform="matrix(0.66, -0.75, 0.75, 0.66, 248.09, 78.94)">N</text><text class="cls-17" transform="translate(252.56 73.84) rotate(-40.22)">F</text><text class="cls-18" transform="translate(255.99 70.78) rotate(-31.97)">D</text><text class="cls-19" transform="translate(261.47 67.41) rotate(-23.63)">I</text><text class="cls-20" transform="translate(264.19 66.16) rotate(-19.4)"> </text><text class="cls-21" transform="translate(266.2 65.22) rotate(-12.28)">C</text><text class="cls-22" transform="matrix(1, -0.06, 0.06, 1, 271.69, 63.85)">o</text><text class="cls-23" transform="translate(277.08 63.31) rotate(5.07)">n</text><text class="cls-21" transform="translate(282.63 63.72) rotate(12.28)">s</text><text class="cls-20" transform="translate(286.67 64.47) rotate(19.4)">o</text><text class="cls-24" transform="translate(291.83 66.23) rotate(27.82)">r</text><text class="cls-25" transform="matrix(0.84, 0.55, -0.55, 0.84, 295.64, 68.19)">t</text><text class="cls-26" transform="translate(298.69 70.17) rotate(38.85)">i</text><text class="cls-27" transform="matrix(0.72, 0.7, -0.7, 0.72, 300.59, 71.54)">u</text><text class="cls-17" transform="matrix(0.57, 0.82, -0.82, 0.57, 304.29, 74.7)">m</text><path class="cls-76" d="M433.1,221.24A47.15,47.15,0,1,0,386,174.09a47.14,47.14,0,0,0,47.15,47.15Z" transform="translate(-5.87 28.25)"/><text class="cls-16" transform="matrix(0.66, -0.75, 0.75, 0.66, 397.49, 182.05)">N</text><text class="cls-17" transform="translate(401.95 176.94) rotate(-40.22)">F</text><text class="cls-18" transform="translate(405.38 173.87) rotate(-31.97)">D</text><text class="cls-19" transform="translate(410.87 170.5) rotate(-23.63)">I</text><text class="cls-20" transform="translate(413.58 169.26) rotate(-19.4)"> </text><text class="cls-21" transform="translate(415.58 168.31) rotate(-12.28)">C</text><text class="cls-22" transform="matrix(1, -0.06, 0.06, 1, 421.08, 166.95)">o</text><text class="cls-23" transform="translate(426.46 166.41) rotate(5.07)">n</text><text class="cls-21" transform="translate(432.02 166.82) rotate(12.28)">s</text><text class="cls-20" transform="translate(436.06 167.57) rotate(19.4)">o</text><text class="cls-24" transform="translate(441.22 169.33) rotate(27.82)">r</text><text class="cls-25" transform="matrix(0.84, 0.55, -0.55, 0.84, 445.03, 171.29)">t</text><text class="cls-26" transform="translate(448.08 173.27) rotate(38.85)">i</text><text class="cls-27" transform="matrix(0.72, 0.7, -0.7, 0.72, 449.97, 174.63)">u</text><text class="cls-17" transform="matrix(0.57, 0.82, -0.82, 0.57, 453.68, 177.8)">m</text><path class="cls-77" d="M217.93,255.37a47.15,47.15,0,1,0,94.29,0" transform="translate(-5.87 28.25)"/><text class="cls-78" transform="matrix(0.36, 0.93, -0.93, 0.36, 216.91, 292.99)">D</text><text class="cls-79" transform="matrix(0.57, 0.82, -0.82, 0.57, 221.52, 304.47)">I</text><text class="cls-80" transform="translate(225.1 310.21) rotate(44.32)">R</text><text class="cls-81" transform="matrix(0.86, 0.51, -0.51, 0.86, 233.05, 317.94)">E</text><text class="cls-82" transform="translate(241.75 323.29) rotate(15.14)">C</text><text class="cls-83" transform="translate(253.18 326.4) rotate(0.73)">T</text><text class="cls-82" transform="translate(263.31 326.9) rotate(-15.14)">O</text><text class="cls-81" transform="matrix(0.86, -0.51, 0.51, 0.86, 275.96, 323.5)">R</text><text class="cls-80" transform="translate(285.93 317.59) rotate(-45.68)">A</text><text class="cls-84" transform="translate(293.56 309.98) rotate(-60.79)">T</text><text class="cls-85" transform="matrix(0.31, -0.95, 0.95, 0.31, 298.77, 300.55)">E</text><path class="cls-77" d="M312.22,255.78a47.15,47.15,0,1,0-94.29,0" transform="translate(-5.87 28.25)"/><text class="cls-85" transform="matrix(0.96, -0.29, 0.29, 0.96, 243.03, 255.54)">N</text><text class="cls-86" transform="translate(252.6 252.36) rotate(-2.18)">F</text><text class="cls-84" transform="translate(259.73 251.49) rotate(12.28)">D</text><text class="cls-87" transform="translate(269.84 253.85) rotate(23.63)">I</text></svg>